<?xml version="1.0" encoding="UTF-8"?>
<svg width="284px" height="126px" viewBox="0 0 284 126" version="1.1" xmlns="http://www.w3.org/2000/svg" xmlns:xlink="http://www.w3.org/1999/xlink">
    <title>logo-small</title>
    <g id="logo-small" stroke="none" stroke-width="1" fill="none" fill-rule="evenodd">
        <path d="M2.1,55.2323821 L21,46.4323821 C22.9,45.5323821 24.3,43.8323821 24.7,41.7323821 L33.1,1.73238208 C33.3,0.632382079 32.2,-0.367617921 31.2,0.132382079 L2.7,10.9323821 C1.2,11.5323821 0.3,12.8323821 0.3,14.4323821 L0,53.9323821 C0,55.0323821 1.1,55.7323821 2.1,55.2323821" id="Path" fill="#201751" fill-rule="nonzero"></path>
        <path d="M9,104.332382 L42.2,85.9323821 C43.4,85.2323821 44.2,84.1323821 44.5,82.8323821 L57.7,19.9323821 C58.1,18.1323821 56.3,16.6323821 54.6,17.3323821 L9.8,34.4323821 C7.6,35.2323821 6.1,37.3323821 6.1,39.7323821 L5.5,102.232382 C5.5,104.132382 7.4,105.232382 9,104.332382" id="Path" fill="#FF2891" fill-rule="nonzero"></path>
        <path d="M51,72.3323821 L26,55.3323821 L26,94.1323821 C26,94.6323821 25.7,95.0323821 25.3,95.2323821 L20.2,98.0323821 L20.2,101.932382 C20.2,103.132382 20.8,104.232382 21.8,104.932382 L51.4,125.032382 C52.3,125.632382 53.5,125.032382 53.5,123.932382 L53.6,77.3323821 C53.7,75.3323821 52.7,73.5323821 51,72.3323821" id="Path" fill="#201751" fill-rule="nonzero"></path>
        <g id="Social-Security-Scot" transform="translate(78.1725, 32.03)" fill="#201751" fill-rule="nonzero">
            <path d="M2.5675,19.76 C3.13083333,20.605 3.85125,21.2279167 4.72875,21.62875 C5.60625,22.0295833 6.51083333,22.23 7.4425,22.23 C7.9625,22.23 8.49333333,22.14875 9.035,21.98625 C9.57666667,21.82375 10.0695833,21.58 10.51375,21.255 C10.9579167,20.93 11.3208333,20.5291667 11.6025,20.0525 C11.8841667,19.5758333 12.025,19.0233333 12.025,18.395 C12.025,17.5066667 11.7433333,16.8295833 11.18,16.36375 C10.6166667,15.8979167 9.91791667,15.5079167 9.08375,15.19375 C8.24958333,14.8795833 7.33958333,14.57625 6.35375,14.28375 C5.36791667,13.99125 4.45791667,13.585 3.62375,13.065 C2.78958333,12.545 2.09083333,11.84625 1.5275,10.96875 C0.964166667,10.09125 0.6825,8.905 0.6825,7.41 C0.6825,6.73833333 0.82875,6.02333333 1.12125,5.265 C1.41375,4.50666667 1.87416667,3.81333333 2.5025,3.185 C3.13083333,2.55666667 3.93791667,2.03125 4.92375,1.60875 C5.90958333,1.18625 7.09583333,0.975 8.4825,0.975 C9.73916667,0.975 10.9416667,1.14833333 12.09,1.495 C13.2383333,1.84166667 14.2458333,2.54583333 15.1125,3.6075 L12.5775,5.915 C12.1875,5.30833333 11.635,4.82083333 10.92,4.4525 C10.205,4.08416667 9.3925,3.9 8.4825,3.9 C7.61583333,3.9 6.89541667,4.01375 6.32125,4.24125 C5.74708333,4.46875 5.28666667,4.76125 4.94,5.11875 C4.59333333,5.47625 4.34958333,5.86083333 4.20875,6.2725 C4.06791667,6.68416667 3.9975,7.06333333 3.9975,7.41 C3.9975,8.385 4.27916667,9.1325 4.8425,9.6525 C5.40583333,10.1725 6.10458333,10.595 6.93875,10.92 C7.77291667,11.245 8.68291667,11.5375 9.66875,11.7975 C10.6545833,12.0575 11.5645833,12.4204167 12.39875,12.88625 C13.2329167,13.3520833 13.9316667,13.9804167 14.495,14.77125 C15.0583333,15.5620833 15.34,16.6508333 15.34,18.0375 C15.34,19.1425 15.12875,20.1391667 14.70625,21.0275 C14.28375,21.9158333 13.715,22.6633333 13,23.27 C12.285,23.8766667 11.44,24.3425 10.465,24.6675 C9.49,24.9925 8.45,25.155 7.345,25.155 C5.87166667,25.155 4.47416667,24.895 3.1525,24.375 C1.83083333,23.855 0.78,23.0533333 4.54747351e-13,21.97 L2.5675,19.76 Z" id="Path"></path>
            <path d="M21.18,16.8675 C21.18,17.6475 21.2991667,18.3679167 21.5375,19.02875 C21.7758333,19.6895833 22.1116667,20.2529167 22.545,20.71875 C22.9783333,21.1845833 23.5091667,21.5529167 24.1375,21.82375 C24.7658333,22.0945833 25.47,22.23 26.25,22.23 C27.03,22.23 27.7341667,22.0945833 28.3625,21.82375 C28.9908333,21.5529167 29.5216667,21.1845833 29.955,20.71875 C30.3883333,20.2529167 30.7241667,19.6895833 30.9625,19.02875 C31.2008333,18.3679167 31.32,17.6475 31.32,16.8675 C31.32,16.0875 31.2008333,15.3670833 30.9625,14.70625 C30.7241667,14.0454167 30.3883333,13.4820833 29.955,13.01625 C29.5216667,12.5504167 28.9908333,12.1820833 28.3625,11.91125 C27.7341667,11.6404167 27.03,11.505 26.25,11.505 C25.47,11.505 24.7658333,11.6404167 24.1375,11.91125 C23.5091667,12.1820833 22.9783333,12.5504167 22.545,13.01625 C22.1116667,13.4820833 21.7758333,14.0454167 21.5375,14.70625 C21.2991667,15.3670833 21.18,16.0875 21.18,16.8675 Z M18.06,16.8675 C18.06,15.7408333 18.27125,14.69 18.69375,13.715 C19.11625,12.74 19.6958333,11.8841667 20.4325,11.1475 C21.1691667,10.4108333 22.0358333,9.83125 23.0325,9.40875 C24.0291667,8.98625 25.1016667,8.775 26.25,8.775 C27.3983333,8.775 28.4708333,8.98625 29.4675,9.40875 C30.4641667,9.83125 31.3308333,10.4108333 32.0675,11.1475 C32.8041667,11.8841667 33.38375,12.74 33.80625,13.715 C34.22875,14.69 34.44,15.7408333 34.44,16.8675 C34.44,17.9941667 34.22875,19.0504167 33.80625,20.03625 C33.38375,21.0220833 32.8041667,21.8779167 32.0675,22.60375 C31.3308333,23.3295833 30.4641667,23.90375 29.4675,24.32625 C28.4708333,24.74875 27.3983333,24.96 26.25,24.96 C25.1016667,24.96 24.0291667,24.74875 23.0325,24.32625 C22.0358333,23.90375 21.1691667,23.3295833 20.4325,22.60375 C19.6958333,21.8779167 19.11625,21.0220833 18.69375,20.03625 C18.27125,19.0504167 18.06,17.9941667 18.06,16.8675 Z" id="Shape"></path>
            <path d="M48.73,13.26 C48.1883333,12.6966667 47.6195833,12.26875 47.02375,11.97625 C46.4279167,11.68375 45.7183333,11.5375 44.895,11.5375 C44.0933333,11.5375 43.3945833,11.68375 42.79875,11.97625 C42.2029167,12.26875 41.7045833,12.6695833 41.30375,13.17875 C40.9029167,13.6879167 40.5995833,14.2729167 40.39375,14.93375 C40.1879167,15.5945833 40.085,16.2825 40.085,16.9975 C40.085,17.7125 40.2041667,18.3895833 40.4425,19.02875 C40.6808333,19.6679167 41.0166667,20.2258333 41.45,20.7025 C41.8833333,21.1791667 42.4033333,21.5529167 43.01,21.82375 C43.6166667,22.0945833 44.2991667,22.23 45.0575,22.23 C45.8808333,22.23 46.585,22.08375 47.17,21.79125 C47.755,21.49875 48.2966667,21.0708333 48.795,20.5075 L50.875,22.5875 C50.1166667,23.4325 49.23375,24.0391667 48.22625,24.4075 C47.21875,24.7758333 46.1516667,24.96 45.025,24.96 C43.8333333,24.96 42.7445833,24.765 41.75875,24.375 C40.7729167,23.985 39.9225,23.4379167 39.2075,22.73375 C38.4925,22.0295833 37.94,21.1845833 37.55,20.19875 C37.16,19.2129167 36.965,18.1241667 36.965,16.9325 C36.965,15.7408333 37.16,14.6466667 37.55,13.65 C37.94,12.6533333 38.4870833,11.7975 39.19125,11.0825 C39.8954167,10.3675 40.7404167,9.80958333 41.72625,9.40875 C42.7120833,9.00791667 43.8116667,8.8075 45.025,8.8075 C46.1516667,8.8075 47.2295833,9.00791667 48.25875,9.40875 C49.2879167,9.80958333 50.1816667,10.4216667 50.94,11.245 L48.73,13.26 Z" id="Path"></path>
            <path d="M53.205,9.165 L56.13,9.165 L56.13,24.57 L53.205,24.57 L53.205,9.165 Z M52.5225,3.64 C52.5225,3.055 52.73375,2.55125 53.15625,2.12875 C53.57875,1.70625 54.0825,1.495 54.6675,1.495 C55.2525,1.495 55.75625,1.70625 56.17875,2.12875 C56.60125,2.55125 56.8125,3.055 56.8125,3.64 C56.8125,4.225 56.60125,4.72875 56.17875,5.15125 C55.75625,5.57375 55.2525,5.785 54.6675,5.785 C54.0825,5.785 53.57875,5.57375 53.15625,5.15125 C52.73375,4.72875 52.5225,4.225 52.5225,3.64 Z" id="Shape"></path>
            <path d="M60.4425,11.05 C61.2658333,10.2916667 62.2191667,9.72291667 63.3025,9.34375 C64.3858333,8.96458333 65.4691667,8.775 66.5525,8.775 C67.6791667,8.775 68.64875,8.91583333 69.46125,9.1975 C70.27375,9.47916667 70.94,9.85833333 71.46,10.335 C71.98,10.8116667 72.3645833,11.35875 72.61375,11.97625 C72.8629167,12.59375 72.9875,13.2383333 72.9875,13.91 L72.9875,21.775 C72.9875,22.3166667 72.9983333,22.815 73.02,23.27 C73.0416667,23.725 73.0741667,24.1583333 73.1175,24.57 L70.5175,24.57 C70.4525,23.79 70.42,23.01 70.42,22.23 L70.355,22.23 C69.705,23.2266667 68.9358333,23.9308333 68.0475,24.3425 C67.1591667,24.7541667 66.13,24.96 64.96,24.96 C64.245,24.96 63.5625,24.8625 62.9125,24.6675 C62.2625,24.4725 61.69375,24.18 61.20625,23.79 C60.71875,23.4 60.3341667,22.9179167 60.0525,22.34375 C59.7708333,21.7695833 59.63,21.1033333 59.63,20.345 C59.63,19.3483333 59.8520833,18.5141667 60.29625,17.8425 C60.7404167,17.1708333 61.3470833,16.62375 62.11625,16.20125 C62.8854167,15.77875 63.7845833,15.4754167 64.81375,15.29125 C65.8429167,15.1070833 66.9425,15.015 68.1125,15.015 L70.2575,15.015 L70.2575,14.365 C70.2575,13.975 70.1816667,13.585 70.03,13.195 C69.8783333,12.805 69.6508333,12.4529167 69.3475,12.13875 C69.0441667,11.8245833 68.665,11.5754167 68.21,11.39125 C67.755,11.2070833 67.2133333,11.115 66.585,11.115 C66.0216667,11.115 65.52875,11.1691667 65.10625,11.2775 C64.68375,11.3858333 64.2991667,11.52125 63.9525,11.68375 C63.6058333,11.84625 63.2916667,12.0358333 63.01,12.2525 C62.7283333,12.4691667 62.4575,12.675 62.1975,12.87 L60.4425,11.05 Z M68.6975,17.16 C68.0041667,17.16 67.2945833,17.1979167 66.56875,17.27375 C65.8429167,17.3495833 65.1820833,17.4958333 64.58625,17.7125 C63.9904167,17.9291667 63.5029167,18.2325 63.12375,18.6225 C62.7445833,19.0125 62.555,19.5108333 62.555,20.1175 C62.555,21.0058333 62.8529167,21.645 63.44875,22.035 C64.0445833,22.425 64.8516667,22.62 65.87,22.62 C66.6716667,22.62 67.3541667,22.4845833 67.9175,22.21375 C68.4808333,21.9429167 68.9358333,21.5908333 69.2825,21.1575 C69.6291667,20.7241667 69.8783333,20.2420833 70.03,19.71125 C70.1816667,19.1804167 70.2575,18.655 70.2575,18.135 L70.2575,17.16 L68.6975,17.16 Z" id="Shape"></path>
            <polygon id="Path" points="77.0725 0 79.9975 0 79.9975 24.57 77.0725 24.57"></polygon>
            <path d="M94.31,19.76 C94.8733333,20.605 95.59375,21.2279167 96.47125,21.62875 C97.34875,22.0295833 98.2533333,22.23 99.185,22.23 C99.705,22.23 100.235833,22.14875 100.7775,21.98625 C101.319167,21.82375 101.812083,21.58 102.25625,21.255 C102.700417,20.93 103.063333,20.5291667 103.345,20.0525 C103.626667,19.5758333 103.7675,19.0233333 103.7675,18.395 C103.7675,17.5066667 103.485833,16.8295833 102.9225,16.36375 C102.359167,15.8979167 101.660417,15.5079167 100.82625,15.19375 C99.9920833,14.8795833 99.0820833,14.57625 98.09625,14.28375 C97.1104167,13.99125 96.2004167,13.585 95.36625,13.065 C94.5320833,12.545 93.8333333,11.84625 93.27,10.96875 C92.7066667,10.09125 92.425,8.905 92.425,7.41 C92.425,6.73833333 92.57125,6.02333333 92.86375,5.265 C93.15625,4.50666667 93.6166667,3.81333333 94.245,3.185 C94.8733333,2.55666667 95.6804167,2.03125 96.66625,1.60875 C97.6520833,1.18625 98.8383333,0.975 100.225,0.975 C101.481667,0.975 102.684167,1.14833333 103.8325,1.495 C104.980833,1.84166667 105.988333,2.54583333 106.855,3.6075 L104.32,5.915 C103.93,5.30833333 103.3775,4.82083333 102.6625,4.4525 C101.9475,4.08416667 101.135,3.9 100.225,3.9 C99.3583333,3.9 98.6379167,4.01375 98.06375,4.24125 C97.4895833,4.46875 97.0291667,4.76125 96.6825,5.11875 C96.3358333,5.47625 96.0920833,5.86083333 95.95125,6.2725 C95.8104167,6.68416667 95.74,7.06333333 95.74,7.41 C95.74,8.385 96.0216667,9.1325 96.585,9.6525 C97.1483333,10.1725 97.8470833,10.595 98.68125,10.92 C99.5154167,11.245 100.425417,11.5375 101.41125,11.7975 C102.397083,12.0575 103.307083,12.4204167 104.14125,12.88625 C104.975417,13.3520833 105.674167,13.9804167 106.2375,14.77125 C106.800833,15.5620833 107.0825,16.6508333 107.0825,18.0375 C107.0825,19.1425 106.87125,20.1391667 106.44875,21.0275 C106.02625,21.9158333 105.4575,22.6633333 104.7425,23.27 C104.0275,23.8766667 103.1825,24.3425 102.2075,24.6675 C101.2325,24.9925 100.1925,25.155 99.0875,25.155 C97.6141667,25.155 96.2166667,24.895 94.895,24.375 C93.5733333,23.855 92.5225,23.0533333 91.7425,21.97 L94.31,19.76 Z" id="Path"></path>
            <path d="M112.76,17.94 C112.76,18.6116667 112.90625,19.22375 113.19875,19.77625 C113.49125,20.32875 113.875833,20.8 114.3525,21.19 C114.829167,21.58 115.381667,21.8833333 116.01,22.1 C116.638333,22.3166667 117.288333,22.425 117.96,22.425 C118.87,22.425 119.660833,22.21375 120.3325,21.79125 C121.004167,21.36875 121.621667,20.8108333 122.185,20.1175 L124.395,21.8075 C122.77,23.9091667 120.495,24.96 117.57,24.96 C116.356667,24.96 115.257083,24.7541667 114.27125,24.3425 C113.285417,23.9308333 112.45125,23.3620833 111.76875,22.63625 C111.08625,21.9104167 110.560833,21.0545833 110.1925,20.06875 C109.824167,19.0829167 109.64,18.0158333 109.64,16.8675 C109.64,15.7191667 109.840417,14.6520833 110.24125,13.66625 C110.642083,12.6804167 111.194583,11.8245833 111.89875,11.09875 C112.602917,10.3729167 113.4425,9.80416667 114.4175,9.3925 C115.3925,8.98083333 116.454167,8.775 117.6025,8.775 C118.9675,8.775 120.12125,9.01333333 121.06375,9.49 C122.00625,9.96666667 122.780833,10.5895833 123.3875,11.35875 C123.994167,12.1279167 124.432917,12.9945833 124.70375,13.95875 C124.974583,14.9229167 125.11,15.9033333 125.11,16.9 L125.11,17.94 L112.76,17.94 Z M121.99,15.6 C121.968333,14.95 121.865417,14.3541667 121.68125,13.8125 C121.497083,13.2708333 121.220833,12.7995833 120.8525,12.39875 C120.484167,11.9979167 120.02375,11.68375 119.47125,11.45625 C118.91875,11.22875 118.274167,11.115 117.5375,11.115 C116.8225,11.115 116.167083,11.2504167 115.57125,11.52125 C114.975417,11.7920833 114.471667,12.1441667 114.06,12.5775 C113.648333,13.0108333 113.32875,13.4929167 113.10125,14.02375 C112.87375,14.5545833 112.76,15.08 112.76,15.6 L121.99,15.6 Z" id="Shape"></path>
            <path d="M139.2375,13.26 C138.695833,12.6966667 138.127083,12.26875 137.53125,11.97625 C136.935417,11.68375 136.225833,11.5375 135.4025,11.5375 C134.600833,11.5375 133.902083,11.68375 133.30625,11.97625 C132.710417,12.26875 132.212083,12.6695833 131.81125,13.17875 C131.410417,13.6879167 131.107083,14.2729167 130.90125,14.93375 C130.695417,15.5945833 130.5925,16.2825 130.5925,16.9975 C130.5925,17.7125 130.711667,18.3895833 130.95,19.02875 C131.188333,19.6679167 131.524167,20.2258333 131.9575,20.7025 C132.390833,21.1791667 132.910833,21.5529167 133.5175,21.82375 C134.124167,22.0945833 134.806667,22.23 135.565,22.23 C136.388333,22.23 137.0925,22.08375 137.6775,21.79125 C138.2625,21.49875 138.804167,21.0708333 139.3025,20.5075 L141.3825,22.5875 C140.624167,23.4325 139.74125,24.0391667 138.73375,24.4075 C137.72625,24.7758333 136.659167,24.96 135.5325,24.96 C134.340833,24.96 133.252083,24.765 132.26625,24.375 C131.280417,23.985 130.43,23.4379167 129.715,22.73375 C129,22.0295833 128.4475,21.1845833 128.0575,20.19875 C127.6675,19.2129167 127.4725,18.1241667 127.4725,16.9325 C127.4725,15.7408333 127.6675,14.6466667 128.0575,13.65 C128.4475,12.6533333 128.994583,11.7975 129.69875,11.0825 C130.402917,10.3675 131.247917,9.80958333 132.23375,9.40875 C133.219583,9.00791667 134.319167,8.8075 135.5325,8.8075 C136.659167,8.8075 137.737083,9.00791667 138.76625,9.40875 C139.795417,9.80958333 140.689167,10.4216667 141.4475,11.245 L139.2375,13.26 Z" id="Path"></path>
            <path d="M157.135,24.57 L154.21,24.57 L154.21,22.1975 L154.145,22.1975 C153.776667,23.0208333 153.1375,23.6870833 152.2275,24.19625 C151.3175,24.7054167 150.266667,24.96 149.075,24.96 C148.316667,24.96 147.601667,24.84625 146.93,24.61875 C146.258333,24.39125 145.667917,24.0391667 145.15875,23.5625 C144.649583,23.0858333 144.243333,22.47375 143.94,21.72625 C143.636667,20.97875 143.485,20.0958333 143.485,19.0775 L143.485,9.165 L146.41,9.165 L146.41,18.265 C146.41,18.98 146.5075,19.5920833 146.7025,20.10125 C146.8975,20.6104167 147.1575,21.0220833 147.4825,21.33625 C147.8075,21.6504167 148.18125,21.8779167 148.60375,22.01875 C149.02625,22.1595833 149.465,22.23 149.92,22.23 C150.526667,22.23 151.09,22.1325 151.61,21.9375 C152.13,21.7425 152.585,21.43375 152.975,21.01125 C153.365,20.58875 153.668333,20.0525 153.885,19.4025 C154.101667,18.7525 154.21,17.9833333 154.21,17.095 L154.21,9.165 L157.135,9.165 L157.135,24.57 Z" id="Path"></path>
            <path d="M161.155,9.165 L164.08,9.165 L164.08,11.5375 L164.145,11.5375 C164.34,11.1258333 164.6,10.7520833 164.925,10.41625 C165.25,10.0804167 165.612917,9.79333333 166.01375,9.555 C166.414583,9.31666667 166.853333,9.12708333 167.33,8.98625 C167.806667,8.84541667 168.283333,8.775 168.76,8.775 C169.236667,8.775 169.67,8.84 170.06,8.97 L169.93,12.1225 C169.691667,12.0575 169.453333,12.0033333 169.215,11.96 C168.976667,11.9166667 168.738333,11.895 168.5,11.895 C167.07,11.895 165.975833,12.2958333 165.2175,13.0975 C164.459167,13.8991667 164.08,15.145 164.08,16.835 L164.08,24.57 L161.155,24.57 L161.155,9.165 Z" id="Path"></path>
            <path d="M173.0075,9.165 L175.9325,9.165 L175.9325,24.57 L173.0075,24.57 L173.0075,9.165 Z M172.325,3.64 C172.325,3.055 172.53625,2.55125 172.95875,2.12875 C173.38125,1.70625 173.885,1.495 174.47,1.495 C175.055,1.495 175.55875,1.70625 175.98125,2.12875 C176.40375,2.55125 176.615,3.055 176.615,3.64 C176.615,4.225 176.40375,4.72875 175.98125,5.15125 C175.55875,5.57375 175.055,5.785 174.47,5.785 C173.885,5.785 173.38125,5.57375 172.95875,5.15125 C172.53625,4.72875 172.325,4.225 172.325,3.64 Z" id="Shape"></path>
            <path d="M188.435,11.7 L184.2425,11.7 L184.2425,18.6875 C184.2425,19.1208333 184.253333,19.54875 184.275,19.97125 C184.296667,20.39375 184.377917,20.7729167 184.51875,21.10875 C184.659583,21.4445833 184.87625,21.7154167 185.16875,21.92125 C185.46125,22.1270833 185.889167,22.23 186.4525,22.23 C186.799167,22.23 187.156667,22.1975 187.525,22.1325 C187.893333,22.0675 188.229167,21.9483333 188.5325,21.775 L188.5325,24.44 C188.185833,24.635 187.73625,24.7704167 187.18375,24.84625 C186.63125,24.9220833 186.203333,24.96 185.9,24.96 C184.773333,24.96 183.90125,24.8029167 183.28375,24.48875 C182.66625,24.1745833 182.21125,23.7683333 181.91875,23.27 C181.62625,22.7716667 181.452917,22.21375 181.39875,21.59625 C181.344583,20.97875 181.3175,20.3558333 181.3175,19.7275 L181.3175,11.7 L177.9375,11.7 L177.9375,9.165 L181.3175,9.165 L181.3175,4.8425 L184.2425,4.8425 L184.2425,9.165 L188.435,9.165 L188.435,11.7 Z" id="Path"></path>
            <path d="M189.9525,9.165 L193.3325,9.165 L197.915,21.19 L197.98,21.19 L202.335,9.165 L205.4875,9.165 L198.175,27.885 C197.915,28.5566667 197.644167,29.16875 197.3625,29.72125 C197.080833,30.27375 196.745,30.745 196.355,31.135 C195.965,31.525 195.49375,31.8283333 194.94125,32.045 C194.38875,32.2616667 193.711667,32.37 192.91,32.37 C192.476667,32.37 192.037917,32.3429167 191.59375,32.28875 C191.149583,32.2345833 190.721667,32.1208333 190.31,31.9475 L190.6675,29.2825 C191.2525,29.5208333 191.8375,29.64 192.4225,29.64 C192.8775,29.64 193.262083,29.5804167 193.57625,29.46125 C193.890417,29.3420833 194.16125,29.16875 194.38875,28.94125 C194.61625,28.71375 194.805833,28.4483333 194.9575,28.145 C195.109167,27.8416667 195.260833,27.495 195.4125,27.105 L196.355,24.6675 L189.9525,9.165 Z" id="Path"></path>
            <path d="M2.5675,54.76 C3.13083333,55.605 3.85125,56.2279167 4.72875,56.62875 C5.60625,57.0295833 6.51083333,57.23 7.4425,57.23 C7.9625,57.23 8.49333333,57.14875 9.035,56.98625 C9.57666667,56.82375 10.0695833,56.58 10.51375,56.255 C10.9579167,55.93 11.3208333,55.5291667 11.6025,55.0525 C11.8841667,54.5758333 12.025,54.0233333 12.025,53.395 C12.025,52.5066667 11.7433333,51.8295833 11.18,51.36375 C10.6166667,50.8979167 9.91791667,50.5079167 9.08375,50.19375 C8.24958333,49.8795833 7.33958333,49.57625 6.35375,49.28375 C5.36791667,48.99125 4.45791667,48.585 3.62375,48.065 C2.78958333,47.545 2.09083333,46.84625 1.5275,45.96875 C0.964166667,45.09125 0.6825,43.905 0.6825,42.41 C0.6825,41.7383333 0.82875,41.0233333 1.12125,40.265 C1.41375,39.5066667 1.87416667,38.8133333 2.5025,38.185 C3.13083333,37.5566667 3.93791667,37.03125 4.92375,36.60875 C5.90958333,36.18625 7.09583333,35.975 8.4825,35.975 C9.73916667,35.975 10.9416667,36.1483333 12.09,36.495 C13.2383333,36.8416667 14.2458333,37.5458333 15.1125,38.6075 L12.5775,40.915 C12.1875,40.3083333 11.635,39.8208333 10.92,39.4525 C10.205,39.0841667 9.3925,38.9 8.4825,38.9 C7.61583333,38.9 6.89541667,39.01375 6.32125,39.24125 C5.74708333,39.46875 5.28666667,39.76125 4.94,40.11875 C4.59333333,40.47625 4.34958333,40.8608333 4.20875,41.2725 C4.06791667,41.6841667 3.9975,42.0633333 3.9975,42.41 C3.9975,43.385 4.27916667,44.1325 4.8425,44.6525 C5.40583333,45.1725 6.10458333,45.595 6.93875,45.92 C7.77291667,46.245 8.68291667,46.5375 9.66875,46.7975 C10.6545833,47.0575 11.5645833,47.4204167 12.39875,47.88625 C13.2329167,48.3520833 13.9316667,48.9804167 14.495,49.77125 C15.0583333,50.5620833 15.34,51.6508333 15.34,53.0375 C15.34,54.1425 15.12875,55.1391667 14.70625,56.0275 C14.28375,56.9158333 13.715,57.6633333 13,58.27 C12.285,58.8766667 11.44,59.3425 10.465,59.6675 C9.49,59.9925 8.45,60.155 7.345,60.155 C5.87166667,60.155 4.47416667,59.895 3.1525,59.375 C1.83083333,58.855 0.78,58.0533333 4.54747351e-13,56.97 L2.5675,54.76 Z" id="Path"></path>
            <path d="M29.825,48.26 C29.2833333,47.6966667 28.7145833,47.26875 28.11875,46.97625 C27.5229167,46.68375 26.8133333,46.5375 25.99,46.5375 C25.1883333,46.5375 24.4895833,46.68375 23.89375,46.97625 C23.2979167,47.26875 22.7995833,47.6695833 22.39875,48.17875 C21.9979167,48.6879167 21.6945833,49.2729167 21.48875,49.93375 C21.2829167,50.5945833 21.18,51.2825 21.18,51.9975 C21.18,52.7125 21.2991667,53.3895833 21.5375,54.02875 C21.7758333,54.6679167 22.1116667,55.2258333 22.545,55.7025 C22.9783333,56.1791667 23.4983333,56.5529167 24.105,56.82375 C24.7116667,57.0945833 25.3941667,57.23 26.1525,57.23 C26.9758333,57.23 27.68,57.08375 28.265,56.79125 C28.85,56.49875 29.3916667,56.0708333 29.89,55.5075 L31.97,57.5875 C31.2116667,58.4325 30.32875,59.0391667 29.32125,59.4075 C28.31375,59.7758333 27.2466667,59.96 26.12,59.96 C24.9283333,59.96 23.8395833,59.765 22.85375,59.375 C21.8679167,58.985 21.0175,58.4379167 20.3025,57.73375 C19.5875,57.0295833 19.035,56.1845833 18.645,55.19875 C18.255,54.2129167 18.06,53.1241667 18.06,51.9325 C18.06,50.7408333 18.255,49.6466667 18.645,48.65 C19.035,47.6533333 19.5820833,46.7975 20.28625,46.0825 C20.9904167,45.3675 21.8354167,44.8095833 22.82125,44.40875 C23.8070833,44.0079167 24.9066667,43.8075 26.12,43.8075 C27.2466667,43.8075 28.3245833,44.0079167 29.35375,44.40875 C30.3829167,44.8095833 31.2766667,45.4216667 32.035,46.245 L29.825,48.26 Z" id="Path"></path>
            <path d="M36.445,51.8675 C36.445,52.6475 36.5641667,53.3679167 36.8025,54.02875 C37.0408333,54.6895833 37.3766667,55.2529167 37.81,55.71875 C38.2433333,56.1845833 38.7741667,56.5529167 39.4025,56.82375 C40.0308333,57.0945833 40.735,57.23 41.515,57.23 C42.295,57.23 42.9991667,57.0945833 43.6275,56.82375 C44.2558333,56.5529167 44.7866667,56.1845833 45.22,55.71875 C45.6533333,55.2529167 45.9891667,54.6895833 46.2275,54.02875 C46.4658333,53.3679167 46.585,52.6475 46.585,51.8675 C46.585,51.0875 46.4658333,50.3670833 46.2275,49.70625 C45.9891667,49.0454167 45.6533333,48.4820833 45.22,48.01625 C44.7866667,47.5504167 44.2558333,47.1820833 43.6275,46.91125 C42.9991667,46.6404167 42.295,46.505 41.515,46.505 C40.735,46.505 40.0308333,46.6404167 39.4025,46.91125 C38.7741667,47.1820833 38.2433333,47.5504167 37.81,48.01625 C37.3766667,48.4820833 37.0408333,49.0454167 36.8025,49.70625 C36.5641667,50.3670833 36.445,51.0875 36.445,51.8675 Z M33.325,51.8675 C33.325,50.7408333 33.53625,49.69 33.95875,48.715 C34.38125,47.74 34.9608333,46.8841667 35.6975,46.1475 C36.4341667,45.4108333 37.3008333,44.83125 38.2975,44.40875 C39.2941667,43.98625 40.3666667,43.775 41.515,43.775 C42.6633333,43.775 43.7358333,43.98625 44.7325,44.40875 C45.7291667,44.83125 46.5958333,45.4108333 47.3325,46.1475 C48.0691667,46.8841667 48.64875,47.74 49.07125,48.715 C49.49375,49.69 49.705,50.7408333 49.705,51.8675 C49.705,52.9941667 49.49375,54.0504167 49.07125,55.03625 C48.64875,56.0220833 48.0691667,56.8779167 47.3325,57.60375 C46.5958333,58.3295833 45.7291667,58.90375 44.7325,59.32625 C43.7358333,59.74875 42.6633333,59.96 41.515,59.96 C40.3666667,59.96 39.2941667,59.74875 38.2975,59.32625 C37.3008333,58.90375 36.4341667,58.3295833 35.6975,57.60375 C34.9608333,56.8779167 34.38125,56.0220833 33.95875,55.03625 C33.53625,54.0504167 33.325,52.9941667 33.325,51.8675 Z" id="Shape"></path>
            <path d="M61.2325,46.7 L57.04,46.7 L57.04,53.6875 C57.04,54.1208333 57.0508333,54.54875 57.0725,54.97125 C57.0941667,55.39375 57.1754167,55.7729167 57.31625,56.10875 C57.4570833,56.4445833 57.67375,56.7154167 57.96625,56.92125 C58.25875,57.1270833 58.6866667,57.23 59.25,57.23 C59.5966667,57.23 59.9541667,57.1975 60.3225,57.1325 C60.6908333,57.0675 61.0266667,56.9483333 61.33,56.775 L61.33,59.44 C60.9833333,59.635 60.53375,59.7704167 59.98125,59.84625 C59.42875,59.9220833 59.0008333,59.96 58.6975,59.96 C57.5708333,59.96 56.69875,59.8029167 56.08125,59.48875 C55.46375,59.1745833 55.00875,58.7683333 54.71625,58.27 C54.42375,57.7716667 54.2504167,57.21375 54.19625,56.59625 C54.1420833,55.97875 54.115,55.3558333 54.115,54.7275 L54.115,46.7 L50.735,46.7 L50.735,44.165 L54.115,44.165 L54.115,39.8425 L57.04,39.8425 L57.04,44.165 L61.2325,44.165 L61.2325,46.7 Z" id="Path"></path>
            <polygon id="Path" points="64.83 35 67.755 35 67.755 59.57 64.83 59.57"></polygon>
            <path d="M72.0675,46.05 C72.8908333,45.2916667 73.8441667,44.7229167 74.9275,44.34375 C76.0108333,43.9645833 77.0941667,43.775 78.1775,43.775 C79.3041667,43.775 80.27375,43.9158333 81.08625,44.1975 C81.89875,44.4791667 82.565,44.8583333 83.085,45.335 C83.605,45.8116667 83.9895833,46.35875 84.23875,46.97625 C84.4879167,47.59375 84.6125,48.2383333 84.6125,48.91 L84.6125,56.775 C84.6125,57.3166667 84.6233333,57.815 84.645,58.27 C84.6666667,58.725 84.6991667,59.1583333 84.7425,59.57 L82.1425,59.57 C82.0775,58.79 82.045,58.01 82.045,57.23 L81.98,57.23 C81.33,58.2266667 80.5608333,58.9308333 79.6725,59.3425 C78.7841667,59.7541667 77.755,59.96 76.585,59.96 C75.87,59.96 75.1875,59.8625 74.5375,59.6675 C73.8875,59.4725 73.31875,59.18 72.83125,58.79 C72.34375,58.4 71.9591667,57.9179167 71.6775,57.34375 C71.3958333,56.7695833 71.255,56.1033333 71.255,55.345 C71.255,54.3483333 71.4770833,53.5141667 71.92125,52.8425 C72.3654167,52.1708333 72.9720833,51.62375 73.74125,51.20125 C74.5104167,50.77875 75.4095833,50.4754167 76.43875,50.29125 C77.4679167,50.1070833 78.5675,50.015 79.7375,50.015 L81.8825,50.015 L81.8825,49.365 C81.8825,48.975 81.8066667,48.585 81.655,48.195 C81.5033333,47.805 81.2758333,47.4529167 80.9725,47.13875 C80.6691667,46.8245833 80.29,46.5754167 79.835,46.39125 C79.38,46.2070833 78.8383333,46.115 78.21,46.115 C77.6466667,46.115 77.15375,46.1691667 76.73125,46.2775 C76.30875,46.3858333 75.9241667,46.52125 75.5775,46.68375 C75.2308333,46.84625 74.9166667,47.0358333 74.635,47.2525 C74.3533333,47.4691667 74.0825,47.675 73.8225,47.87 L72.0675,46.05 Z M80.3225,52.16 C79.6291667,52.16 78.9195833,52.1979167 78.19375,52.27375 C77.4679167,52.3495833 76.8070833,52.4958333 76.21125,52.7125 C75.6154167,52.9291667 75.1279167,53.2325 74.74875,53.6225 C74.3695833,54.0125 74.18,54.5108333 74.18,55.1175 C74.18,56.0058333 74.4779167,56.645 75.07375,57.035 C75.6695833,57.425 76.4766667,57.62 77.495,57.62 C78.2966667,57.62 78.9791667,57.4845833 79.5425,57.21375 C80.1058333,56.9429167 80.5608333,56.5908333 80.9075,56.1575 C81.2541667,55.7241667 81.5033333,55.2420833 81.655,54.71125 C81.8066667,54.1804167 81.8825,53.655 81.8825,53.135 L81.8825,52.16 L80.3225,52.16 Z" id="Shape"></path>
            <path d="M88.47,44.165 L91.395,44.165 L91.395,46.5375 L91.46,46.5375 C91.8283333,45.7141667 92.4675,45.0479167 93.3775,44.53875 C94.2875,44.0295833 95.3383333,43.775 96.53,43.775 C97.2666667,43.775 97.97625,43.88875 98.65875,44.11625 C99.34125,44.34375 99.9370833,44.6958333 100.44625,45.1725 C100.955417,45.6491667 101.361667,46.26125 101.665,47.00875 C101.968333,47.75625 102.12,48.6391667 102.12,49.6575 L102.12,59.57 L99.195,59.57 L99.195,50.47 C99.195,49.755 99.0975,49.1429167 98.9025,48.63375 C98.7075,48.1245833 98.4475,47.7129167 98.1225,47.39875 C97.7975,47.0845833 97.42375,46.8570833 97.00125,46.71625 C96.57875,46.5754167 96.14,46.505 95.685,46.505 C95.0783333,46.505 94.515,46.6025 93.995,46.7975 C93.475,46.9925 93.02,47.30125 92.63,47.72375 C92.24,48.14625 91.9366667,48.6825 91.72,49.3325 C91.5033333,49.9825 91.395,50.7516667 91.395,51.64 L91.395,59.57 L88.47,59.57 L88.47,44.165 Z" id="Path"></path>
            <path d="M121.5775,59.57 L118.6525,59.57 L118.6525,57.36 L118.5875,57.36 C118.024167,58.1833333 117.249583,58.8225 116.26375,59.2775 C115.277917,59.7325 114.265,59.96 113.225,59.96 C112.033333,59.96 110.955417,59.7541667 109.99125,59.3425 C109.027083,58.9308333 108.20375,58.3566667 107.52125,57.62 C106.83875,56.8833333 106.313333,56.0275 105.945,55.0525 C105.576667,54.0775 105.3925,53.0158333 105.3925,51.8675 C105.3925,50.7191667 105.576667,49.6520833 105.945,48.66625 C106.313333,47.6804167 106.83875,46.8245833 107.52125,46.09875 C108.20375,45.3729167 109.027083,44.8041667 109.99125,44.3925 C110.955417,43.9808333 112.033333,43.775 113.225,43.775 C114.33,43.775 115.37,44.0079167 116.345,44.47375 C117.32,44.9395833 118.0675,45.5733333 118.5875,46.375 L118.6525,46.375 L118.6525,35 L121.5775,35 L121.5775,59.57 Z M113.5825,57.23 C114.3625,57.23 115.066667,57.0945833 115.695,56.82375 C116.323333,56.5529167 116.854167,56.1845833 117.2875,55.71875 C117.720833,55.2529167 118.056667,54.6895833 118.295,54.02875 C118.533333,53.3679167 118.6525,52.6475 118.6525,51.8675 C118.6525,51.0875 118.533333,50.3670833 118.295,49.70625 C118.056667,49.0454167 117.720833,48.4820833 117.2875,48.01625 C116.854167,47.5504167 116.323333,47.1820833 115.695,46.91125 C115.066667,46.6404167 114.3625,46.505 113.5825,46.505 C112.8025,46.505 112.098333,46.6404167 111.47,46.91125 C110.841667,47.1820833 110.310833,47.5504167 109.8775,48.01625 C109.444167,48.4820833 109.108333,49.0454167 108.87,49.70625 C108.631667,50.3670833 108.5125,51.0875 108.5125,51.8675 C108.5125,52.6475 108.631667,53.3679167 108.87,54.02875 C109.108333,54.6895833 109.444167,55.2529167 109.8775,55.71875 C110.310833,56.1845833 110.841667,56.5529167 111.47,56.82375 C112.098333,57.0945833 112.8025,57.23 113.5825,57.23 Z" id="Shape"></path>
        </g>
    </g>
</svg>