<?xml version="1.0" encoding="UTF-8"?>
<svg width="284px" height="126px" viewBox="0 0 284 126" version="1.1" xmlns="http://www.w3.org/2000/svg" xmlns:xlink="http://www.w3.org/1999/xlink">
    <title>logo-alt</title>
    <g id="logo-alt" stroke="none" stroke-width="1" fill="none" fill-rule="evenodd">
        <path d="M2.1,55.2323821 L21,46.4323821 C22.9,45.5323821 24.3,43.8323821 24.7,41.7323821 L33.1,1.73238208 C33.3,0.632382079 32.2,-0.367617921 31.2,0.132382079 L2.7,10.9323821 C1.2,11.5323821 0.3,12.8323821 0.3,14.4323821 L0,53.9323821 C0,55.0323821 1.1,55.7323821 2.1,55.2323821" id="Path" fill="#201751" fill-rule="nonzero"></path>
        <path d="M9,104.332382 L42.2,85.9323821 C43.4,85.2323821 44.2,84.1323821 44.5,82.8323821 L57.7,19.9323821 C58.1,18.1323821 56.3,16.6323821 54.6,17.3323821 L9.8,34.4323821 C7.6,35.2323821 6.1,37.3323821 6.1,39.7323821 L5.5,102.232382 C5.5,104.132382 7.4,105.232382 9,104.332382" id="Path" fill="#FF2891" fill-rule="nonzero"></path>
        <path d="M51,72.3323821 L26,55.3323821 L26,94.1323821 C26,94.6323821 25.7,95.0323821 25.3,95.2323821 L20.2,98.0323821 L20.2,101.932382 C20.2,103.132382 20.8,104.232382 21.8,104.932382 L51.4,125.032382 C52.3,125.632382 53.5,125.032382 53.5,123.932382 L53.6,77.3323821 C53.7,75.3323821 52.7,73.5323821 51,72.3323821" id="Path" fill="#201751" fill-rule="nonzero"></path>
        <g id="Social-Security-Scot" transform="translate(78.1725, 24.03)" fill="#201751" fill-rule="nonzero">
            <path d="M2.5675,19.76 C3.13083333,20.605 3.85125,21.2279167 4.72875,21.62875 C5.60625,22.0295833 6.51083333,22.23 7.4425,22.23 C7.9625,22.23 8.49333333,22.14875 9.035,21.98625 C9.57666667,21.82375 10.0695833,21.58 10.51375,21.255 C10.9579167,20.93 11.3208333,20.5291667 11.6025,20.0525 C11.8841667,19.5758333 12.025,19.0233333 12.025,18.395 C12.025,17.5066667 11.7433333,16.8295833 11.18,16.36375 C10.6166667,15.8979167 9.91791667,15.5079167 9.08375,15.19375 C8.24958333,14.8795833 7.33958333,14.57625 6.35375,14.28375 C5.36791667,13.99125 4.45791667,13.585 3.62375,13.065 C2.78958333,12.545 2.09083333,11.84625 1.5275,10.96875 C0.964166667,10.09125 0.6825,8.905 0.6825,7.41 C0.6825,6.73833333 0.82875,6.02333333 1.12125,5.265 C1.41375,4.50666667 1.87416667,3.81333333 2.5025,3.185 C3.13083333,2.55666667 3.93791667,2.03125 4.92375,1.60875 C5.90958333,1.18625 7.09583333,0.975 8.4825,0.975 C9.73916667,0.975 10.9416667,1.14833333 12.09,1.495 C13.2383333,1.84166667 14.2458333,2.54583333 15.1125,3.6075 L12.5775,5.915 C12.1875,5.30833333 11.635,4.82083333 10.92,4.4525 C10.205,4.08416667 9.3925,3.9 8.4825,3.9 C7.61583333,3.9 6.89541667,4.01375 6.32125,4.24125 C5.74708333,4.46875 5.28666667,4.76125 4.94,5.11875 C4.59333333,5.47625 4.34958333,5.86083333 4.20875,6.2725 C4.06791667,6.68416667 3.9975,7.06333333 3.9975,7.41 C3.9975,8.385 4.27916667,9.1325 4.8425,9.6525 C5.40583333,10.1725 6.10458333,10.595 6.93875,10.92 C7.77291667,11.245 8.68291667,11.5375 9.66875,11.7975 C10.6545833,12.0575 11.5645833,12.4204167 12.39875,12.88625 C13.2329167,13.3520833 13.9316667,13.9804167 14.495,14.77125 C15.0583333,15.5620833 15.34,16.6508333 15.34,18.0375 C15.34,19.1425 15.12875,20.1391667 14.70625,21.0275 C14.28375,21.9158333 13.715,22.6633333 13,23.27 C12.285,23.8766667 11.44,24.3425 10.465,24.6675 C9.49,24.9925 8.45,25.155 7.345,25.155 C5.87166667,25.155 4.47416667,24.895 3.1525,24.375 C1.83083333,23.855 0.78,23.0533333 4.54747351e-13,21.97 L2.5675,19.76 Z" id="Path"></path>
            <path d="M21.18,16.8675 C21.18,17.6475 21.2991667,18.3679167 21.5375,19.02875 C21.7758333,19.6895833 22.1116667,20.2529167 22.545,20.71875 C22.9783333,21.1845833 23.5091667,21.5529167 24.1375,21.82375 C24.7658333,22.0945833 25.47,22.23 26.25,22.23 C27.03,22.23 27.7341667,22.0945833 28.3625,21.82375 C28.9908333,21.5529167 29.5216667,21.1845833 29.955,20.71875 C30.3883333,20.2529167 30.7241667,19.6895833 30.9625,19.02875 C31.2008333,18.3679167 31.32,17.6475 31.32,16.8675 C31.32,16.0875 31.2008333,15.3670833 30.9625,14.70625 C30.7241667,14.0454167 30.3883333,13.4820833 29.955,13.01625 C29.5216667,12.5504167 28.9908333,12.1820833 28.3625,11.91125 C27.7341667,11.6404167 27.03,11.505 26.25,11.505 C25.47,11.505 24.7658333,11.6404167 24.1375,11.91125 C23.5091667,12.1820833 22.9783333,12.5504167 22.545,13.01625 C22.1116667,13.4820833 21.7758333,14.0454167 21.5375,14.70625 C21.2991667,15.3670833 21.18,16.0875 21.18,16.8675 Z M18.06,16.8675 C18.06,15.7408333 18.27125,14.69 18.69375,13.715 C19.11625,12.74 19.6958333,11.8841667 20.4325,11.1475 C21.1691667,10.4108333 22.0358333,9.83125 23.0325,9.40875 C24.0291667,8.98625 25.1016667,8.775 26.25,8.775 C27.3983333,8.775 28.4708333,8.98625 29.4675,9.40875 C30.4641667,9.83125 31.3308333,10.4108333 32.0675,11.1475 C32.8041667,11.8841667 33.38375,12.74 33.80625,13.715 C34.22875,14.69 34.44,15.7408333 34.44,16.8675 C34.44,17.9941667 34.22875,19.0504167 33.80625,20.03625 C33.38375,21.0220833 32.8041667,21.8779167 32.0675,22.60375 C31.3308333,23.3295833 30.4641667,23.90375 29.4675,24.32625 C28.4708333,24.74875 27.3983333,24.96 26.25,24.96 C25.1016667,24.96 24.0291667,24.74875 23.0325,24.32625 C22.0358333,23.90375 21.1691667,23.3295833 20.4325,22.60375 C19.6958333,21.8779167 19.11625,21.0220833 18.69375,20.03625 C18.27125,19.0504167 18.06,17.9941667 18.06,16.8675 Z" id="Shape"></path>
            <path d="M48.73,13.26 C48.1883333,12.6966667 47.6195833,12.26875 47.02375,11.97625 C46.4279167,11.68375 45.7183333,11.5375 44.895,11.5375 C44.0933333,11.5375 43.3945833,11.68375 42.79875,11.97625 C42.2029167,12.26875 41.7045833,12.6695833 41.30375,13.17875 C40.9029167,13.6879167 40.5995833,14.2729167 40.39375,14.93375 C40.1879167,15.5945833 40.085,16.2825 40.085,16.9975 C40.085,17.7125 40.2041667,18.3895833 40.4425,19.02875 C40.6808333,19.6679167 41.0166667,20.2258333 41.45,20.7025 C41.8833333,21.1791667 42.4033333,21.5529167 43.01,21.82375 C43.6166667,22.0945833 44.2991667,22.23 45.0575,22.23 C45.8808333,22.23 46.585,22.08375 47.17,21.79125 C47.755,21.49875 48.2966667,21.0708333 48.795,20.5075 L50.875,22.5875 C50.1166667,23.4325 49.23375,24.0391667 48.22625,24.4075 C47.21875,24.7758333 46.1516667,24.96 45.025,24.96 C43.8333333,24.96 42.7445833,24.765 41.75875,24.375 C40.7729167,23.985 39.9225,23.4379167 39.2075,22.73375 C38.4925,22.0295833 37.94,21.1845833 37.55,20.19875 C37.16,19.2129167 36.965,18.1241667 36.965,16.9325 C36.965,15.7408333 37.16,14.6466667 37.55,13.65 C37.94,12.6533333 38.4870833,11.7975 39.19125,11.0825 C39.8954167,10.3675 40.7404167,9.80958333 41.72625,9.40875 C42.7120833,9.00791667 43.8116667,8.8075 45.025,8.8075 C46.1516667,8.8075 47.2295833,9.00791667 48.25875,9.40875 C49.2879167,9.80958333 50.1816667,10.4216667 50.94,11.245 L48.73,13.26 Z" id="Path"></path>
            <path d="M53.205,9.165 L56.13,9.165 L56.13,24.57 L53.205,24.57 L53.205,9.165 Z M52.5225,3.64 C52.5225,3.055 52.73375,2.55125 53.15625,2.12875 C53.57875,1.70625 54.0825,1.495 54.6675,1.495 C55.2525,1.495 55.75625,1.70625 56.17875,2.12875 C56.60125,2.55125 56.8125,3.055 56.8125,3.64 C56.8125,4.225 56.60125,4.72875 56.17875,5.15125 C55.75625,5.57375 55.2525,5.785 54.6675,5.785 C54.0825,5.785 53.57875,5.57375 53.15625,5.15125 C52.73375,4.72875 52.5225,4.225 52.5225,3.64 Z" id="Shape"></path>
            <path d="M60.4425,11.05 C61.2658333,10.2916667 62.2191667,9.72291667 63.3025,9.34375 C64.3858333,8.96458333 65.4691667,8.775 66.5525,8.775 C67.6791667,8.775 68.64875,8.91583333 69.46125,9.1975 C70.27375,9.47916667 70.94,9.85833333 71.46,10.335 C71.98,10.8116667 72.3645833,11.35875 72.61375,11.97625 C72.8629167,12.59375 72.9875,13.2383333 72.9875,13.91 L72.9875,21.775 C72.9875,22.3166667 72.9983333,22.815 73.02,23.27 C73.0416667,23.725 73.0741667,24.1583333 73.1175,24.57 L70.5175,24.57 C70.4525,23.79 70.42,23.01 70.42,22.23 L70.355,22.23 C69.705,23.2266667 68.9358333,23.9308333 68.0475,24.3425 C67.1591667,24.7541667 66.13,24.96 64.96,24.96 C64.245,24.96 63.5625,24.8625 62.9125,24.6675 C62.2625,24.4725 61.69375,24.18 61.20625,23.79 C60.71875,23.4 60.3341667,22.9179167 60.0525,22.34375 C59.7708333,21.7695833 59.63,21.1033333 59.63,20.345 C59.63,19.3483333 59.8520833,18.5141667 60.29625,17.8425 C60.7404167,17.1708333 61.3470833,16.62375 62.11625,16.20125 C62.8854167,15.77875 63.7845833,15.4754167 64.81375,15.29125 C65.8429167,15.1070833 66.9425,15.015 68.1125,15.015 L70.2575,15.015 L70.2575,14.365 C70.2575,13.975 70.1816667,13.585 70.03,13.195 C69.8783333,12.805 69.6508333,12.4529167 69.3475,12.13875 C69.0441667,11.8245833 68.665,11.5754167 68.21,11.39125 C67.755,11.2070833 67.2133333,11.115 66.585,11.115 C66.0216667,11.115 65.52875,11.1691667 65.10625,11.2775 C64.68375,11.3858333 64.2991667,11.52125 63.9525,11.68375 C63.6058333,11.84625 63.2916667,12.0358333 63.01,12.2525 C62.7283333,12.4691667 62.4575,12.675 62.1975,12.87 L60.4425,11.05 Z M68.6975,17.16 C68.0041667,17.16 67.2945833,17.1979167 66.56875,17.27375 C65.8429167,17.3495833 65.1820833,17.4958333 64.58625,17.7125 C63.9904167,17.9291667 63.5029167,18.2325 63.12375,18.6225 C62.7445833,19.0125 62.555,19.5108333 62.555,20.1175 C62.555,21.0058333 62.8529167,21.645 63.44875,22.035 C64.0445833,22.425 64.8516667,22.62 65.87,22.62 C66.6716667,22.62 67.3541667,22.4845833 67.9175,22.21375 C68.4808333,21.9429167 68.9358333,21.5908333 69.2825,21.1575 C69.6291667,20.7241667 69.8783333,20.2420833 70.03,19.71125 C70.1816667,19.1804167 70.2575,18.655 70.2575,18.135 L70.2575,17.16 L68.6975,17.16 Z" id="Shape"></path>
            <polygon id="Path" points="77.0725 0 79.9975 0 79.9975 24.57 77.0725 24.57"></polygon>
            <path d="M94.31,19.76 C94.8733333,20.605 95.59375,21.2279167 96.47125,21.62875 C97.34875,22.0295833 98.2533333,22.23 99.185,22.23 C99.705,22.23 100.235833,22.14875 100.7775,21.98625 C101.319167,21.82375 101.812083,21.58 102.25625,21.255 C102.700417,20.93 103.063333,20.5291667 103.345,20.0525 C103.626667,19.5758333 103.7675,19.0233333 103.7675,18.395 C103.7675,17.5066667 103.485833,16.8295833 102.9225,16.36375 C102.359167,15.8979167 101.660417,15.5079167 100.82625,15.19375 C99.9920833,14.8795833 99.0820833,14.57625 98.09625,14.28375 C97.1104167,13.99125 96.2004167,13.585 95.36625,13.065 C94.5320833,12.545 93.8333333,11.84625 93.27,10.96875 C92.7066667,10.09125 92.425,8.905 92.425,7.41 C92.425,6.73833333 92.57125,6.02333333 92.86375,5.265 C93.15625,4.50666667 93.6166667,3.81333333 94.245,3.185 C94.8733333,2.55666667 95.6804167,2.03125 96.66625,1.60875 C97.6520833,1.18625 98.8383333,0.975 100.225,0.975 C101.481667,0.975 102.684167,1.14833333 103.8325,1.495 C104.980833,1.84166667 105.988333,2.54583333 106.855,3.6075 L104.32,5.915 C103.93,5.30833333 103.3775,4.82083333 102.6625,4.4525 C101.9475,4.08416667 101.135,3.9 100.225,3.9 C99.3583333,3.9 98.6379167,4.01375 98.06375,4.24125 C97.4895833,4.46875 97.0291667,4.76125 96.6825,5.11875 C96.3358333,5.47625 96.0920833,5.86083333 95.95125,6.2725 C95.8104167,6.68416667 95.74,7.06333333 95.74,7.41 C95.74,8.385 96.0216667,9.1325 96.585,9.6525 C97.1483333,10.1725 97.8470833,10.595 98.68125,10.92 C99.5154167,11.245 100.425417,11.5375 101.41125,11.7975 C102.397083,12.0575 103.307083,12.4204167 104.14125,12.88625 C104.975417,13.3520833 105.674167,13.9804167 106.2375,14.77125 C106.800833,15.5620833 107.0825,16.6508333 107.0825,18.0375 C107.0825,19.1425 106.87125,20.1391667 106.44875,21.0275 C106.02625,21.9158333 105.4575,22.6633333 104.7425,23.27 C104.0275,23.8766667 103.1825,24.3425 102.2075,24.6675 C101.2325,24.9925 100.1925,25.155 99.0875,25.155 C97.6141667,25.155 96.2166667,24.895 94.895,24.375 C93.5733333,23.855 92.5225,23.0533333 91.7425,21.97 L94.31,19.76 Z" id="Path"></path>
            <path d="M112.76,17.94 C112.76,18.6116667 112.90625,19.22375 113.19875,19.77625 C113.49125,20.32875 113.875833,20.8 114.3525,21.19 C114.829167,21.58 115.381667,21.8833333 116.01,22.1 C116.638333,22.3166667 117.288333,22.425 117.96,22.425 C118.87,22.425 119.660833,22.21375 120.3325,21.79125 C121.004167,21.36875 121.621667,20.8108333 122.185,20.1175 L124.395,21.8075 C122.77,23.9091667 120.495,24.96 117.57,24.96 C116.356667,24.96 115.257083,24.7541667 114.27125,24.3425 C113.285417,23.9308333 112.45125,23.3620833 111.76875,22.63625 C111.08625,21.9104167 110.560833,21.0545833 110.1925,20.06875 C109.824167,19.0829167 109.64,18.0158333 109.64,16.8675 C109.64,15.7191667 109.840417,14.6520833 110.24125,13.66625 C110.642083,12.6804167 111.194583,11.8245833 111.89875,11.09875 C112.602917,10.3729167 113.4425,9.80416667 114.4175,9.3925 C115.3925,8.98083333 116.454167,8.775 117.6025,8.775 C118.9675,8.775 120.12125,9.01333333 121.06375,9.49 C122.00625,9.96666667 122.780833,10.5895833 123.3875,11.35875 C123.994167,12.1279167 124.432917,12.9945833 124.70375,13.95875 C124.974583,14.9229167 125.11,15.9033333 125.11,16.9 L125.11,17.94 L112.76,17.94 Z M121.99,15.6 C121.968333,14.95 121.865417,14.3541667 121.68125,13.8125 C121.497083,13.2708333 121.220833,12.7995833 120.8525,12.39875 C120.484167,11.9979167 120.02375,11.68375 119.47125,11.45625 C118.91875,11.22875 118.274167,11.115 117.5375,11.115 C116.8225,11.115 116.167083,11.2504167 115.57125,11.52125 C114.975417,11.7920833 114.471667,12.1441667 114.06,12.5775 C113.648333,13.0108333 113.32875,13.4929167 113.10125,14.02375 C112.87375,14.5545833 112.76,15.08 112.76,15.6 L121.99,15.6 Z" id="Shape"></path>
            <path d="M139.2375,13.26 C138.695833,12.6966667 138.127083,12.26875 137.53125,11.97625 C136.935417,11.68375 136.225833,11.5375 135.4025,11.5375 C134.600833,11.5375 133.902083,11.68375 133.30625,11.97625 C132.710417,12.26875 132.212083,12.6695833 131.81125,13.17875 C131.410417,13.6879167 131.107083,14.2729167 130.90125,14.93375 C130.695417,15.5945833 130.5925,16.2825 130.5925,16.9975 C130.5925,17.7125 130.711667,18.3895833 130.95,19.02875 C131.188333,19.6679167 131.524167,20.2258333 131.9575,20.7025 C132.390833,21.1791667 132.910833,21.5529167 133.5175,21.82375 C134.124167,22.0945833 134.806667,22.23 135.565,22.23 C136.388333,22.23 137.0925,22.08375 137.6775,21.79125 C138.2625,21.49875 138.804167,21.0708333 139.3025,20.5075 L141.3825,22.5875 C140.624167,23.4325 139.74125,24.0391667 138.73375,24.4075 C137.72625,24.7758333 136.659167,24.96 135.5325,24.96 C134.340833,24.96 133.252083,24.765 132.26625,24.375 C131.280417,23.985 130.43,23.4379167 129.715,22.73375 C129,22.0295833 128.4475,21.1845833 128.0575,20.19875 C127.6675,19.2129167 127.4725,18.1241667 127.4725,16.9325 C127.4725,15.7408333 127.6675,14.6466667 128.0575,13.65 C128.4475,12.6533333 128.994583,11.7975 129.69875,11.0825 C130.402917,10.3675 131.247917,9.80958333 132.23375,9.40875 C133.219583,9.00791667 134.319167,8.8075 135.5325,8.8075 C136.659167,8.8075 137.737083,9.00791667 138.76625,9.40875 C139.795417,9.80958333 140.689167,10.4216667 141.4475,11.245 L139.2375,13.26 Z" id="Path"></path>
            <path d="M157.135,24.57 L154.21,24.57 L154.21,22.1975 L154.145,22.1975 C153.776667,23.0208333 153.1375,23.6870833 152.2275,24.19625 C151.3175,24.7054167 150.266667,24.96 149.075,24.96 C148.316667,24.96 147.601667,24.84625 146.93,24.61875 C146.258333,24.39125 145.667917,24.0391667 145.15875,23.5625 C144.649583,23.0858333 144.243333,22.47375 143.94,21.72625 C143.636667,20.97875 143.485,20.0958333 143.485,19.0775 L143.485,9.165 L146.41,9.165 L146.41,18.265 C146.41,18.98 146.5075,19.5920833 146.7025,20.10125 C146.8975,20.6104167 147.1575,21.0220833 147.4825,21.33625 C147.8075,21.6504167 148.18125,21.8779167 148.60375,22.01875 C149.02625,22.1595833 149.465,22.23 149.92,22.23 C150.526667,22.23 151.09,22.1325 151.61,21.9375 C152.13,21.7425 152.585,21.43375 152.975,21.01125 C153.365,20.58875 153.668333,20.0525 153.885,19.4025 C154.101667,18.7525 154.21,17.9833333 154.21,17.095 L154.21,9.165 L157.135,9.165 L157.135,24.57 Z" id="Path"></path>
            <path d="M161.155,9.165 L164.08,9.165 L164.08,11.5375 L164.145,11.5375 C164.34,11.1258333 164.6,10.7520833 164.925,10.41625 C165.25,10.0804167 165.612917,9.79333333 166.01375,9.555 C166.414583,9.31666667 166.853333,9.12708333 167.33,8.98625 C167.806667,8.84541667 168.283333,8.775 168.76,8.775 C169.236667,8.775 169.67,8.84 170.06,8.97 L169.93,12.1225 C169.691667,12.0575 169.453333,12.0033333 169.215,11.96 C168.976667,11.9166667 168.738333,11.895 168.5,11.895 C167.07,11.895 165.975833,12.2958333 165.2175,13.0975 C164.459167,13.8991667 164.08,15.145 164.08,16.835 L164.08,24.57 L161.155,24.57 L161.155,9.165 Z" id="Path"></path>
            <path d="M173.0075,9.165 L175.9325,9.165 L175.9325,24.57 L173.0075,24.57 L173.0075,9.165 Z M172.325,3.64 C172.325,3.055 172.53625,2.55125 172.95875,2.12875 C173.38125,1.70625 173.885,1.495 174.47,1.495 C175.055,1.495 175.55875,1.70625 175.98125,2.12875 C176.40375,2.55125 176.615,3.055 176.615,3.64 C176.615,4.225 176.40375,4.72875 175.98125,5.15125 C175.55875,5.57375 175.055,5.785 174.47,5.785 C173.885,5.785 173.38125,5.57375 172.95875,5.15125 C172.53625,4.72875 172.325,4.225 172.325,3.64 Z" id="Shape"></path>
            <path d="M188.435,11.7 L184.2425,11.7 L184.2425,18.6875 C184.2425,19.1208333 184.253333,19.54875 184.275,19.97125 C184.296667,20.39375 184.377917,20.7729167 184.51875,21.10875 C184.659583,21.4445833 184.87625,21.7154167 185.16875,21.92125 C185.46125,22.1270833 185.889167,22.23 186.4525,22.23 C186.799167,22.23 187.156667,22.1975 187.525,22.1325 C187.893333,22.0675 188.229167,21.9483333 188.5325,21.775 L188.5325,24.44 C188.185833,24.635 187.73625,24.7704167 187.18375,24.84625 C186.63125,24.9220833 186.203333,24.96 185.9,24.96 C184.773333,24.96 183.90125,24.8029167 183.28375,24.48875 C182.66625,24.1745833 182.21125,23.7683333 181.91875,23.27 C181.62625,22.7716667 181.452917,22.21375 181.39875,21.59625 C181.344583,20.97875 181.3175,20.3558333 181.3175,19.7275 L181.3175,11.7 L177.9375,11.7 L177.9375,9.165 L181.3175,9.165 L181.3175,4.8425 L184.2425,4.8425 L184.2425,9.165 L188.435,9.165 L188.435,11.7 Z" id="Path"></path>
            <path d="M189.9525,9.165 L193.3325,9.165 L197.915,21.19 L197.98,21.19 L202.335,9.165 L205.4875,9.165 L198.175,27.885 C197.915,28.5566667 197.644167,29.16875 197.3625,29.72125 C197.080833,30.27375 196.745,30.745 196.355,31.135 C195.965,31.525 195.49375,31.8283333 194.94125,32.045 C194.38875,32.2616667 193.711667,32.37 192.91,32.37 C192.476667,32.37 192.037917,32.3429167 191.59375,32.28875 C191.149583,32.2345833 190.721667,32.1208333 190.31,31.9475 L190.6675,29.2825 C191.2525,29.5208333 191.8375,29.64 192.4225,29.64 C192.8775,29.64 193.262083,29.5804167 193.57625,29.46125 C193.890417,29.3420833 194.16125,29.16875 194.38875,28.94125 C194.61625,28.71375 194.805833,28.4483333 194.9575,28.145 C195.109167,27.8416667 195.260833,27.495 195.4125,27.105 L196.355,24.6675 L189.9525,9.165 Z" id="Path"></path>
            <path d="M2.5675,54.76 C3.13083333,55.605 3.85125,56.2279167 4.72875,56.62875 C5.60625,57.0295833 6.51083333,57.23 7.4425,57.23 C7.9625,57.23 8.49333333,57.14875 9.035,56.98625 C9.57666667,56.82375 10.0695833,56.58 10.51375,56.255 C10.9579167,55.93 11.3208333,55.5291667 11.6025,55.0525 C11.8841667,54.5758333 12.025,54.0233333 12.025,53.395 C12.025,52.5066667 11.7433333,51.8295833 11.18,51.36375 C10.6166667,50.8979167 9.91791667,50.5079167 9.08375,50.19375 C8.24958333,49.8795833 7.33958333,49.57625 6.35375,49.28375 C5.36791667,48.99125 4.45791667,48.585 3.62375,48.065 C2.78958333,47.545 2.09083333,46.84625 1.5275,45.96875 C0.964166667,45.09125 0.6825,43.905 0.6825,42.41 C0.6825,41.7383333 0.82875,41.0233333 1.12125,40.265 C1.41375,39.5066667 1.87416667,38.8133333 2.5025,38.185 C3.13083333,37.5566667 3.93791667,37.03125 4.92375,36.60875 C5.90958333,36.18625 7.09583333,35.975 8.4825,35.975 C9.73916667,35.975 10.9416667,36.1483333 12.09,36.495 C13.2383333,36.8416667 14.2458333,37.5458333 15.1125,38.6075 L12.5775,40.915 C12.1875,40.3083333 11.635,39.8208333 10.92,39.4525 C10.205,39.0841667 9.3925,38.9 8.4825,38.9 C7.61583333,38.9 6.89541667,39.01375 6.32125,39.24125 C5.74708333,39.46875 5.28666667,39.76125 4.94,40.11875 C4.59333333,40.47625 4.34958333,40.8608333 4.20875,41.2725 C4.06791667,41.6841667 3.9975,42.0633333 3.9975,42.41 C3.9975,43.385 4.27916667,44.1325 4.8425,44.6525 C5.40583333,45.1725 6.10458333,45.595 6.93875,45.92 C7.77291667,46.245 8.68291667,46.5375 9.66875,46.7975 C10.6545833,47.0575 11.5645833,47.4204167 12.39875,47.88625 C13.2329167,48.3520833 13.9316667,48.9804167 14.495,49.77125 C15.0583333,50.5620833 15.34,51.6508333 15.34,53.0375 C15.34,54.1425 15.12875,55.1391667 14.70625,56.0275 C14.28375,56.9158333 13.715,57.6633333 13,58.27 C12.285,58.8766667 11.44,59.3425 10.465,59.6675 C9.49,59.9925 8.45,60.155 7.345,60.155 C5.87166667,60.155 4.47416667,59.895 3.1525,59.375 C1.83083333,58.855 0.78,58.0533333 4.54747351e-13,56.97 L2.5675,54.76 Z" id="Path"></path>
            <path d="M29.825,48.26 C29.2833333,47.6966667 28.7145833,47.26875 28.11875,46.97625 C27.5229167,46.68375 26.8133333,46.5375 25.99,46.5375 C25.1883333,46.5375 24.4895833,46.68375 23.89375,46.97625 C23.2979167,47.26875 22.7995833,47.6695833 22.39875,48.17875 C21.9979167,48.6879167 21.6945833,49.2729167 21.48875,49.93375 C21.2829167,50.5945833 21.18,51.2825 21.18,51.9975 C21.18,52.7125 21.2991667,53.3895833 21.5375,54.02875 C21.7758333,54.6679167 22.1116667,55.2258333 22.545,55.7025 C22.9783333,56.1791667 23.4983333,56.5529167 24.105,56.82375 C24.7116667,57.0945833 25.3941667,57.23 26.1525,57.23 C26.9758333,57.23 27.68,57.08375 28.265,56.79125 C28.85,56.49875 29.3916667,56.0708333 29.89,55.5075 L31.97,57.5875 C31.2116667,58.4325 30.32875,59.0391667 29.32125,59.4075 C28.31375,59.7758333 27.2466667,59.96 26.12,59.96 C24.9283333,59.96 23.8395833,59.765 22.85375,59.375 C21.8679167,58.985 21.0175,58.4379167 20.3025,57.73375 C19.5875,57.0295833 19.035,56.1845833 18.645,55.19875 C18.255,54.2129167 18.06,53.1241667 18.06,51.9325 C18.06,50.7408333 18.255,49.6466667 18.645,48.65 C19.035,47.6533333 19.5820833,46.7975 20.28625,46.0825 C20.9904167,45.3675 21.8354167,44.8095833 22.82125,44.40875 C23.8070833,44.0079167 24.9066667,43.8075 26.12,43.8075 C27.2466667,43.8075 28.3245833,44.0079167 29.35375,44.40875 C30.3829167,44.8095833 31.2766667,45.4216667 32.035,46.245 L29.825,48.26 Z" id="Path"></path>
            <path d="M36.445,51.8675 C36.445,52.6475 36.5641667,53.3679167 36.8025,54.02875 C37.0408333,54.6895833 37.3766667,55.2529167 37.81,55.71875 C38.2433333,56.1845833 38.7741667,56.5529167 39.4025,56.82375 C40.0308333,57.0945833 40.735,57.23 41.515,57.23 C42.295,57.23 42.9991667,57.0945833 43.6275,56.82375 C44.2558333,56.5529167 44.7866667,56.1845833 45.22,55.71875 C45.6533333,55.2529167 45.9891667,54.6895833 46.2275,54.02875 C46.4658333,53.3679167 46.585,52.6475 46.585,51.8675 C46.585,51.0875 46.4658333,50.3670833 46.2275,49.70625 C45.9891667,49.0454167 45.6533333,48.4820833 45.22,48.01625 C44.7866667,47.5504167 44.2558333,47.1820833 43.6275,46.91125 C42.9991667,46.6404167 42.295,46.505 41.515,46.505 C40.735,46.505 40.0308333,46.6404167 39.4025,46.91125 C38.7741667,47.1820833 38.2433333,47.5504167 37.81,48.01625 C37.3766667,48.4820833 37.0408333,49.0454167 36.8025,49.70625 C36.5641667,50.3670833 36.445,51.0875 36.445,51.8675 Z M33.325,51.8675 C33.325,50.7408333 33.53625,49.69 33.95875,48.715 C34.38125,47.74 34.9608333,46.8841667 35.6975,46.1475 C36.4341667,45.4108333 37.3008333,44.83125 38.2975,44.40875 C39.2941667,43.98625 40.3666667,43.775 41.515,43.775 C42.6633333,43.775 43.7358333,43.98625 44.7325,44.40875 C45.7291667,44.83125 46.5958333,45.4108333 47.3325,46.1475 C48.0691667,46.8841667 48.64875,47.74 49.07125,48.715 C49.49375,49.69 49.705,50.7408333 49.705,51.8675 C49.705,52.9941667 49.49375,54.0504167 49.07125,55.03625 C48.64875,56.0220833 48.0691667,56.8779167 47.3325,57.60375 C46.5958333,58.3295833 45.7291667,58.90375 44.7325,59.32625 C43.7358333,59.74875 42.6633333,59.96 41.515,59.96 C40.3666667,59.96 39.2941667,59.74875 38.2975,59.32625 C37.3008333,58.90375 36.4341667,58.3295833 35.6975,57.60375 C34.9608333,56.8779167 34.38125,56.0220833 33.95875,55.03625 C33.53625,54.0504167 33.325,52.9941667 33.325,51.8675 Z" id="Shape"></path>
            <path d="M61.2325,46.7 L57.04,46.7 L57.04,53.6875 C57.04,54.1208333 57.0508333,54.54875 57.0725,54.97125 C57.0941667,55.39375 57.1754167,55.7729167 57.31625,56.10875 C57.4570833,56.4445833 57.67375,56.7154167 57.96625,56.92125 C58.25875,57.1270833 58.6866667,57.23 59.25,57.23 C59.5966667,57.23 59.9541667,57.1975 60.3225,57.1325 C60.6908333,57.0675 61.0266667,56.9483333 61.33,56.775 L61.33,59.44 C60.9833333,59.635 60.53375,59.7704167 59.98125,59.84625 C59.42875,59.9220833 59.0008333,59.96 58.6975,59.96 C57.5708333,59.96 56.69875,59.8029167 56.08125,59.48875 C55.46375,59.1745833 55.00875,58.7683333 54.71625,58.27 C54.42375,57.7716667 54.2504167,57.21375 54.19625,56.59625 C54.1420833,55.97875 54.115,55.3558333 54.115,54.7275 L54.115,46.7 L50.735,46.7 L50.735,44.165 L54.115,44.165 L54.115,39.8425 L57.04,39.8425 L57.04,44.165 L61.2325,44.165 L61.2325,46.7 Z" id="Path"></path>
            <polygon id="Path" points="64.83 35 67.755 35 67.755 59.57 64.83 59.57"></polygon>
            <path d="M72.0675,46.05 C72.8908333,45.2916667 73.8441667,44.7229167 74.9275,44.34375 C76.0108333,43.9645833 77.0941667,43.775 78.1775,43.775 C79.3041667,43.775 80.27375,43.9158333 81.08625,44.1975 C81.89875,44.4791667 82.565,44.8583333 83.085,45.335 C83.605,45.8116667 83.9895833,46.35875 84.23875,46.97625 C84.4879167,47.59375 84.6125,48.2383333 84.6125,48.91 L84.6125,56.775 C84.6125,57.3166667 84.6233333,57.815 84.645,58.27 C84.6666667,58.725 84.6991667,59.1583333 84.7425,59.57 L82.1425,59.57 C82.0775,58.79 82.045,58.01 82.045,57.23 L81.98,57.23 C81.33,58.2266667 80.5608333,58.9308333 79.6725,59.3425 C78.7841667,59.7541667 77.755,59.96 76.585,59.96 C75.87,59.96 75.1875,59.8625 74.5375,59.6675 C73.8875,59.4725 73.31875,59.18 72.83125,58.79 C72.34375,58.4 71.9591667,57.9179167 71.6775,57.34375 C71.3958333,56.7695833 71.255,56.1033333 71.255,55.345 C71.255,54.3483333 71.4770833,53.5141667 71.92125,52.8425 C72.3654167,52.1708333 72.9720833,51.62375 73.74125,51.20125 C74.5104167,50.77875 75.4095833,50.4754167 76.43875,50.29125 C77.4679167,50.1070833 78.5675,50.015 79.7375,50.015 L81.8825,50.015 L81.8825,49.365 C81.8825,48.975 81.8066667,48.585 81.655,48.195 C81.5033333,47.805 81.2758333,47.4529167 80.9725,47.13875 C80.6691667,46.8245833 80.29,46.5754167 79.835,46.39125 C79.38,46.2070833 78.8383333,46.115 78.21,46.115 C77.6466667,46.115 77.15375,46.1691667 76.73125,46.2775 C76.30875,46.3858333 75.9241667,46.52125 75.5775,46.68375 C75.2308333,46.84625 74.9166667,47.0358333 74.635,47.2525 C74.3533333,47.4691667 74.0825,47.675 73.8225,47.87 L72.0675,46.05 Z M80.3225,52.16 C79.6291667,52.16 78.9195833,52.1979167 78.19375,52.27375 C77.4679167,52.3495833 76.8070833,52.4958333 76.21125,52.7125 C75.6154167,52.9291667 75.1279167,53.2325 74.74875,53.6225 C74.3695833,54.0125 74.18,54.5108333 74.18,55.1175 C74.18,56.0058333 74.4779167,56.645 75.07375,57.035 C75.6695833,57.425 76.4766667,57.62 77.495,57.62 C78.2966667,57.62 78.9791667,57.4845833 79.5425,57.21375 C80.1058333,56.9429167 80.5608333,56.5908333 80.9075,56.1575 C81.2541667,55.7241667 81.5033333,55.2420833 81.655,54.71125 C81.8066667,54.1804167 81.8825,53.655 81.8825,53.135 L81.8825,52.16 L80.3225,52.16 Z" id="Shape"></path>
            <path d="M88.47,44.165 L91.395,44.165 L91.395,46.5375 L91.46,46.5375 C91.8283333,45.7141667 92.4675,45.0479167 93.3775,44.53875 C94.2875,44.0295833 95.3383333,43.775 96.53,43.775 C97.2666667,43.775 97.97625,43.88875 98.65875,44.11625 C99.34125,44.34375 99.9370833,44.6958333 100.44625,45.1725 C100.955417,45.6491667 101.361667,46.26125 101.665,47.00875 C101.968333,47.75625 102.12,48.6391667 102.12,49.6575 L102.12,59.57 L99.195,59.57 L99.195,50.47 C99.195,49.755 99.0975,49.1429167 98.9025,48.63375 C98.7075,48.1245833 98.4475,47.7129167 98.1225,47.39875 C97.7975,47.0845833 97.42375,46.8570833 97.00125,46.71625 C96.57875,46.5754167 96.14,46.505 95.685,46.505 C95.0783333,46.505 94.515,46.6025 93.995,46.7975 C93.475,46.9925 93.02,47.30125 92.63,47.72375 C92.24,48.14625 91.9366667,48.6825 91.72,49.3325 C91.5033333,49.9825 91.395,50.7516667 91.395,51.64 L91.395,59.57 L88.47,59.57 L88.47,44.165 Z" id="Path"></path>
            <path d="M121.5775,59.57 L118.6525,59.57 L118.6525,57.36 L118.5875,57.36 C118.024167,58.1833333 117.249583,58.8225 116.26375,59.2775 C115.277917,59.7325 114.265,59.96 113.225,59.96 C112.033333,59.96 110.955417,59.7541667 109.99125,59.3425 C109.027083,58.9308333 108.20375,58.3566667 107.52125,57.62 C106.83875,56.8833333 106.313333,56.0275 105.945,55.0525 C105.576667,54.0775 105.3925,53.0158333 105.3925,51.8675 C105.3925,50.7191667 105.576667,49.6520833 105.945,48.66625 C106.313333,47.6804167 106.83875,46.8245833 107.52125,46.09875 C108.20375,45.3729167 109.027083,44.8041667 109.99125,44.3925 C110.955417,43.9808333 112.033333,43.775 113.225,43.775 C114.33,43.775 115.37,44.0079167 116.345,44.47375 C117.32,44.9395833 118.0675,45.5733333 118.5875,46.375 L118.6525,46.375 L118.6525,35 L121.5775,35 L121.5775,59.57 Z M113.5825,57.23 C114.3625,57.23 115.066667,57.0945833 115.695,56.82375 C116.323333,56.5529167 116.854167,56.1845833 117.2875,55.71875 C117.720833,55.2529167 118.056667,54.6895833 118.295,54.02875 C118.533333,53.3679167 118.6525,52.6475 118.6525,51.8675 C118.6525,51.0875 118.533333,50.3670833 118.295,49.70625 C118.056667,49.0454167 117.720833,48.4820833 117.2875,48.01625 C116.854167,47.5504167 116.323333,47.1820833 115.695,46.91125 C115.066667,46.6404167 114.3625,46.505 113.5825,46.505 C112.8025,46.505 112.098333,46.6404167 111.47,46.91125 C110.841667,47.1820833 110.310833,47.5504167 109.8775,48.01625 C109.444167,48.4820833 109.108333,49.0454167 108.87,49.70625 C108.631667,50.3670833 108.5125,51.0875 108.5125,51.8675 C108.5125,52.6475 108.631667,53.3679167 108.87,54.02875 C109.108333,54.6895833 109.444167,55.2529167 109.8775,55.71875 C110.310833,56.1845833 110.841667,56.5529167 111.47,56.82375 C112.098333,57.0945833 112.8025,57.23 113.5825,57.23 Z" id="Shape"></path>
        </g>
        <g id="Dignity,-fairness,-r" transform="translate(79.6, 97.412)" fill="#FF2891" fill-rule="nonzero">
            <path d="M0,0.96 L3.952,0.96 C4.752,0.96 5.45333333,1.05066667 6.056,1.232 C6.65866667,1.41333333 7.18133333,1.656 7.624,1.96 C8.06666667,2.264 8.43466667,2.61333333 8.728,3.008 C9.02133333,3.40266667 9.25333333,3.808 9.424,4.224 C9.59466667,4.64 9.71733333,5.056 9.792,5.472 C9.86666667,5.888 9.904,6.272 9.904,6.624 C9.904,7.34933333 9.77066667,8.05066667 9.504,8.728 C9.23733333,9.40533333 8.84266667,10.008 8.32,10.536 C7.79733333,11.064 7.14933333,11.488 6.376,11.808 C5.60266667,12.128 4.70933333,12.288 3.696,12.288 L0,12.288 L0,0.96 Z M1.536,10.848 L3.472,10.848 C4.12266667,10.848 4.73866667,10.76 5.32,10.584 C5.90133333,10.408 6.41066667,10.144 6.848,9.792 C7.28533333,9.44 7.632,9 7.888,8.472 C8.144,7.944 8.272,7.328 8.272,6.624 C8.272,6.26133333 8.21333333,5.83733333 8.096,5.352 C7.97866667,4.86666667 7.75733333,4.40533333 7.432,3.968 C7.10666667,3.53066667 6.656,3.16 6.08,2.856 C5.504,2.552 4.75733333,2.4 3.84,2.4 L1.536,2.4 L1.536,10.848 Z" id="Shape"></path>
            <path d="M11.406,4.704 L12.846,4.704 L12.846,12.288 L11.406,12.288 L11.406,4.704 Z M11.07,1.984 C11.07,1.696 11.174,1.448 11.382,1.24 C11.59,1.032 11.838,0.928 12.126,0.928 C12.414,0.928 12.662,1.032 12.87,1.24 C13.078,1.448 13.182,1.696 13.182,1.984 C13.182,2.272 13.078,2.52 12.87,2.728 C12.662,2.936 12.414,3.04 12.126,3.04 C11.838,3.04 11.59,2.936 11.382,2.728 C11.174,2.52 11.07,2.272 11.07,1.984 Z" id="Shape"></path>
            <path d="M22.284,12.224 C22.284,12.8 22.1853333,13.3253333 21.988,13.8 C21.7906667,14.2746667 21.5106667,14.6853333 21.148,15.032 C20.7853333,15.3786667 20.348,15.648 19.836,15.84 C19.324,16.032 18.7586667,16.128 18.14,16.128 C17.4146667,16.128 16.7506667,16.0266667 16.148,15.824 C15.5453333,15.6213333 14.972,15.2693333 14.428,14.768 L15.404,13.552 C15.7773333,13.9573333 16.1826667,14.264 16.62,14.472 C17.0573333,14.68 17.5533333,14.784 18.108,14.784 C18.6413333,14.784 19.084,14.7066667 19.436,14.552 C19.788,14.3973333 20.068,14.1973333 20.276,13.952 C20.484,13.7066667 20.6306667,13.4266667 20.716,13.112 C20.8013333,12.7973333 20.844,12.48 20.844,12.16 L20.844,11.04 L20.796,11.04 C20.5186667,11.4986667 20.1426667,11.8373333 19.668,12.056 C19.1933333,12.2746667 18.6946667,12.384 18.172,12.384 C17.6173333,12.384 17.1026667,12.2853333 16.628,12.088 C16.1533333,11.8906667 15.7453333,11.6186667 15.404,11.272 C15.0626667,10.9253333 14.796,10.5146667 14.604,10.04 C14.412,9.56533333 14.316,9.05066667 14.316,8.496 C14.316,7.94133333 14.4066667,7.42133333 14.588,6.936 C14.7693333,6.45066667 15.028,6.02666667 15.364,5.664 C15.7,5.30133333 16.1053333,5.01866667 16.58,4.816 C17.0546667,4.61333333 17.5853333,4.512 18.172,4.512 C18.684,4.512 19.1826667,4.624 19.668,4.848 C20.1533333,5.072 20.5346667,5.38666667 20.812,5.792 L20.844,5.792 L20.844,4.704 L22.284,4.704 L22.284,12.224 Z M18.348,5.856 C17.964,5.856 17.6173333,5.92266667 17.308,6.056 C16.9986667,6.18933333 16.7373333,6.37066667 16.524,6.6 C16.3106667,6.82933333 16.1453333,7.10666667 16.028,7.432 C15.9106667,7.75733333 15.852,8.112 15.852,8.496 C15.852,9.264 16.076,9.88 16.524,10.344 C16.972,10.808 17.58,11.04 18.348,11.04 C19.116,11.04 19.724,10.808 20.172,10.344 C20.62,9.88 20.844,9.264 20.844,8.496 C20.844,8.112 20.7853333,7.75733333 20.668,7.432 C20.5506667,7.10666667 20.3853333,6.82933333 20.172,6.6 C19.9586667,6.37066667 19.6973333,6.18933333 19.388,6.056 C19.0786667,5.92266667 18.732,5.856 18.348,5.856 Z" id="Shape"></path>
            <path d="M24.01,4.704 L25.45,4.704 L25.45,5.872 L25.482,5.872 C25.6633333,5.46666667 25.978,5.13866667 26.426,4.888 C26.874,4.63733333 27.3913333,4.512 27.978,4.512 C28.3406667,4.512 28.69,4.568 29.026,4.68 C29.362,4.792 29.6553333,4.96533333 29.906,5.2 C30.1566667,5.43466667 30.3566667,5.736 30.506,6.104 C30.6553333,6.472 30.73,6.90666667 30.73,7.408 L30.73,12.288 L29.29,12.288 L29.29,7.808 C29.29,7.456 29.242,7.15466667 29.146,6.904 C29.05,6.65333333 28.922,6.45066667 28.762,6.296 C28.602,6.14133333 28.418,6.02933333 28.21,5.96 C28.002,5.89066667 27.786,5.856 27.562,5.856 C27.2633333,5.856 26.986,5.904 26.73,6 C26.474,6.096 26.25,6.248 26.058,6.456 C25.866,6.664 25.7166667,6.928 25.61,7.248 C25.5033333,7.568 25.45,7.94666667 25.45,8.384 L25.45,12.288 L24.01,12.288 L24.01,4.704 Z" id="Path"></path>
            <path d="M32.568,4.704 L34.008,4.704 L34.008,12.288 L32.568,12.288 L32.568,4.704 Z M32.232,1.984 C32.232,1.696 32.336,1.448 32.544,1.24 C32.752,1.032 33,0.928 33.288,0.928 C33.576,0.928 33.824,1.032 34.032,1.24 C34.24,1.448 34.344,1.696 34.344,1.984 C34.344,2.272 34.24,2.52 34.032,2.728 C33.824,2.936 33.576,3.04 33.288,3.04 C33,3.04 32.752,2.936 32.544,2.728 C32.336,2.52 32.232,2.272 32.232,1.984 Z" id="Shape"></path>
            <path d="M39.91,5.952 L37.846,5.952 L37.846,9.392 C37.846,9.60533333 37.8513333,9.816 37.862,10.024 C37.8726667,10.232 37.9126667,10.4186667 37.982,10.584 C38.0513333,10.7493333 38.158,10.8826667 38.302,10.984 C38.446,11.0853333 38.6566667,11.136 38.934,11.136 C39.1046667,11.136 39.2806667,11.12 39.462,11.088 C39.6433333,11.056 39.8086667,10.9973333 39.958,10.912 L39.958,12.224 C39.7873333,12.32 39.566,12.3866667 39.294,12.424 C39.022,12.4613333 38.8113333,12.48 38.662,12.48 C38.1073333,12.48 37.678,12.4026667 37.374,12.248 C37.07,12.0933333 36.846,11.8933333 36.702,11.648 C36.558,11.4026667 36.4726667,11.128 36.446,10.824 C36.4193333,10.52 36.406,10.2133333 36.406,9.904 L36.406,5.952 L34.742,5.952 L34.742,4.704 L36.406,4.704 L36.406,2.576 L37.846,2.576 L37.846,4.704 L39.91,4.704 L39.91,5.952 Z" id="Path"></path>
            <path d="M40.404,4.704 L42.068,4.704 L44.324,10.624 L44.356,10.624 L46.5,4.704 L48.052,4.704 L44.452,13.92 C44.324,14.2506667 44.1906667,14.552 44.052,14.824 C43.9133333,15.096 43.748,15.328 43.556,15.52 C43.364,15.712 43.132,15.8613333 42.86,15.968 C42.588,16.0746667 42.2546667,16.128 41.86,16.128 C41.6466667,16.128 41.4306667,16.1146667 41.212,16.088 C40.9933333,16.0613333 40.7826667,16.0053333 40.58,15.92 L40.756,14.608 C41.044,14.7253333 41.332,14.784 41.62,14.784 C41.844,14.784 42.0333333,14.7546667 42.188,14.696 C42.3426667,14.6373333 42.476,14.552 42.588,14.44 C42.7,14.328 42.7933333,14.1973333 42.868,14.048 C42.9426667,13.8986667 43.0173333,13.728 43.092,13.536 L43.556,12.336 L40.404,4.704 Z" id="Path"></path>
            <polygon id="Path" points="48.674 14.4 47.362 14.4 48.466 10.464 50.018 10.464"></polygon>
            <path d="M56.238,5.952 L54.606,5.952 L54.606,4.704 L56.238,4.704 L56.238,3.008 C56.238,1.99466667 56.4326667,1.24 56.822,0.744 C57.2113333,0.248 57.8806667,0 58.83,0 C58.99,0 59.158,0.00533333333 59.334,0.016 C59.51,0.0266666667 59.6993333,0.0586666667 59.902,0.112 L59.742,1.392 C59.6033333,1.33866667 59.47,1.30133333 59.342,1.28 C59.214,1.25866667 59.0753333,1.248 58.926,1.248 C58.6593333,1.248 58.446,1.288 58.286,1.368 C58.126,1.448 58.0006667,1.56266667 57.91,1.712 C57.8193333,1.86133333 57.7606667,2.04 57.734,2.248 C57.7073333,2.456 57.694,2.69333333 57.694,2.96 L57.694,4.704 L59.406,4.704 L59.406,5.952 L57.678,5.952 L57.678,12.288 L56.238,12.288 L56.238,5.952 Z" id="Path"></path>
            <path d="M60.588,5.632 C60.9933333,5.25866667 61.4626667,4.97866667 61.996,4.792 C62.5293333,4.60533333 63.0626667,4.512 63.596,4.512 C64.1506667,4.512 64.628,4.58133333 65.028,4.72 C65.428,4.85866667 65.756,5.04533333 66.012,5.28 C66.268,5.51466667 66.4573333,5.784 66.58,6.088 C66.7026667,6.392 66.764,6.70933333 66.764,7.04 L66.764,10.912 C66.764,11.1786667 66.7693333,11.424 66.78,11.648 C66.7906667,11.872 66.8066667,12.0853333 66.828,12.288 L65.548,12.288 C65.516,11.904 65.5,11.52 65.5,11.136 L65.468,11.136 C65.148,11.6266667 64.7693333,11.9733333 64.332,12.176 C63.8946667,12.3786667 63.388,12.48 62.812,12.48 C62.46,12.48 62.124,12.432 61.804,12.336 C61.484,12.24 61.204,12.096 60.964,11.904 C60.724,11.712 60.5346667,11.4746667 60.396,11.192 C60.2573333,10.9093333 60.188,10.5813333 60.188,10.208 C60.188,9.71733333 60.2973333,9.30666667 60.516,8.976 C60.7346667,8.64533333 61.0333333,8.376 61.412,8.168 C61.7906667,7.96 62.2333333,7.81066667 62.74,7.72 C63.2466667,7.62933333 63.788,7.584 64.364,7.584 L65.42,7.584 L65.42,7.264 C65.42,7.072 65.3826667,6.88 65.308,6.688 C65.2333333,6.496 65.1213333,6.32266667 64.972,6.168 C64.8226667,6.01333333 64.636,5.89066667 64.412,5.8 C64.188,5.70933333 63.9213333,5.664 63.612,5.664 C63.3346667,5.664 63.092,5.69066667 62.884,5.744 C62.676,5.79733333 62.4866667,5.864 62.316,5.944 C62.1453333,6.024 61.9906667,6.11733333 61.852,6.224 C61.7133333,6.33066667 61.58,6.432 61.452,6.528 L60.588,5.632 Z M64.652,8.64 C64.3106667,8.64 63.9613333,8.65866667 63.604,8.696 C63.2466667,8.73333333 62.9213333,8.80533333 62.628,8.912 C62.3346667,9.01866667 62.0946667,9.168 61.908,9.36 C61.7213333,9.552 61.628,9.79733333 61.628,10.096 C61.628,10.5333333 61.7746667,10.848 62.068,11.04 C62.3613333,11.232 62.7586667,11.328 63.26,11.328 C63.6546667,11.328 63.9906667,11.2613333 64.268,11.128 C64.5453333,10.9946667 64.7693333,10.8213333 64.94,10.608 C65.1106667,10.3946667 65.2333333,10.1573333 65.308,9.896 C65.3826667,9.63466667 65.42,9.376 65.42,9.12 L65.42,8.64 L64.652,8.64 Z" id="Shape"></path>
            <path d="M68.522,4.704 L69.962,4.704 L69.962,12.288 L68.522,12.288 L68.522,4.704 Z M68.186,1.984 C68.186,1.696 68.29,1.448 68.498,1.24 C68.706,1.032 68.954,0.928 69.242,0.928 C69.53,0.928 69.778,1.032 69.986,1.24 C70.194,1.448 70.298,1.696 70.298,1.984 C70.298,2.272 70.194,2.52 69.986,2.728 C69.778,2.936 69.53,3.04 69.242,3.04 C68.954,3.04 68.706,2.936 68.498,2.728 C68.29,2.52 68.186,2.272 68.186,1.984 Z" id="Shape"></path>
            <path d="M71.8,4.704 L73.24,4.704 L73.24,5.872 L73.272,5.872 C73.368,5.66933333 73.496,5.48533333 73.656,5.32 C73.816,5.15466667 73.9946667,5.01333333 74.192,4.896 C74.3893333,4.77866667 74.6053333,4.68533333 74.84,4.616 C75.0746667,4.54666667 75.3093333,4.512 75.544,4.512 C75.7786667,4.512 75.992,4.544 76.184,4.608 L76.12,6.16 C76.0026667,6.128 75.8853333,6.10133333 75.768,6.08 C75.6506667,6.05866667 75.5333333,6.048 75.416,6.048 C74.712,6.048 74.1733333,6.24533333 73.8,6.64 C73.4266667,7.03466667 73.24,7.648 73.24,8.48 L73.24,12.288 L71.8,12.288 L71.8,4.704 Z" id="Path"></path>
            <path d="M77.27,4.704 L78.71,4.704 L78.71,5.872 L78.742,5.872 C78.9233333,5.46666667 79.238,5.13866667 79.686,4.888 C80.134,4.63733333 80.6513333,4.512 81.238,4.512 C81.6006667,4.512 81.95,4.568 82.286,4.68 C82.622,4.792 82.9153333,4.96533333 83.166,5.2 C83.4166667,5.43466667 83.6166667,5.736 83.766,6.104 C83.9153333,6.472 83.99,6.90666667 83.99,7.408 L83.99,12.288 L82.55,12.288 L82.55,7.808 C82.55,7.456 82.502,7.15466667 82.406,6.904 C82.31,6.65333333 82.182,6.45066667 82.022,6.296 C81.862,6.14133333 81.678,6.02933333 81.47,5.96 C81.262,5.89066667 81.046,5.856 80.822,5.856 C80.5233333,5.856 80.246,5.904 79.99,6 C79.734,6.096 79.51,6.248 79.318,6.456 C79.126,6.664 78.9766667,6.928 78.87,7.248 C78.7633333,7.568 78.71,7.94666667 78.71,8.384 L78.71,12.288 L77.27,12.288 L77.27,4.704 Z" id="Path"></path>
            <path d="M86.804,9.024 C86.804,9.35466667 86.876,9.656 87.02,9.928 C87.164,10.2 87.3533333,10.432 87.588,10.624 C87.8226667,10.816 88.0946667,10.9653333 88.404,11.072 C88.7133333,11.1786667 89.0333333,11.232 89.364,11.232 C89.812,11.232 90.2013333,11.128 90.532,10.92 C90.8626667,10.712 91.1666667,10.4373333 91.444,10.096 L92.532,10.928 C91.732,11.9626667 90.612,12.48 89.172,12.48 C88.5746667,12.48 88.0333333,12.3786667 87.548,12.176 C87.0626667,11.9733333 86.652,11.6933333 86.316,11.336 C85.98,10.9786667 85.7213333,10.5573333 85.54,10.072 C85.3586667,9.58666667 85.268,9.06133333 85.268,8.496 C85.268,7.93066667 85.3666667,7.40533333 85.564,6.92 C85.7613333,6.43466667 86.0333333,6.01333333 86.38,5.656 C86.7266667,5.29866667 87.14,5.01866667 87.62,4.816 C88.1,4.61333333 88.6226667,4.512 89.188,4.512 C89.86,4.512 90.428,4.62933333 90.892,4.864 C91.356,5.09866667 91.7373333,5.40533333 92.036,5.784 C92.3346667,6.16266667 92.5506667,6.58933333 92.684,7.064 C92.8173333,7.53866667 92.884,8.02133333 92.884,8.512 L92.884,9.024 L86.804,9.024 Z M91.348,7.872 C91.3373333,7.552 91.2866667,7.25866667 91.196,6.992 C91.1053333,6.72533333 90.9693333,6.49333333 90.788,6.296 C90.6066667,6.09866667 90.38,5.944 90.108,5.832 C89.836,5.72 89.5186667,5.664 89.156,5.664 C88.804,5.664 88.4813333,5.73066667 88.188,5.864 C87.8946667,5.99733333 87.6466667,6.17066667 87.444,6.384 C87.2413333,6.59733333 87.084,6.83466667 86.972,7.096 C86.86,7.35733333 86.804,7.616 86.804,7.872 L91.348,7.872 Z" id="Shape"></path>
            <path d="M98.194,6.608 C98.0233333,6.39466667 97.8126667,6.216 97.562,6.072 C97.3113333,5.928 97.0046667,5.856 96.642,5.856 C96.3006667,5.856 96.0046667,5.928 95.754,6.072 C95.5033333,6.216 95.378,6.42666667 95.378,6.704 C95.378,6.928 95.45,7.10933333 95.594,7.248 C95.738,7.38666667 95.9086667,7.49866667 96.106,7.584 C96.3033333,7.66933333 96.514,7.73333333 96.738,7.776 C96.962,7.81866667 97.154,7.856 97.314,7.888 C97.6233333,7.96266667 97.914,8.05333333 98.186,8.16 C98.458,8.26666667 98.6926667,8.40533333 98.89,8.576 C99.0873333,8.74666667 99.242,8.95466667 99.354,9.2 C99.466,9.44533333 99.522,9.744 99.522,10.096 C99.522,10.5226667 99.4313333,10.888 99.25,11.192 C99.0686667,11.496 98.834,11.744 98.546,11.936 C98.258,12.128 97.93,12.2666667 97.562,12.352 C97.194,12.4373333 96.8233333,12.48 96.45,12.48 C95.8206667,12.48 95.2686667,12.384 94.794,12.192 C94.3193333,12 93.8953333,11.648 93.522,11.136 L94.61,10.24 C94.8446667,10.4746667 95.106,10.6826667 95.394,10.864 C95.682,11.0453333 96.034,11.136 96.45,11.136 C96.6313333,11.136 96.8153333,11.1173333 97.002,11.08 C97.1886667,11.0426667 97.354,10.984 97.498,10.904 C97.642,10.824 97.7593333,10.7226667 97.85,10.6 C97.9406667,10.4773333 97.986,10.336 97.986,10.176 C97.986,9.96266667 97.9193333,9.78666667 97.786,9.648 C97.6526667,9.50933333 97.4926667,9.4 97.306,9.32 C97.1193333,9.24 96.922,9.176 96.714,9.128 C96.506,9.08 96.322,9.04 96.162,9.008 C95.8526667,8.93333333 95.5593333,8.848 95.282,8.752 C95.0046667,8.656 94.7593333,8.528 94.546,8.368 C94.3326667,8.208 94.162,8.00533333 94.034,7.76 C93.906,7.51466667 93.842,7.21066667 93.842,6.848 C93.842,6.45333333 93.9246667,6.10933333 94.09,5.816 C94.2553333,5.52266667 94.474,5.28 94.746,5.088 C95.018,4.896 95.3273333,4.752 95.674,4.656 C96.0206667,4.56 96.37,4.512 96.722,4.512 C97.234,4.512 97.7246667,4.608 98.194,4.8 C98.6633333,4.992 99.0366667,5.312 99.314,5.76 L98.194,6.608 Z" id="Path"></path>
            <path d="M104.848,6.608 C104.677333,6.39466667 104.466667,6.216 104.216,6.072 C103.965333,5.928 103.658667,5.856 103.296,5.856 C102.954667,5.856 102.658667,5.928 102.408,6.072 C102.157333,6.216 102.032,6.42666667 102.032,6.704 C102.032,6.928 102.104,7.10933333 102.248,7.248 C102.392,7.38666667 102.562667,7.49866667 102.76,7.584 C102.957333,7.66933333 103.168,7.73333333 103.392,7.776 C103.616,7.81866667 103.808,7.856 103.968,7.888 C104.277333,7.96266667 104.568,8.05333333 104.84,8.16 C105.112,8.26666667 105.346667,8.40533333 105.544,8.576 C105.741333,8.74666667 105.896,8.95466667 106.008,9.2 C106.12,9.44533333 106.176,9.744 106.176,10.096 C106.176,10.5226667 106.085333,10.888 105.904,11.192 C105.722667,11.496 105.488,11.744 105.2,11.936 C104.912,12.128 104.584,12.2666667 104.216,12.352 C103.848,12.4373333 103.477333,12.48 103.104,12.48 C102.474667,12.48 101.922667,12.384 101.448,12.192 C100.973333,12 100.549333,11.648 100.176,11.136 L101.264,10.24 C101.498667,10.4746667 101.76,10.6826667 102.048,10.864 C102.336,11.0453333 102.688,11.136 103.104,11.136 C103.285333,11.136 103.469333,11.1173333 103.656,11.08 C103.842667,11.0426667 104.008,10.984 104.152,10.904 C104.296,10.824 104.413333,10.7226667 104.504,10.6 C104.594667,10.4773333 104.64,10.336 104.64,10.176 C104.64,9.96266667 104.573333,9.78666667 104.44,9.648 C104.306667,9.50933333 104.146667,9.4 103.96,9.32 C103.773333,9.24 103.576,9.176 103.368,9.128 C103.16,9.08 102.976,9.04 102.816,9.008 C102.506667,8.93333333 102.213333,8.848 101.936,8.752 C101.658667,8.656 101.413333,8.528 101.2,8.368 C100.986667,8.208 100.816,8.00533333 100.688,7.76 C100.56,7.51466667 100.496,7.21066667 100.496,6.848 C100.496,6.45333333 100.578667,6.10933333 100.744,5.816 C100.909333,5.52266667 101.128,5.28 101.4,5.088 C101.672,4.896 101.981333,4.752 102.328,4.656 C102.674667,4.56 103.024,4.512 103.376,4.512 C103.888,4.512 104.378667,4.608 104.848,4.8 C105.317333,4.992 105.690667,5.312 105.968,5.76 L104.848,6.608 Z" id="Path"></path>
            <polygon id="Path" points="108.462 14.4 107.15 14.4 108.254 10.464 109.806 10.464"></polygon>
            <path d="M115.466,4.704 L116.906,4.704 L116.906,5.872 L116.938,5.872 C117.034,5.66933333 117.162,5.48533333 117.322,5.32 C117.482,5.15466667 117.660667,5.01333333 117.858,4.896 C118.055333,4.77866667 118.271333,4.68533333 118.506,4.616 C118.740667,4.54666667 118.975333,4.512 119.21,4.512 C119.444667,4.512 119.658,4.544 119.85,4.608 L119.786,6.16 C119.668667,6.128 119.551333,6.10133333 119.434,6.08 C119.316667,6.05866667 119.199333,6.048 119.082,6.048 C118.378,6.048 117.839333,6.24533333 117.466,6.64 C117.092667,7.03466667 116.906,7.648 116.906,8.48 L116.906,12.288 L115.466,12.288 L115.466,4.704 Z" id="Path"></path>
            <path d="M121.736,9.024 C121.736,9.35466667 121.808,9.656 121.952,9.928 C122.096,10.2 122.285333,10.432 122.52,10.624 C122.754667,10.816 123.026667,10.9653333 123.336,11.072 C123.645333,11.1786667 123.965333,11.232 124.296,11.232 C124.744,11.232 125.133333,11.128 125.464,10.92 C125.794667,10.712 126.098667,10.4373333 126.376,10.096 L127.464,10.928 C126.664,11.9626667 125.544,12.48 124.104,12.48 C123.506667,12.48 122.965333,12.3786667 122.48,12.176 C121.994667,11.9733333 121.584,11.6933333 121.248,11.336 C120.912,10.9786667 120.653333,10.5573333 120.472,10.072 C120.290667,9.58666667 120.2,9.06133333 120.2,8.496 C120.2,7.93066667 120.298667,7.40533333 120.496,6.92 C120.693333,6.43466667 120.965333,6.01333333 121.312,5.656 C121.658667,5.29866667 122.072,5.01866667 122.552,4.816 C123.032,4.61333333 123.554667,4.512 124.12,4.512 C124.792,4.512 125.36,4.62933333 125.824,4.864 C126.288,5.09866667 126.669333,5.40533333 126.968,5.784 C127.266667,6.16266667 127.482667,6.58933333 127.616,7.064 C127.749333,7.53866667 127.816,8.02133333 127.816,8.512 L127.816,9.024 L121.736,9.024 Z M126.28,7.872 C126.269333,7.552 126.218667,7.25866667 126.128,6.992 C126.037333,6.72533333 125.901333,6.49333333 125.72,6.296 C125.538667,6.09866667 125.312,5.944 125.04,5.832 C124.768,5.72 124.450667,5.664 124.088,5.664 C123.736,5.664 123.413333,5.73066667 123.12,5.864 C122.826667,5.99733333 122.578667,6.17066667 122.376,6.384 C122.173333,6.59733333 122.016,6.83466667 121.904,7.096 C121.792,7.35733333 121.736,7.616 121.736,7.872 L126.28,7.872 Z" id="Shape"></path>
            <path d="M133.126,6.608 C132.955333,6.39466667 132.744667,6.216 132.494,6.072 C132.243333,5.928 131.936667,5.856 131.574,5.856 C131.232667,5.856 130.936667,5.928 130.686,6.072 C130.435333,6.216 130.31,6.42666667 130.31,6.704 C130.31,6.928 130.382,7.10933333 130.526,7.248 C130.67,7.38666667 130.840667,7.49866667 131.038,7.584 C131.235333,7.66933333 131.446,7.73333333 131.67,7.776 C131.894,7.81866667 132.086,7.856 132.246,7.888 C132.555333,7.96266667 132.846,8.05333333 133.118,8.16 C133.39,8.26666667 133.624667,8.40533333 133.822,8.576 C134.019333,8.74666667 134.174,8.95466667 134.286,9.2 C134.398,9.44533333 134.454,9.744 134.454,10.096 C134.454,10.5226667 134.363333,10.888 134.182,11.192 C134.000667,11.496 133.766,11.744 133.478,11.936 C133.19,12.128 132.862,12.2666667 132.494,12.352 C132.126,12.4373333 131.755333,12.48 131.382,12.48 C130.752667,12.48 130.200667,12.384 129.726,12.192 C129.251333,12 128.827333,11.648 128.454,11.136 L129.542,10.24 C129.776667,10.4746667 130.038,10.6826667 130.326,10.864 C130.614,11.0453333 130.966,11.136 131.382,11.136 C131.563333,11.136 131.747333,11.1173333 131.934,11.08 C132.120667,11.0426667 132.286,10.984 132.43,10.904 C132.574,10.824 132.691333,10.7226667 132.782,10.6 C132.872667,10.4773333 132.918,10.336 132.918,10.176 C132.918,9.96266667 132.851333,9.78666667 132.718,9.648 C132.584667,9.50933333 132.424667,9.4 132.238,9.32 C132.051333,9.24 131.854,9.176 131.646,9.128 C131.438,9.08 131.254,9.04 131.094,9.008 C130.784667,8.93333333 130.491333,8.848 130.214,8.752 C129.936667,8.656 129.691333,8.528 129.478,8.368 C129.264667,8.208 129.094,8.00533333 128.966,7.76 C128.838,7.51466667 128.774,7.21066667 128.774,6.848 C128.774,6.45333333 128.856667,6.10933333 129.022,5.816 C129.187333,5.52266667 129.406,5.28 129.678,5.088 C129.95,4.896 130.259333,4.752 130.606,4.656 C130.952667,4.56 131.302,4.512 131.654,4.512 C132.166,4.512 132.656667,4.608 133.126,4.8 C133.595333,4.992 133.968667,5.312 134.246,5.76 L133.126,6.608 Z" id="Path"></path>
            <path d="M135.748,4.704 L137.188,4.704 L137.188,5.792 L137.22,5.792 C137.497333,5.38666667 137.878667,5.072 138.364,4.848 C138.849333,4.624 139.348,4.512 139.86,4.512 C140.446667,4.512 140.977333,4.61333333 141.452,4.816 C141.926667,5.01866667 142.332,5.30133333 142.668,5.664 C143.004,6.02666667 143.262667,6.45066667 143.444,6.936 C143.625333,7.42133333 143.716,7.94133333 143.716,8.496 C143.716,9.06133333 143.625333,9.58666667 143.444,10.072 C143.262667,10.5573333 143.004,10.9786667 142.668,11.336 C142.332,11.6933333 141.926667,11.9733333 141.452,12.176 C140.977333,12.3786667 140.446667,12.48 139.86,12.48 C139.316,12.48 138.804,12.3653333 138.324,12.136 C137.844,11.9066667 137.476,11.5946667 137.22,11.2 L137.188,11.2 L137.188,16.8 L135.748,16.8 L135.748,4.704 Z M139.684,5.856 C139.3,5.856 138.953333,5.92266667 138.644,6.056 C138.334667,6.18933333 138.073333,6.37066667 137.86,6.6 C137.646667,6.82933333 137.481333,7.10666667 137.364,7.432 C137.246667,7.75733333 137.188,8.112 137.188,8.496 C137.188,8.88 137.246667,9.23466667 137.364,9.56 C137.481333,9.88533333 137.646667,10.1626667 137.86,10.392 C138.073333,10.6213333 138.334667,10.8026667 138.644,10.936 C138.953333,11.0693333 139.3,11.136 139.684,11.136 C140.068,11.136 140.414667,11.0693333 140.724,10.936 C141.033333,10.8026667 141.294667,10.6213333 141.508,10.392 C141.721333,10.1626667 141.886667,9.88533333 142.004,9.56 C142.121333,9.23466667 142.18,8.88 142.18,8.496 C142.18,8.112 142.121333,7.75733333 142.004,7.432 C141.886667,7.10666667 141.721333,6.82933333 141.508,6.6 C141.294667,6.37066667 141.033333,6.18933333 140.724,6.056 C140.414667,5.92266667 140.068,5.856 139.684,5.856 Z" id="Shape"></path>
            <path d="M146.162,9.024 C146.162,9.35466667 146.234,9.656 146.378,9.928 C146.522,10.2 146.711333,10.432 146.946,10.624 C147.180667,10.816 147.452667,10.9653333 147.762,11.072 C148.071333,11.1786667 148.391333,11.232 148.722,11.232 C149.17,11.232 149.559333,11.128 149.89,10.92 C150.220667,10.712 150.524667,10.4373333 150.802,10.096 L151.89,10.928 C151.09,11.9626667 149.97,12.48 148.53,12.48 C147.932667,12.48 147.391333,12.3786667 146.906,12.176 C146.420667,11.9733333 146.01,11.6933333 145.674,11.336 C145.338,10.9786667 145.079333,10.5573333 144.898,10.072 C144.716667,9.58666667 144.626,9.06133333 144.626,8.496 C144.626,7.93066667 144.724667,7.40533333 144.922,6.92 C145.119333,6.43466667 145.391333,6.01333333 145.738,5.656 C146.084667,5.29866667 146.498,5.01866667 146.978,4.816 C147.458,4.61333333 147.980667,4.512 148.546,4.512 C149.218,4.512 149.786,4.62933333 150.25,4.864 C150.714,5.09866667 151.095333,5.40533333 151.394,5.784 C151.692667,6.16266667 151.908667,6.58933333 152.042,7.064 C152.175333,7.53866667 152.242,8.02133333 152.242,8.512 L152.242,9.024 L146.162,9.024 Z M150.706,7.872 C150.695333,7.552 150.644667,7.25866667 150.554,6.992 C150.463333,6.72533333 150.327333,6.49333333 150.146,6.296 C149.964667,6.09866667 149.738,5.944 149.466,5.832 C149.194,5.72 148.876667,5.664 148.514,5.664 C148.162,5.664 147.839333,5.73066667 147.546,5.864 C147.252667,5.99733333 147.004667,6.17066667 146.802,6.384 C146.599333,6.59733333 146.442,6.83466667 146.33,7.096 C146.218,7.35733333 146.162,7.616 146.162,7.872 L150.706,7.872 Z" id="Shape"></path>
            <path d="M158.944,6.72 C158.677333,6.44266667 158.397333,6.232 158.104,6.088 C157.810667,5.944 157.461333,5.872 157.056,5.872 C156.661333,5.872 156.317333,5.944 156.024,6.088 C155.730667,6.232 155.485333,6.42933333 155.288,6.68 C155.090667,6.93066667 154.941333,7.21866667 154.84,7.544 C154.738667,7.86933333 154.688,8.208 154.688,8.56 C154.688,8.912 154.746667,9.24533333 154.864,9.56 C154.981333,9.87466667 155.146667,10.1493333 155.36,10.384 C155.573333,10.6186667 155.829333,10.8026667 156.128,10.936 C156.426667,11.0693333 156.762667,11.136 157.136,11.136 C157.541333,11.136 157.888,11.064 158.176,10.92 C158.464,10.776 158.730667,10.5653333 158.976,10.288 L160,11.312 C159.626667,11.728 159.192,12.0266667 158.696,12.208 C158.2,12.3893333 157.674667,12.48 157.12,12.48 C156.533333,12.48 155.997333,12.384 155.512,12.192 C155.026667,12 154.608,11.7306667 154.256,11.384 C153.904,11.0373333 153.632,10.6213333 153.44,10.136 C153.248,9.65066667 153.152,9.11466667 153.152,8.528 C153.152,7.94133333 153.248,7.40266667 153.44,6.912 C153.632,6.42133333 153.901333,6 154.248,5.648 C154.594667,5.296 155.010667,5.02133333 155.496,4.824 C155.981333,4.62666667 156.522667,4.528 157.12,4.528 C157.674667,4.528 158.205333,4.62666667 158.712,4.824 C159.218667,5.02133333 159.658667,5.32266667 160.032,5.728 L158.944,6.72 Z" id="Path"></path>
            <path d="M164.846,5.952 L162.782,5.952 L162.782,9.392 C162.782,9.60533333 162.787333,9.816 162.798,10.024 C162.808667,10.232 162.848667,10.4186667 162.918,10.584 C162.987333,10.7493333 163.094,10.8826667 163.238,10.984 C163.382,11.0853333 163.592667,11.136 163.87,11.136 C164.040667,11.136 164.216667,11.12 164.398,11.088 C164.579333,11.056 164.744667,10.9973333 164.894,10.912 L164.894,12.224 C164.723333,12.32 164.502,12.3866667 164.23,12.424 C163.958,12.4613333 163.747333,12.48 163.598,12.48 C163.043333,12.48 162.614,12.4026667 162.31,12.248 C162.006,12.0933333 161.782,11.8933333 161.638,11.648 C161.494,11.4026667 161.408667,11.128 161.382,10.824 C161.355333,10.52 161.342,10.2133333 161.342,9.904 L161.342,5.952 L159.678,5.952 L159.678,4.704 L161.342,4.704 L161.342,2.576 L162.782,2.576 L162.782,4.704 L164.846,4.704 L164.846,5.952 Z" id="Path"></path>
            <path d="M167.388,12.384 C167.1,12.384 166.852,12.28 166.644,12.072 C166.436,11.864 166.332,11.616 166.332,11.328 C166.332,11.04 166.436,10.792 166.644,10.584 C166.852,10.376 167.1,10.272 167.388,10.272 C167.676,10.272 167.924,10.376 168.132,10.584 C168.34,10.792 168.444,11.04 168.444,11.328 C168.444,11.616 168.34,11.864 168.132,12.072 C167.924,12.28 167.676,12.384 167.388,12.384 Z" id="Path"></path>
        </g>
    </g>
</svg>