<?xml version="1.0" encoding="UTF-8"?>
<svg width="284px" height="126px" viewBox="0 0 284 126" version="1.1" xmlns="http://www.w3.org/2000/svg" xmlns:xlink="http://www.w3.org/1999/xlink">
    <title>logo</title>
    <g id="logo" stroke="none" stroke-width="1" fill="none" fill-rule="evenodd">
        <path d="M2.1,55.2323821 L21,46.4323821 C22.9,45.5323821 24.3,43.8323821 24.7,41.7323821 L33.1,1.73238208 C33.3,0.632382079 32.2,-0.367617921 31.2,0.132382079 L2.7,10.9323821 C1.2,11.5323821 0.3,12.8323821 0.3,14.4323821 L0,53.9323821 C0,55.0323821 1.1,55.7323821 2.1,55.2323821" id="Path" fill="#201751" fill-rule="nonzero"></path>
        <path d="M9,104.332382 L42.2,85.9323821 C43.4,85.2323821 44.2,84.1323821 44.5,82.8323821 L57.7,19.9323821 C58.1,18.1323821 56.3,16.6323821 54.6,17.3323821 L9.8,34.4323821 C7.6,35.2323821 6.1,37.3323821 6.1,39.7323821 L5.5,102.232382 C5.5,104.132382 7.4,105.232382 9,104.332382" id="Path" fill="#FF2891" fill-rule="nonzero"></path>
        <path d="M51,72.3323821 L26,55.3323821 L26,94.1323821 C26,94.6323821 25.7,95.0323821 25.3,95.2323821 L20.2,98.0323821 L20.2,101.932382 C20.2,103.132382 20.8,104.232382 21.8,104.932382 L51.4,125.032382 C52.3,125.632382 53.5,125.032382 53.5,123.932382 L53.6,77.3323821 C53.7,75.3323821 52.7,73.5323821 51,72.3323821" id="Path" fill="#201751" fill-rule="nonzero"></path>
        <g id="Social-Security-Scot" transform="translate(78.1725, 24.03)" fill="#201751" fill-rule="nonzero">
            <path d="M2.5675,19.76 C3.13083333,20.605 3.85125,21.2279167 4.72875,21.62875 C5.60625,22.0295833 6.51083333,22.23 7.4425,22.23 C7.9625,22.23 8.49333333,22.14875 9.035,21.98625 C9.57666667,21.82375 10.0695833,21.58 10.51375,21.255 C10.9579167,20.93 11.3208333,20.5291667 11.6025,20.0525 C11.8841667,19.5758333 12.025,19.0233333 12.025,18.395 C12.025,17.5066667 11.7433333,16.8295833 11.18,16.36375 C10.6166667,15.8979167 9.91791667,15.5079167 9.08375,15.19375 C8.24958333,14.8795833 7.33958333,14.57625 6.35375,14.28375 C5.36791667,13.99125 4.45791667,13.585 3.62375,13.065 C2.78958333,12.545 2.09083333,11.84625 1.5275,10.96875 C0.964166667,10.09125 0.6825,8.905 0.6825,7.41 C0.6825,6.73833333 0.82875,6.02333333 1.12125,5.265 C1.41375,4.50666667 1.87416667,3.81333333 2.5025,3.185 C3.13083333,2.55666667 3.93791667,2.03125 4.92375,1.60875 C5.90958333,1.18625 7.09583333,0.975 8.4825,0.975 C9.73916667,0.975 10.9416667,1.14833333 12.09,1.495 C13.2383333,1.84166667 14.2458333,2.54583333 15.1125,3.6075 L12.5775,5.915 C12.1875,5.30833333 11.635,4.82083333 10.92,4.4525 C10.205,4.08416667 9.3925,3.9 8.4825,3.9 C7.61583333,3.9 6.89541667,4.01375 6.32125,4.24125 C5.74708333,4.46875 5.28666667,4.76125 4.94,5.11875 C4.59333333,5.47625 4.34958333,5.86083333 4.20875,6.2725 C4.06791667,6.68416667 3.9975,7.06333333 3.9975,7.41 C3.9975,8.385 4.27916667,9.1325 4.8425,9.6525 C5.40583333,10.1725 6.10458333,10.595 6.93875,10.92 C7.77291667,11.245 8.68291667,11.5375 9.66875,11.7975 C10.6545833,12.0575 11.5645833,12.4204167 12.39875,12.88625 C13.2329167,13.3520833 13.9316667,13.9804167 14.495,14.77125 C15.0583333,15.5620833 15.34,16.6508333 15.34,18.0375 C15.34,19.1425 15.12875,20.1391667 14.70625,21.0275 C14.28375,21.9158333 13.715,22.6633333 13,23.27 C12.285,23.8766667 11.44,24.3425 10.465,24.6675 C9.49,24.9925 8.45,25.155 7.345,25.155 C5.87166667,25.155 4.47416667,24.895 3.1525,24.375 C1.83083333,23.855 0.78,23.0533333 4.54747351e-13,21.97 L2.5675,19.76 Z" id="Path"></path>
            <path d="M21.18,16.8675 C21.18,17.6475 21.2991667,18.3679167 21.5375,19.02875 C21.7758333,19.6895833 22.1116667,20.2529167 22.545,20.71875 C22.9783333,21.1845833 23.5091667,21.5529167 24.1375,21.82375 C24.7658333,22.0945833 25.47,22.23 26.25,22.23 C27.03,22.23 27.7341667,22.0945833 28.3625,21.82375 C28.9908333,21.5529167 29.5216667,21.1845833 29.955,20.71875 C30.3883333,20.2529167 30.7241667,19.6895833 30.9625,19.02875 C31.2008333,18.3679167 31.32,17.6475 31.32,16.8675 C31.32,16.0875 31.2008333,15.3670833 30.9625,14.70625 C30.7241667,14.0454167 30.3883333,13.4820833 29.955,13.01625 C29.5216667,12.5504167 28.9908333,12.1820833 28.3625,11.91125 C27.7341667,11.6404167 27.03,11.505 26.25,11.505 C25.47,11.505 24.7658333,11.6404167 24.1375,11.91125 C23.5091667,12.1820833 22.9783333,12.5504167 22.545,13.01625 C22.1116667,13.4820833 21.7758333,14.0454167 21.5375,14.70625 C21.2991667,15.3670833 21.18,16.0875 21.18,16.8675 Z M18.06,16.8675 C18.06,15.7408333 18.27125,14.69 18.69375,13.715 C19.11625,12.74 19.6958333,11.8841667 20.4325,11.1475 C21.1691667,10.4108333 22.0358333,9.83125 23.0325,9.40875 C24.0291667,8.98625 25.1016667,8.775 26.25,8.775 C27.3983333,8.775 28.4708333,8.98625 29.4675,9.40875 C30.4641667,9.83125 31.3308333,10.4108333 32.0675,11.1475 C32.8041667,11.8841667 33.38375,12.74 33.80625,13.715 C34.22875,14.69 34.44,15.7408333 34.44,16.8675 C34.44,17.9941667 34.22875,19.0504167 33.80625,20.03625 C33.38375,21.0220833 32.8041667,21.8779167 32.0675,22.60375 C31.3308333,23.3295833 30.4641667,23.90375 29.4675,24.32625 C28.4708333,24.74875 27.3983333,24.96 26.25,24.96 C25.1016667,24.96 24.0291667,24.74875 23.0325,24.32625 C22.0358333,23.90375 21.1691667,23.3295833 20.4325,22.60375 C19.6958333,21.8779167 19.11625,21.0220833 18.69375,20.03625 C18.27125,19.0504167 18.06,17.9941667 18.06,16.8675 Z" id="Shape"></path>
            <path d="M48.73,13.26 C48.1883333,12.6966667 47.6195833,12.26875 47.02375,11.97625 C46.4279167,11.68375 45.7183333,11.5375 44.895,11.5375 C44.0933333,11.5375 43.3945833,11.68375 42.79875,11.97625 C42.2029167,12.26875 41.7045833,12.6695833 41.30375,13.17875 C40.9029167,13.6879167 40.5995833,14.2729167 40.39375,14.93375 C40.1879167,15.5945833 40.085,16.2825 40.085,16.9975 C40.085,17.7125 40.2041667,18.3895833 40.4425,19.02875 C40.6808333,19.6679167 41.0166667,20.2258333 41.45,20.7025 C41.8833333,21.1791667 42.4033333,21.5529167 43.01,21.82375 C43.6166667,22.0945833 44.2991667,22.23 45.0575,22.23 C45.8808333,22.23 46.585,22.08375 47.17,21.79125 C47.755,21.49875 48.2966667,21.0708333 48.795,20.5075 L50.875,22.5875 C50.1166667,23.4325 49.23375,24.0391667 48.22625,24.4075 C47.21875,24.7758333 46.1516667,24.96 45.025,24.96 C43.8333333,24.96 42.7445833,24.765 41.75875,24.375 C40.7729167,23.985 39.9225,23.4379167 39.2075,22.73375 C38.4925,22.0295833 37.94,21.1845833 37.55,20.19875 C37.16,19.2129167 36.965,18.1241667 36.965,16.9325 C36.965,15.7408333 37.16,14.6466667 37.55,13.65 C37.94,12.6533333 38.4870833,11.7975 39.19125,11.0825 C39.8954167,10.3675 40.7404167,9.80958333 41.72625,9.40875 C42.7120833,9.00791667 43.8116667,8.8075 45.025,8.8075 C46.1516667,8.8075 47.2295833,9.00791667 48.25875,9.40875 C49.2879167,9.80958333 50.1816667,10.4216667 50.94,11.245 L48.73,13.26 Z" id="Path"></path>
            <path d="M53.205,9.165 L56.13,9.165 L56.13,24.57 L53.205,24.57 L53.205,9.165 Z M52.5225,3.64 C52.5225,3.055 52.73375,2.55125 53.15625,2.12875 C53.57875,1.70625 54.0825,1.495 54.6675,1.495 C55.2525,1.495 55.75625,1.70625 56.17875,2.12875 C56.60125,2.55125 56.8125,3.055 56.8125,3.64 C56.8125,4.225 56.60125,4.72875 56.17875,5.15125 C55.75625,5.57375 55.2525,5.785 54.6675,5.785 C54.0825,5.785 53.57875,5.57375 53.15625,5.15125 C52.73375,4.72875 52.5225,4.225 52.5225,3.64 Z" id="Shape"></path>
            <path d="M60.4425,11.05 C61.2658333,10.2916667 62.2191667,9.72291667 63.3025,9.34375 C64.3858333,8.96458333 65.4691667,8.775 66.5525,8.775 C67.6791667,8.775 68.64875,8.91583333 69.46125,9.1975 C70.27375,9.47916667 70.94,9.85833333 71.46,10.335 C71.98,10.8116667 72.3645833,11.35875 72.61375,11.97625 C72.8629167,12.59375 72.9875,13.2383333 72.9875,13.91 L72.9875,21.775 C72.9875,22.3166667 72.9983333,22.815 73.02,23.27 C73.0416667,23.725 73.0741667,24.1583333 73.1175,24.57 L70.5175,24.57 C70.4525,23.79 70.42,23.01 70.42,22.23 L70.355,22.23 C69.705,23.2266667 68.9358333,23.9308333 68.0475,24.3425 C67.1591667,24.7541667 66.13,24.96 64.96,24.96 C64.245,24.96 63.5625,24.8625 62.9125,24.6675 C62.2625,24.4725 61.69375,24.18 61.20625,23.79 C60.71875,23.4 60.3341667,22.9179167 60.0525,22.34375 C59.7708333,21.7695833 59.63,21.1033333 59.63,20.345 C59.63,19.3483333 59.8520833,18.5141667 60.29625,17.8425 C60.7404167,17.1708333 61.3470833,16.62375 62.11625,16.20125 C62.8854167,15.77875 63.7845833,15.4754167 64.81375,15.29125 C65.8429167,15.1070833 66.9425,15.015 68.1125,15.015 L70.2575,15.015 L70.2575,14.365 C70.2575,13.975 70.1816667,13.585 70.03,13.195 C69.8783333,12.805 69.6508333,12.4529167 69.3475,12.13875 C69.0441667,11.8245833 68.665,11.5754167 68.21,11.39125 C67.755,11.2070833 67.2133333,11.115 66.585,11.115 C66.0216667,11.115 65.52875,11.1691667 65.10625,11.2775 C64.68375,11.3858333 64.2991667,11.52125 63.9525,11.68375 C63.6058333,11.84625 63.2916667,12.0358333 63.01,12.2525 C62.7283333,12.4691667 62.4575,12.675 62.1975,12.87 L60.4425,11.05 Z M68.6975,17.16 C68.0041667,17.16 67.2945833,17.1979167 66.56875,17.27375 C65.8429167,17.3495833 65.1820833,17.4958333 64.58625,17.7125 C63.9904167,17.9291667 63.5029167,18.2325 63.12375,18.6225 C62.7445833,19.0125 62.555,19.5108333 62.555,20.1175 C62.555,21.0058333 62.8529167,21.645 63.44875,22.035 C64.0445833,22.425 64.8516667,22.62 65.87,22.62 C66.6716667,22.62 67.3541667,22.4845833 67.9175,22.21375 C68.4808333,21.9429167 68.9358333,21.5908333 69.2825,21.1575 C69.6291667,20.7241667 69.8783333,20.2420833 70.03,19.71125 C70.1816667,19.1804167 70.2575,18.655 70.2575,18.135 L70.2575,17.16 L68.6975,17.16 Z" id="Shape"></path>
            <polygon id="Path" points="77.0725 0 79.9975 0 79.9975 24.57 77.0725 24.57"></polygon>
            <path d="M94.31,19.76 C94.8733333,20.605 95.59375,21.2279167 96.47125,21.62875 C97.34875,22.0295833 98.2533333,22.23 99.185,22.23 C99.705,22.23 100.235833,22.14875 100.7775,21.98625 C101.319167,21.82375 101.812083,21.58 102.25625,21.255 C102.700417,20.93 103.063333,20.5291667 103.345,20.0525 C103.626667,19.5758333 103.7675,19.0233333 103.7675,18.395 C103.7675,17.5066667 103.485833,16.8295833 102.9225,16.36375 C102.359167,15.8979167 101.660417,15.5079167 100.82625,15.19375 C99.9920833,14.8795833 99.0820833,14.57625 98.09625,14.28375 C97.1104167,13.99125 96.2004167,13.585 95.36625,13.065 C94.5320833,12.545 93.8333333,11.84625 93.27,10.96875 C92.7066667,10.09125 92.425,8.905 92.425,7.41 C92.425,6.73833333 92.57125,6.02333333 92.86375,5.265 C93.15625,4.50666667 93.6166667,3.81333333 94.245,3.185 C94.8733333,2.55666667 95.6804167,2.03125 96.66625,1.60875 C97.6520833,1.18625 98.8383333,0.975 100.225,0.975 C101.481667,0.975 102.684167,1.14833333 103.8325,1.495 C104.980833,1.84166667 105.988333,2.54583333 106.855,3.6075 L104.32,5.915 C103.93,5.30833333 103.3775,4.82083333 102.6625,4.4525 C101.9475,4.08416667 101.135,3.9 100.225,3.9 C99.3583333,3.9 98.6379167,4.01375 98.06375,4.24125 C97.4895833,4.46875 97.0291667,4.76125 96.6825,5.11875 C96.3358333,5.47625 96.0920833,5.86083333 95.95125,6.2725 C95.8104167,6.68416667 95.74,7.06333333 95.74,7.41 C95.74,8.385 96.0216667,9.1325 96.585,9.6525 C97.1483333,10.1725 97.8470833,10.595 98.68125,10.92 C99.5154167,11.245 100.425417,11.5375 101.41125,11.7975 C102.397083,12.0575 103.307083,12.4204167 104.14125,12.88625 C104.975417,13.3520833 105.674167,13.9804167 106.2375,14.77125 C106.800833,15.5620833 107.0825,16.6508333 107.0825,18.0375 C107.0825,19.1425 106.87125,20.1391667 106.44875,21.0275 C106.02625,21.9158333 105.4575,22.6633333 104.7425,23.27 C104.0275,23.8766667 103.1825,24.3425 102.2075,24.6675 C101.2325,24.9925 100.1925,25.155 99.0875,25.155 C97.6141667,25.155 96.2166667,24.895 94.895,24.375 C93.5733333,23.855 92.5225,23.0533333 91.7425,21.97 L94.31,19.76 Z" id="Path"></path>
            <path d="M112.76,17.94 C112.76,18.6116667 112.90625,19.22375 113.19875,19.77625 C113.49125,20.32875 113.875833,20.8 114.3525,21.19 C114.829167,21.58 115.381667,21.8833333 116.01,22.1 C116.638333,22.3166667 117.288333,22.425 117.96,22.425 C118.87,22.425 119.660833,22.21375 120.3325,21.79125 C121.004167,21.36875 121.621667,20.8108333 122.185,20.1175 L124.395,21.8075 C122.77,23.9091667 120.495,24.96 117.57,24.96 C116.356667,24.96 115.257083,24.7541667 114.27125,24.3425 C113.285417,23.9308333 112.45125,23.3620833 111.76875,22.63625 C111.08625,21.9104167 110.560833,21.0545833 110.1925,20.06875 C109.824167,19.0829167 109.64,18.0158333 109.64,16.8675 C109.64,15.7191667 109.840417,14.6520833 110.24125,13.66625 C110.642083,12.6804167 111.194583,11.8245833 111.89875,11.09875 C112.602917,10.3729167 113.4425,9.80416667 114.4175,9.3925 C115.3925,8.98083333 116.454167,8.775 117.6025,8.775 C118.9675,8.775 120.12125,9.01333333 121.06375,9.49 C122.00625,9.96666667 122.780833,10.5895833 123.3875,11.35875 C123.994167,12.1279167 124.432917,12.9945833 124.70375,13.95875 C124.974583,14.9229167 125.11,15.9033333 125.11,16.9 L125.11,17.94 L112.76,17.94 Z M121.99,15.6 C121.968333,14.95 121.865417,14.3541667 121.68125,13.8125 C121.497083,13.2708333 121.220833,12.7995833 120.8525,12.39875 C120.484167,11.9979167 120.02375,11.68375 119.47125,11.45625 C118.91875,11.22875 118.274167,11.115 117.5375,11.115 C116.8225,11.115 116.167083,11.2504167 115.57125,11.52125 C114.975417,11.7920833 114.471667,12.1441667 114.06,12.5775 C113.648333,13.0108333 113.32875,13.4929167 113.10125,14.02375 C112.87375,14.5545833 112.76,15.08 112.76,15.6 L121.99,15.6 Z" id="Shape"></path>
            <path d="M139.2375,13.26 C138.695833,12.6966667 138.127083,12.26875 137.53125,11.97625 C136.935417,11.68375 136.225833,11.5375 135.4025,11.5375 C134.600833,11.5375 133.902083,11.68375 133.30625,11.97625 C132.710417,12.26875 132.212083,12.6695833 131.81125,13.17875 C131.410417,13.6879167 131.107083,14.2729167 130.90125,14.93375 C130.695417,15.5945833 130.5925,16.2825 130.5925,16.9975 C130.5925,17.7125 130.711667,18.3895833 130.95,19.02875 C131.188333,19.6679167 131.524167,20.2258333 131.9575,20.7025 C132.390833,21.1791667 132.910833,21.5529167 133.5175,21.82375 C134.124167,22.0945833 134.806667,22.23 135.565,22.23 C136.388333,22.23 137.0925,22.08375 137.6775,21.79125 C138.2625,21.49875 138.804167,21.0708333 139.3025,20.5075 L141.3825,22.5875 C140.624167,23.4325 139.74125,24.0391667 138.73375,24.4075 C137.72625,24.7758333 136.659167,24.96 135.5325,24.96 C134.340833,24.96 133.252083,24.765 132.26625,24.375 C131.280417,23.985 130.43,23.4379167 129.715,22.73375 C129,22.0295833 128.4475,21.1845833 128.0575,20.19875 C127.6675,19.2129167 127.4725,18.1241667 127.4725,16.9325 C127.4725,15.7408333 127.6675,14.6466667 128.0575,13.65 C128.4475,12.6533333 128.994583,11.7975 129.69875,11.0825 C130.402917,10.3675 131.247917,9.80958333 132.23375,9.40875 C133.219583,9.00791667 134.319167,8.8075 135.5325,8.8075 C136.659167,8.8075 137.737083,9.00791667 138.76625,9.40875 C139.795417,9.80958333 140.689167,10.4216667 141.4475,11.245 L139.2375,13.26 Z" id="Path"></path>
            <path d="M157.135,24.57 L154.21,24.57 L154.21,22.1975 L154.145,22.1975 C153.776667,23.0208333 153.1375,23.6870833 152.2275,24.19625 C151.3175,24.7054167 150.266667,24.96 149.075,24.96 C148.316667,24.96 147.601667,24.84625 146.93,24.61875 C146.258333,24.39125 145.667917,24.0391667 145.15875,23.5625 C144.649583,23.0858333 144.243333,22.47375 143.94,21.72625 C143.636667,20.97875 143.485,20.0958333 143.485,19.0775 L143.485,9.165 L146.41,9.165 L146.41,18.265 C146.41,18.98 146.5075,19.5920833 146.7025,20.10125 C146.8975,20.6104167 147.1575,21.0220833 147.4825,21.33625 C147.8075,21.6504167 148.18125,21.8779167 148.60375,22.01875 C149.02625,22.1595833 149.465,22.23 149.92,22.23 C150.526667,22.23 151.09,22.1325 151.61,21.9375 C152.13,21.7425 152.585,21.43375 152.975,21.01125 C153.365,20.58875 153.668333,20.0525 153.885,19.4025 C154.101667,18.7525 154.21,17.9833333 154.21,17.095 L154.21,9.165 L157.135,9.165 L157.135,24.57 Z" id="Path"></path>
            <path d="M161.155,9.165 L164.08,9.165 L164.08,11.5375 L164.145,11.5375 C164.34,11.1258333 164.6,10.7520833 164.925,10.41625 C165.25,10.0804167 165.612917,9.79333333 166.01375,9.555 C166.414583,9.31666667 166.853333,9.12708333 167.33,8.98625 C167.806667,8.84541667 168.283333,8.775 168.76,8.775 C169.236667,8.775 169.67,8.84 170.06,8.97 L169.93,12.1225 C169.691667,12.0575 169.453333,12.0033333 169.215,11.96 C168.976667,11.9166667 168.738333,11.895 168.5,11.895 C167.07,11.895 165.975833,12.2958333 165.2175,13.0975 C164.459167,13.8991667 164.08,15.145 164.08,16.835 L164.08,24.57 L161.155,24.57 L161.155,9.165 Z" id="Path"></path>
            <path d="M173.0075,9.165 L175.9325,9.165 L175.9325,24.57 L173.0075,24.57 L173.0075,9.165 Z M172.325,3.64 C172.325,3.055 172.53625,2.55125 172.95875,2.12875 C173.38125,1.70625 173.885,1.495 174.47,1.495 C175.055,1.495 175.55875,1.70625 175.98125,2.12875 C176.40375,2.55125 176.615,3.055 176.615,3.64 C176.615,4.225 176.40375,4.72875 175.98125,5.15125 C175.55875,5.57375 175.055,5.785 174.47,5.785 C173.885,5.785 173.38125,5.57375 172.95875,5.15125 C172.53625,4.72875 172.325,4.225 172.325,3.64 Z" id="Shape"></path>
            <path d="M188.435,11.7 L184.2425,11.7 L184.2425,18.6875 C184.2425,19.1208333 184.253333,19.54875 184.275,19.97125 C184.296667,20.39375 184.377917,20.7729167 184.51875,21.10875 C184.659583,21.4445833 184.87625,21.7154167 185.16875,21.92125 C185.46125,22.1270833 185.889167,22.23 186.4525,22.23 C186.799167,22.23 187.156667,22.1975 187.525,22.1325 C187.893333,22.0675 188.229167,21.9483333 188.5325,21.775 L188.5325,24.44 C188.185833,24.635 187.73625,24.7704167 187.18375,24.84625 C186.63125,24.9220833 186.203333,24.96 185.9,24.96 C184.773333,24.96 183.90125,24.8029167 183.28375,24.48875 C182.66625,24.1745833 182.21125,23.7683333 181.91875,23.27 C181.62625,22.7716667 181.452917,22.21375 181.39875,21.59625 C181.344583,20.97875 181.3175,20.3558333 181.3175,19.7275 L181.3175,11.7 L177.9375,11.7 L177.9375,9.165 L181.3175,9.165 L181.3175,4.8425 L184.2425,4.8425 L184.2425,9.165 L188.435,9.165 L188.435,11.7 Z" id="Path"></path>
            <path d="M189.9525,9.165 L193.3325,9.165 L197.915,21.19 L197.98,21.19 L202.335,9.165 L205.4875,9.165 L198.175,27.885 C197.915,28.5566667 197.644167,29.16875 197.3625,29.72125 C197.080833,30.27375 196.745,30.745 196.355,31.135 C195.965,31.525 195.49375,31.8283333 194.94125,32.045 C194.38875,32.2616667 193.711667,32.37 192.91,32.37 C192.476667,32.37 192.037917,32.3429167 191.59375,32.28875 C191.149583,32.2345833 190.721667,32.1208333 190.31,31.9475 L190.6675,29.2825 C191.2525,29.5208333 191.8375,29.64 192.4225,29.64 C192.8775,29.64 193.262083,29.5804167 193.57625,29.46125 C193.890417,29.3420833 194.16125,29.16875 194.38875,28.94125 C194.61625,28.71375 194.805833,28.4483333 194.9575,28.145 C195.109167,27.8416667 195.260833,27.495 195.4125,27.105 L196.355,24.6675 L189.9525,9.165 Z" id="Path"></path>
            <path d="M2.5675,54.76 C3.13083333,55.605 3.85125,56.2279167 4.72875,56.62875 C5.60625,57.0295833 6.51083333,57.23 7.4425,57.23 C7.9625,57.23 8.49333333,57.14875 9.035,56.98625 C9.57666667,56.82375 10.0695833,56.58 10.51375,56.255 C10.9579167,55.93 11.3208333,55.5291667 11.6025,55.0525 C11.8841667,54.5758333 12.025,54.0233333 12.025,53.395 C12.025,52.5066667 11.7433333,51.8295833 11.18,51.36375 C10.6166667,50.8979167 9.91791667,50.5079167 9.08375,50.19375 C8.24958333,49.8795833 7.33958333,49.57625 6.35375,49.28375 C5.36791667,48.99125 4.45791667,48.585 3.62375,48.065 C2.78958333,47.545 2.09083333,46.84625 1.5275,45.96875 C0.964166667,45.09125 0.6825,43.905 0.6825,42.41 C0.6825,41.7383333 0.82875,41.0233333 1.12125,40.265 C1.41375,39.5066667 1.87416667,38.8133333 2.5025,38.185 C3.13083333,37.5566667 3.93791667,37.03125 4.92375,36.60875 C5.90958333,36.18625 7.09583333,35.975 8.4825,35.975 C9.73916667,35.975 10.9416667,36.1483333 12.09,36.495 C13.2383333,36.8416667 14.2458333,37.5458333 15.1125,38.6075 L12.5775,40.915 C12.1875,40.3083333 11.635,39.8208333 10.92,39.4525 C10.205,39.0841667 9.3925,38.9 8.4825,38.9 C7.61583333,38.9 6.89541667,39.01375 6.32125,39.24125 C5.74708333,39.46875 5.28666667,39.76125 4.94,40.11875 C4.59333333,40.47625 4.34958333,40.8608333 4.20875,41.2725 C4.06791667,41.6841667 3.9975,42.0633333 3.9975,42.41 C3.9975,43.385 4.27916667,44.1325 4.8425,44.6525 C5.40583333,45.1725 6.10458333,45.595 6.93875,45.92 C7.77291667,46.245 8.68291667,46.5375 9.66875,46.7975 C10.6545833,47.0575 11.5645833,47.4204167 12.39875,47.88625 C13.2329167,48.3520833 13.9316667,48.9804167 14.495,49.77125 C15.0583333,50.5620833 15.34,51.6508333 15.34,53.0375 C15.34,54.1425 15.12875,55.1391667 14.70625,56.0275 C14.28375,56.9158333 13.715,57.6633333 13,58.27 C12.285,58.8766667 11.44,59.3425 10.465,59.6675 C9.49,59.9925 8.45,60.155 7.345,60.155 C5.87166667,60.155 4.47416667,59.895 3.1525,59.375 C1.83083333,58.855 0.78,58.0533333 4.54747351e-13,56.97 L2.5675,54.76 Z" id="Path"></path>
            <path d="M29.825,48.26 C29.2833333,47.6966667 28.7145833,47.26875 28.11875,46.97625 C27.5229167,46.68375 26.8133333,46.5375 25.99,46.5375 C25.1883333,46.5375 24.4895833,46.68375 23.89375,46.97625 C23.2979167,47.26875 22.7995833,47.6695833 22.39875,48.17875 C21.9979167,48.6879167 21.6945833,49.2729167 21.48875,49.93375 C21.2829167,50.5945833 21.18,51.2825 21.18,51.9975 C21.18,52.7125 21.2991667,53.3895833 21.5375,54.02875 C21.7758333,54.6679167 22.1116667,55.2258333 22.545,55.7025 C22.9783333,56.1791667 23.4983333,56.5529167 24.105,56.82375 C24.7116667,57.0945833 25.3941667,57.23 26.1525,57.23 C26.9758333,57.23 27.68,57.08375 28.265,56.79125 C28.85,56.49875 29.3916667,56.0708333 29.89,55.5075 L31.97,57.5875 C31.2116667,58.4325 30.32875,59.0391667 29.32125,59.4075 C28.31375,59.7758333 27.2466667,59.96 26.12,59.96 C24.9283333,59.96 23.8395833,59.765 22.85375,59.375 C21.8679167,58.985 21.0175,58.4379167 20.3025,57.73375 C19.5875,57.0295833 19.035,56.1845833 18.645,55.19875 C18.255,54.2129167 18.06,53.1241667 18.06,51.9325 C18.06,50.7408333 18.255,49.6466667 18.645,48.65 C19.035,47.6533333 19.5820833,46.7975 20.28625,46.0825 C20.9904167,45.3675 21.8354167,44.8095833 22.82125,44.40875 C23.8070833,44.0079167 24.9066667,43.8075 26.12,43.8075 C27.2466667,43.8075 28.3245833,44.0079167 29.35375,44.40875 C30.3829167,44.8095833 31.2766667,45.4216667 32.035,46.245 L29.825,48.26 Z" id="Path"></path>
            <path d="M36.445,51.8675 C36.445,52.6475 36.5641667,53.3679167 36.8025,54.02875 C37.0408333,54.6895833 37.3766667,55.2529167 37.81,55.71875 C38.2433333,56.1845833 38.7741667,56.5529167 39.4025,56.82375 C40.0308333,57.0945833 40.735,57.23 41.515,57.23 C42.295,57.23 42.9991667,57.0945833 43.6275,56.82375 C44.2558333,56.5529167 44.7866667,56.1845833 45.22,55.71875 C45.6533333,55.2529167 45.9891667,54.6895833 46.2275,54.02875 C46.4658333,53.3679167 46.585,52.6475 46.585,51.8675 C46.585,51.0875 46.4658333,50.3670833 46.2275,49.70625 C45.9891667,49.0454167 45.6533333,48.4820833 45.22,48.01625 C44.7866667,47.5504167 44.2558333,47.1820833 43.6275,46.91125 C42.9991667,46.6404167 42.295,46.505 41.515,46.505 C40.735,46.505 40.0308333,46.6404167 39.4025,46.91125 C38.7741667,47.1820833 38.2433333,47.5504167 37.81,48.01625 C37.3766667,48.4820833 37.0408333,49.0454167 36.8025,49.70625 C36.5641667,50.3670833 36.445,51.0875 36.445,51.8675 Z M33.325,51.8675 C33.325,50.7408333 33.53625,49.69 33.95875,48.715 C34.38125,47.74 34.9608333,46.8841667 35.6975,46.1475 C36.4341667,45.4108333 37.3008333,44.83125 38.2975,44.40875 C39.2941667,43.98625 40.3666667,43.775 41.515,43.775 C42.6633333,43.775 43.7358333,43.98625 44.7325,44.40875 C45.7291667,44.83125 46.5958333,45.4108333 47.3325,46.1475 C48.0691667,46.8841667 48.64875,47.74 49.07125,48.715 C49.49375,49.69 49.705,50.7408333 49.705,51.8675 C49.705,52.9941667 49.49375,54.0504167 49.07125,55.03625 C48.64875,56.0220833 48.0691667,56.8779167 47.3325,57.60375 C46.5958333,58.3295833 45.7291667,58.90375 44.7325,59.32625 C43.7358333,59.74875 42.6633333,59.96 41.515,59.96 C40.3666667,59.96 39.2941667,59.74875 38.2975,59.32625 C37.3008333,58.90375 36.4341667,58.3295833 35.6975,57.60375 C34.9608333,56.8779167 34.38125,56.0220833 33.95875,55.03625 C33.53625,54.0504167 33.325,52.9941667 33.325,51.8675 Z" id="Shape"></path>
            <path d="M61.2325,46.7 L57.04,46.7 L57.04,53.6875 C57.04,54.1208333 57.0508333,54.54875 57.0725,54.97125 C57.0941667,55.39375 57.1754167,55.7729167 57.31625,56.10875 C57.4570833,56.4445833 57.67375,56.7154167 57.96625,56.92125 C58.25875,57.1270833 58.6866667,57.23 59.25,57.23 C59.5966667,57.23 59.9541667,57.1975 60.3225,57.1325 C60.6908333,57.0675 61.0266667,56.9483333 61.33,56.775 L61.33,59.44 C60.9833333,59.635 60.53375,59.7704167 59.98125,59.84625 C59.42875,59.9220833 59.0008333,59.96 58.6975,59.96 C57.5708333,59.96 56.69875,59.8029167 56.08125,59.48875 C55.46375,59.1745833 55.00875,58.7683333 54.71625,58.27 C54.42375,57.7716667 54.2504167,57.21375 54.19625,56.59625 C54.1420833,55.97875 54.115,55.3558333 54.115,54.7275 L54.115,46.7 L50.735,46.7 L50.735,44.165 L54.115,44.165 L54.115,39.8425 L57.04,39.8425 L57.04,44.165 L61.2325,44.165 L61.2325,46.7 Z" id="Path"></path>
            <polygon id="Path" points="64.83 35 67.755 35 67.755 59.57 64.83 59.57"></polygon>
            <path d="M72.0675,46.05 C72.8908333,45.2916667 73.8441667,44.7229167 74.9275,44.34375 C76.0108333,43.9645833 77.0941667,43.775 78.1775,43.775 C79.3041667,43.775 80.27375,43.9158333 81.08625,44.1975 C81.89875,44.4791667 82.565,44.8583333 83.085,45.335 C83.605,45.8116667 83.9895833,46.35875 84.23875,46.97625 C84.4879167,47.59375 84.6125,48.2383333 84.6125,48.91 L84.6125,56.775 C84.6125,57.3166667 84.6233333,57.815 84.645,58.27 C84.6666667,58.725 84.6991667,59.1583333 84.7425,59.57 L82.1425,59.57 C82.0775,58.79 82.045,58.01 82.045,57.23 L81.98,57.23 C81.33,58.2266667 80.5608333,58.9308333 79.6725,59.3425 C78.7841667,59.7541667 77.755,59.96 76.585,59.96 C75.87,59.96 75.1875,59.8625 74.5375,59.6675 C73.8875,59.4725 73.31875,59.18 72.83125,58.79 C72.34375,58.4 71.9591667,57.9179167 71.6775,57.34375 C71.3958333,56.7695833 71.255,56.1033333 71.255,55.345 C71.255,54.3483333 71.4770833,53.5141667 71.92125,52.8425 C72.3654167,52.1708333 72.9720833,51.62375 73.74125,51.20125 C74.5104167,50.77875 75.4095833,50.4754167 76.43875,50.29125 C77.4679167,50.1070833 78.5675,50.015 79.7375,50.015 L81.8825,50.015 L81.8825,49.365 C81.8825,48.975 81.8066667,48.585 81.655,48.195 C81.5033333,47.805 81.2758333,47.4529167 80.9725,47.13875 C80.6691667,46.8245833 80.29,46.5754167 79.835,46.39125 C79.38,46.2070833 78.8383333,46.115 78.21,46.115 C77.6466667,46.115 77.15375,46.1691667 76.73125,46.2775 C76.30875,46.3858333 75.9241667,46.52125 75.5775,46.68375 C75.2308333,46.84625 74.9166667,47.0358333 74.635,47.2525 C74.3533333,47.4691667 74.0825,47.675 73.8225,47.87 L72.0675,46.05 Z M80.3225,52.16 C79.6291667,52.16 78.9195833,52.1979167 78.19375,52.27375 C77.4679167,52.3495833 76.8070833,52.4958333 76.21125,52.7125 C75.6154167,52.9291667 75.1279167,53.2325 74.74875,53.6225 C74.3695833,54.0125 74.18,54.5108333 74.18,55.1175 C74.18,56.0058333 74.4779167,56.645 75.07375,57.035 C75.6695833,57.425 76.4766667,57.62 77.495,57.62 C78.2966667,57.62 78.9791667,57.4845833 79.5425,57.21375 C80.1058333,56.9429167 80.5608333,56.5908333 80.9075,56.1575 C81.2541667,55.7241667 81.5033333,55.2420833 81.655,54.71125 C81.8066667,54.1804167 81.8825,53.655 81.8825,53.135 L81.8825,52.16 L80.3225,52.16 Z" id="Shape"></path>
            <path d="M88.47,44.165 L91.395,44.165 L91.395,46.5375 L91.46,46.5375 C91.8283333,45.7141667 92.4675,45.0479167 93.3775,44.53875 C94.2875,44.0295833 95.3383333,43.775 96.53,43.775 C97.2666667,43.775 97.97625,43.88875 98.65875,44.11625 C99.34125,44.34375 99.9370833,44.6958333 100.44625,45.1725 C100.955417,45.6491667 101.361667,46.26125 101.665,47.00875 C101.968333,47.75625 102.12,48.6391667 102.12,49.6575 L102.12,59.57 L99.195,59.57 L99.195,50.47 C99.195,49.755 99.0975,49.1429167 98.9025,48.63375 C98.7075,48.1245833 98.4475,47.7129167 98.1225,47.39875 C97.7975,47.0845833 97.42375,46.8570833 97.00125,46.71625 C96.57875,46.5754167 96.14,46.505 95.685,46.505 C95.0783333,46.505 94.515,46.6025 93.995,46.7975 C93.475,46.9925 93.02,47.30125 92.63,47.72375 C92.24,48.14625 91.9366667,48.6825 91.72,49.3325 C91.5033333,49.9825 91.395,50.7516667 91.395,51.64 L91.395,59.57 L88.47,59.57 L88.47,44.165 Z" id="Path"></path>
            <path d="M121.5775,59.57 L118.6525,59.57 L118.6525,57.36 L118.5875,57.36 C118.024167,58.1833333 117.249583,58.8225 116.26375,59.2775 C115.277917,59.7325 114.265,59.96 113.225,59.96 C112.033333,59.96 110.955417,59.7541667 109.99125,59.3425 C109.027083,58.9308333 108.20375,58.3566667 107.52125,57.62 C106.83875,56.8833333 106.313333,56.0275 105.945,55.0525 C105.576667,54.0775 105.3925,53.0158333 105.3925,51.8675 C105.3925,50.7191667 105.576667,49.6520833 105.945,48.66625 C106.313333,47.6804167 106.83875,46.8245833 107.52125,46.09875 C108.20375,45.3729167 109.027083,44.8041667 109.99125,44.3925 C110.955417,43.9808333 112.033333,43.775 113.225,43.775 C114.33,43.775 115.37,44.0079167 116.345,44.47375 C117.32,44.9395833 118.0675,45.5733333 118.5875,46.375 L118.6525,46.375 L118.6525,35 L121.5775,35 L121.5775,59.57 Z M113.5825,57.23 C114.3625,57.23 115.066667,57.0945833 115.695,56.82375 C116.323333,56.5529167 116.854167,56.1845833 117.2875,55.71875 C117.720833,55.2529167 118.056667,54.6895833 118.295,54.02875 C118.533333,53.3679167 118.6525,52.6475 118.6525,51.8675 C118.6525,51.0875 118.533333,50.3670833 118.295,49.70625 C118.056667,49.0454167 117.720833,48.4820833 117.2875,48.01625 C116.854167,47.5504167 116.323333,47.1820833 115.695,46.91125 C115.066667,46.6404167 114.3625,46.505 113.5825,46.505 C112.8025,46.505 112.098333,46.6404167 111.47,46.91125 C110.841667,47.1820833 110.310833,47.5504167 109.8775,48.01625 C109.444167,48.4820833 109.108333,49.0454167 108.87,49.70625 C108.631667,50.3670833 108.5125,51.0875 108.5125,51.8675 C108.5125,52.6475 108.631667,53.3679167 108.87,54.02875 C109.108333,54.6895833 109.444167,55.2529167 109.8775,55.71875 C110.310833,56.1845833 110.841667,56.5529167 111.47,56.82375 C112.098333,57.0945833 112.8025,57.23 113.5825,57.23 Z" id="Shape"></path>
        </g>
        <g id="Tèarainteachd-Shòise" transform="translate(78.576, 97.604)" fill="#FF2891" fill-rule="nonzero">
            <polygon id="Path" points="3.648 2.208 0 2.208 0 0.768 8.832 0.768 8.832 2.208 5.184 2.208 5.184 12.096 3.648 12.096"></polygon>
            <path d="M8.958,8.832 C8.958,9.16266667 9.03,9.464 9.174,9.736 C9.318,10.008 9.50733333,10.24 9.742,10.432 C9.97666667,10.624 10.2486667,10.7733333 10.558,10.88 C10.8673333,10.9866667 11.1873333,11.04 11.518,11.04 C11.966,11.04 12.3553333,10.936 12.686,10.728 C13.0166667,10.52 13.3206667,10.2453333 13.598,9.904 L14.686,10.736 C13.886,11.7706667 12.766,12.288 11.326,12.288 C10.7286667,12.288 10.1873333,12.1866667 9.702,11.984 C9.21666667,11.7813333 8.806,11.5013333 8.47,11.144 C8.134,10.7866667 7.87533333,10.3653333 7.694,9.88 C7.51266667,9.39466667 7.422,8.86933333 7.422,8.304 C7.422,7.73866667 7.52066667,7.21333333 7.718,6.728 C7.91533333,6.24266667 8.18733333,5.82133333 8.534,5.464 C8.88066667,5.10666667 9.294,4.82666667 9.774,4.624 C10.254,4.42133333 10.7766667,4.32 11.342,4.32 C12.014,4.32 12.582,4.43733333 13.046,4.672 C13.51,4.90666667 13.8913333,5.21333333 14.19,5.592 C14.4886667,5.97066667 14.7046667,6.39733333 14.838,6.872 C14.9713333,7.34666667 15.038,7.82933333 15.038,8.32 L15.038,8.832 L8.958,8.832 Z M13.502,7.68 C13.4913333,7.36 13.4406667,7.06666667 13.35,6.8 C13.2593333,6.53333333 13.1233333,6.30133333 12.942,6.104 C12.7606667,5.90666667 12.534,5.752 12.262,5.64 C11.99,5.528 11.6726667,5.472 11.31,5.472 C10.958,5.472 10.6353333,5.53866667 10.342,5.672 C10.0486667,5.80533333 9.80066667,5.97866667 9.598,6.192 C9.39533333,6.40533333 9.238,6.64266667 9.126,6.904 C9.014,7.16533333 8.958,7.424 8.958,7.68 L13.502,7.68 Z M12.286,3.072 L10.958,3.072 L8.574,0.768 L10.622,0.768 L12.286,3.072 Z" id="Shape"></path>
            <path d="M16.348,5.44 C16.7533333,5.06666667 17.2226667,4.78666667 17.756,4.6 C18.2893333,4.41333333 18.8226667,4.32 19.356,4.32 C19.9106667,4.32 20.388,4.38933333 20.788,4.528 C21.188,4.66666667 21.516,4.85333333 21.772,5.088 C22.028,5.32266667 22.2173333,5.592 22.34,5.896 C22.4626667,6.2 22.524,6.51733333 22.524,6.848 L22.524,10.72 C22.524,10.9866667 22.5293333,11.232 22.54,11.456 C22.5506667,11.68 22.5666667,11.8933333 22.588,12.096 L21.308,12.096 C21.276,11.712 21.26,11.328 21.26,10.944 L21.228,10.944 C20.908,11.4346667 20.5293333,11.7813333 20.092,11.984 C19.6546667,12.1866667 19.148,12.288 18.572,12.288 C18.22,12.288 17.884,12.24 17.564,12.144 C17.244,12.048 16.964,11.904 16.724,11.712 C16.484,11.52 16.2946667,11.2826667 16.156,11 C16.0173333,10.7173333 15.948,10.3893333 15.948,10.016 C15.948,9.52533333 16.0573333,9.11466667 16.276,8.784 C16.4946667,8.45333333 16.7933333,8.184 17.172,7.976 C17.5506667,7.768 17.9933333,7.61866667 18.5,7.528 C19.0066667,7.43733333 19.548,7.392 20.124,7.392 L21.18,7.392 L21.18,7.072 C21.18,6.88 21.1426667,6.688 21.068,6.496 C20.9933333,6.304 20.8813333,6.13066667 20.732,5.976 C20.5826667,5.82133333 20.396,5.69866667 20.172,5.608 C19.948,5.51733333 19.6813333,5.472 19.372,5.472 C19.0946667,5.472 18.852,5.49866667 18.644,5.552 C18.436,5.60533333 18.2466667,5.672 18.076,5.752 C17.9053333,5.832 17.7506667,5.92533333 17.612,6.032 C17.4733333,6.13866667 17.34,6.24 17.212,6.336 L16.348,5.44 Z M20.412,8.448 C20.0706667,8.448 19.7213333,8.46666667 19.364,8.504 C19.0066667,8.54133333 18.6813333,8.61333333 18.388,8.72 C18.0946667,8.82666667 17.8546667,8.976 17.668,9.168 C17.4813333,9.36 17.388,9.60533333 17.388,9.904 C17.388,10.3413333 17.5346667,10.656 17.828,10.848 C18.1213333,11.04 18.5186667,11.136 19.02,11.136 C19.4146667,11.136 19.7506667,11.0693333 20.028,10.936 C20.3053333,10.8026667 20.5293333,10.6293333 20.7,10.416 C20.8706667,10.2026667 20.9933333,9.96533333 21.068,9.704 C21.1426667,9.44266667 21.18,9.184 21.18,8.928 L21.18,8.448 L20.412,8.448 Z" id="Shape"></path>
            <path d="M24.17,4.512 L25.61,4.512 L25.61,5.68 L25.642,5.68 C25.738,5.47733333 25.866,5.29333333 26.026,5.128 C26.186,4.96266667 26.3646667,4.82133333 26.562,4.704 C26.7593333,4.58666667 26.9753333,4.49333333 27.21,4.424 C27.4446667,4.35466667 27.6793333,4.32 27.914,4.32 C28.1486667,4.32 28.362,4.352 28.554,4.416 L28.49,5.968 C28.3726667,5.936 28.2553333,5.90933333 28.138,5.888 C28.0206667,5.86666667 27.9033333,5.856 27.786,5.856 C27.082,5.856 26.5433333,6.05333333 26.17,6.448 C25.7966667,6.84266667 25.61,7.456 25.61,8.288 L25.61,12.096 L24.17,12.096 L24.17,4.512 Z" id="Path"></path>
            <path d="M29.672,5.44 C30.0773333,5.06666667 30.5466667,4.78666667 31.08,4.6 C31.6133333,4.41333333 32.1466667,4.32 32.68,4.32 C33.2346667,4.32 33.712,4.38933333 34.112,4.528 C34.512,4.66666667 34.84,4.85333333 35.096,5.088 C35.352,5.32266667 35.5413333,5.592 35.664,5.896 C35.7866667,6.2 35.848,6.51733333 35.848,6.848 L35.848,10.72 C35.848,10.9866667 35.8533333,11.232 35.864,11.456 C35.8746667,11.68 35.8906667,11.8933333 35.912,12.096 L34.632,12.096 C34.6,11.712 34.584,11.328 34.584,10.944 L34.552,10.944 C34.232,11.4346667 33.8533333,11.7813333 33.416,11.984 C32.9786667,12.1866667 32.472,12.288 31.896,12.288 C31.544,12.288 31.208,12.24 30.888,12.144 C30.568,12.048 30.288,11.904 30.048,11.712 C29.808,11.52 29.6186667,11.2826667 29.48,11 C29.3413333,10.7173333 29.272,10.3893333 29.272,10.016 C29.272,9.52533333 29.3813333,9.11466667 29.6,8.784 C29.8186667,8.45333333 30.1173333,8.184 30.496,7.976 C30.8746667,7.768 31.3173333,7.61866667 31.824,7.528 C32.3306667,7.43733333 32.872,7.392 33.448,7.392 L34.504,7.392 L34.504,7.072 C34.504,6.88 34.4666667,6.688 34.392,6.496 C34.3173333,6.304 34.2053333,6.13066667 34.056,5.976 C33.9066667,5.82133333 33.72,5.69866667 33.496,5.608 C33.272,5.51733333 33.0053333,5.472 32.696,5.472 C32.4186667,5.472 32.176,5.49866667 31.968,5.552 C31.76,5.60533333 31.5706667,5.672 31.4,5.752 C31.2293333,5.832 31.0746667,5.92533333 30.936,6.032 C30.7973333,6.13866667 30.664,6.24 30.536,6.336 L29.672,5.44 Z M33.736,8.448 C33.3946667,8.448 33.0453333,8.46666667 32.688,8.504 C32.3306667,8.54133333 32.0053333,8.61333333 31.712,8.72 C31.4186667,8.82666667 31.1786667,8.976 30.992,9.168 C30.8053333,9.36 30.712,9.60533333 30.712,9.904 C30.712,10.3413333 30.8586667,10.656 31.152,10.848 C31.4453333,11.04 31.8426667,11.136 32.344,11.136 C32.7386667,11.136 33.0746667,11.0693333 33.352,10.936 C33.6293333,10.8026667 33.8533333,10.6293333 34.024,10.416 C34.1946667,10.2026667 34.3173333,9.96533333 34.392,9.704 C34.4666667,9.44266667 34.504,9.184 34.504,8.928 L34.504,8.448 L33.736,8.448 Z" id="Shape"></path>
            <path d="M37.606,4.512 L39.046,4.512 L39.046,12.096 L37.606,12.096 L37.606,4.512 Z M37.27,1.792 C37.27,1.504 37.374,1.256 37.582,1.048 C37.79,0.84 38.038,0.736 38.326,0.736 C38.614,0.736 38.862,0.84 39.07,1.048 C39.278,1.256 39.382,1.504 39.382,1.792 C39.382,2.08 39.278,2.328 39.07,2.536 C38.862,2.744 38.614,2.848 38.326,2.848 C38.038,2.848 37.79,2.744 37.582,2.536 C37.374,2.328 37.27,2.08 37.27,1.792 Z" id="Shape"></path>
            <path d="M40.884,4.512 L42.324,4.512 L42.324,5.68 L42.356,5.68 C42.5373333,5.27466667 42.852,4.94666667 43.3,4.696 C43.748,4.44533333 44.2653333,4.32 44.852,4.32 C45.2146667,4.32 45.564,4.376 45.9,4.488 C46.236,4.6 46.5293333,4.77333333 46.78,5.008 C47.0306667,5.24266667 47.2306667,5.544 47.38,5.912 C47.5293333,6.28 47.604,6.71466667 47.604,7.216 L47.604,12.096 L46.164,12.096 L46.164,7.616 C46.164,7.264 46.116,6.96266667 46.02,6.712 C45.924,6.46133333 45.796,6.25866667 45.636,6.104 C45.476,5.94933333 45.292,5.83733333 45.084,5.768 C44.876,5.69866667 44.66,5.664 44.436,5.664 C44.1373333,5.664 43.86,5.712 43.604,5.808 C43.348,5.904 43.124,6.056 42.932,6.264 C42.74,6.472 42.5906667,6.736 42.484,7.056 C42.3773333,7.376 42.324,7.75466667 42.324,8.192 L42.324,12.096 L40.884,12.096 L40.884,4.512 Z" id="Path"></path>
            <path d="M53.394,5.76 L51.33,5.76 L51.33,9.2 C51.33,9.41333333 51.3353333,9.624 51.346,9.832 C51.3566667,10.04 51.3966667,10.2266667 51.466,10.392 C51.5353333,10.5573333 51.642,10.6906667 51.786,10.792 C51.93,10.8933333 52.1406667,10.944 52.418,10.944 C52.5886667,10.944 52.7646667,10.928 52.946,10.896 C53.1273333,10.864 53.2926667,10.8053333 53.442,10.72 L53.442,12.032 C53.2713333,12.128 53.05,12.1946667 52.778,12.232 C52.506,12.2693333 52.2953333,12.288 52.146,12.288 C51.5913333,12.288 51.162,12.2106667 50.858,12.056 C50.554,11.9013333 50.33,11.7013333 50.186,11.456 C50.042,11.2106667 49.9566667,10.936 49.93,10.632 C49.9033333,10.328 49.89,10.0213333 49.89,9.712 L49.89,5.76 L48.226,5.76 L48.226,4.512 L49.89,4.512 L49.89,2.384 L51.33,2.384 L51.33,4.512 L53.394,4.512 L53.394,5.76 Z" id="Path"></path>
            <path d="M55.888,8.832 C55.888,9.16266667 55.96,9.464 56.104,9.736 C56.248,10.008 56.4373333,10.24 56.672,10.432 C56.9066667,10.624 57.1786667,10.7733333 57.488,10.88 C57.7973333,10.9866667 58.1173333,11.04 58.448,11.04 C58.896,11.04 59.2853333,10.936 59.616,10.728 C59.9466667,10.52 60.2506667,10.2453333 60.528,9.904 L61.616,10.736 C60.816,11.7706667 59.696,12.288 58.256,12.288 C57.6586667,12.288 57.1173333,12.1866667 56.632,11.984 C56.1466667,11.7813333 55.736,11.5013333 55.4,11.144 C55.064,10.7866667 54.8053333,10.3653333 54.624,9.88 C54.4426667,9.39466667 54.352,8.86933333 54.352,8.304 C54.352,7.73866667 54.4506667,7.21333333 54.648,6.728 C54.8453333,6.24266667 55.1173333,5.82133333 55.464,5.464 C55.8106667,5.10666667 56.224,4.82666667 56.704,4.624 C57.184,4.42133333 57.7066667,4.32 58.272,4.32 C58.944,4.32 59.512,4.43733333 59.976,4.672 C60.44,4.90666667 60.8213333,5.21333333 61.12,5.592 C61.4186667,5.97066667 61.6346667,6.39733333 61.768,6.872 C61.9013333,7.34666667 61.968,7.82933333 61.968,8.32 L61.968,8.832 L55.888,8.832 Z M60.432,7.68 C60.4213333,7.36 60.3706667,7.06666667 60.28,6.8 C60.1893333,6.53333333 60.0533333,6.30133333 59.872,6.104 C59.6906667,5.90666667 59.464,5.752 59.192,5.64 C58.92,5.528 58.6026667,5.472 58.24,5.472 C57.888,5.472 57.5653333,5.53866667 57.272,5.672 C56.9786667,5.80533333 56.7306667,5.97866667 56.528,6.192 C56.3253333,6.40533333 56.168,6.64266667 56.056,6.904 C55.944,7.16533333 55.888,7.424 55.888,7.68 L60.432,7.68 Z" id="Shape"></path>
            <path d="M63.278,5.44 C63.6833333,5.06666667 64.1526667,4.78666667 64.686,4.6 C65.2193333,4.41333333 65.7526667,4.32 66.286,4.32 C66.8406667,4.32 67.318,4.38933333 67.718,4.528 C68.118,4.66666667 68.446,4.85333333 68.702,5.088 C68.958,5.32266667 69.1473333,5.592 69.27,5.896 C69.3926667,6.2 69.454,6.51733333 69.454,6.848 L69.454,10.72 C69.454,10.9866667 69.4593333,11.232 69.47,11.456 C69.4806667,11.68 69.4966667,11.8933333 69.518,12.096 L68.238,12.096 C68.206,11.712 68.19,11.328 68.19,10.944 L68.158,10.944 C67.838,11.4346667 67.4593333,11.7813333 67.022,11.984 C66.5846667,12.1866667 66.078,12.288 65.502,12.288 C65.15,12.288 64.814,12.24 64.494,12.144 C64.174,12.048 63.894,11.904 63.654,11.712 C63.414,11.52 63.2246667,11.2826667 63.086,11 C62.9473333,10.7173333 62.878,10.3893333 62.878,10.016 C62.878,9.52533333 62.9873333,9.11466667 63.206,8.784 C63.4246667,8.45333333 63.7233333,8.184 64.102,7.976 C64.4806667,7.768 64.9233333,7.61866667 65.43,7.528 C65.9366667,7.43733333 66.478,7.392 67.054,7.392 L68.11,7.392 L68.11,7.072 C68.11,6.88 68.0726667,6.688 67.998,6.496 C67.9233333,6.304 67.8113333,6.13066667 67.662,5.976 C67.5126667,5.82133333 67.326,5.69866667 67.102,5.608 C66.878,5.51733333 66.6113333,5.472 66.302,5.472 C66.0246667,5.472 65.782,5.49866667 65.574,5.552 C65.366,5.60533333 65.1766667,5.672 65.006,5.752 C64.8353333,5.832 64.6806667,5.92533333 64.542,6.032 C64.4033333,6.13866667 64.27,6.24 64.142,6.336 L63.278,5.44 Z M67.342,8.448 C67.0006667,8.448 66.6513333,8.46666667 66.294,8.504 C65.9366667,8.54133333 65.6113333,8.61333333 65.318,8.72 C65.0246667,8.82666667 64.7846667,8.976 64.598,9.168 C64.4113333,9.36 64.318,9.60533333 64.318,9.904 C64.318,10.3413333 64.4646667,10.656 64.758,10.848 C65.0513333,11.04 65.4486667,11.136 65.95,11.136 C66.3446667,11.136 66.6806667,11.0693333 66.958,10.936 C67.2353333,10.8026667 67.4593333,10.6293333 67.63,10.416 C67.8006667,10.2026667 67.9233333,9.96533333 67.998,9.704 C68.0726667,9.44266667 68.11,9.184 68.11,8.928 L68.11,8.448 L67.342,8.448 Z" id="Shape"></path>
            <path d="M76.524,6.528 C76.2573333,6.25066667 75.9773333,6.04 75.684,5.896 C75.3906667,5.752 75.0413333,5.68 74.636,5.68 C74.2413333,5.68 73.8973333,5.752 73.604,5.896 C73.3106667,6.04 73.0653333,6.23733333 72.868,6.488 C72.6706667,6.73866667 72.5213333,7.02666667 72.42,7.352 C72.3186667,7.67733333 72.268,8.016 72.268,8.368 C72.268,8.72 72.3266667,9.05333333 72.444,9.368 C72.5613333,9.68266667 72.7266667,9.95733333 72.94,10.192 C73.1533333,10.4266667 73.4093333,10.6106667 73.708,10.744 C74.0066667,10.8773333 74.3426667,10.944 74.716,10.944 C75.1213333,10.944 75.468,10.872 75.756,10.728 C76.044,10.584 76.3106667,10.3733333 76.556,10.096 L77.58,11.12 C77.2066667,11.536 76.772,11.8346667 76.276,12.016 C75.78,12.1973333 75.2546667,12.288 74.7,12.288 C74.1133333,12.288 73.5773333,12.192 73.092,12 C72.6066667,11.808 72.188,11.5386667 71.836,11.192 C71.484,10.8453333 71.212,10.4293333 71.02,9.944 C70.828,9.45866667 70.732,8.92266667 70.732,8.336 C70.732,7.74933333 70.828,7.21066667 71.02,6.72 C71.212,6.22933333 71.4813333,5.808 71.828,5.456 C72.1746667,5.104 72.5906667,4.82933333 73.076,4.632 C73.5613333,4.43466667 74.1026667,4.336 74.7,4.336 C75.2546667,4.336 75.7853333,4.43466667 76.292,4.632 C76.7986667,4.82933333 77.2386667,5.13066667 77.612,5.536 L76.524,6.528 Z" id="Path"></path>
            <path d="M78.362,0 L79.802,0 L79.802,5.68 L79.834,5.68 C80.0153333,5.27466667 80.33,4.94666667 80.778,4.696 C81.226,4.44533333 81.7433333,4.32 82.33,4.32 C82.6926667,4.32 83.042,4.376 83.378,4.488 C83.714,4.6 84.0073333,4.77333333 84.258,5.008 C84.5086667,5.24266667 84.7086667,5.544 84.858,5.912 C85.0073333,6.28 85.082,6.71466667 85.082,7.216 L85.082,12.096 L83.642,12.096 L83.642,7.616 C83.642,7.264 83.594,6.96266667 83.498,6.712 C83.402,6.46133333 83.274,6.25866667 83.114,6.104 C82.954,5.94933333 82.77,5.83733333 82.562,5.768 C82.354,5.69866667 82.138,5.664 81.914,5.664 C81.6153333,5.664 81.338,5.712 81.082,5.808 C80.826,5.904 80.602,6.056 80.41,6.264 C80.218,6.472 80.0686667,6.736 79.962,7.056 C79.8553333,7.376 79.802,7.75466667 79.802,8.192 L79.802,12.096 L78.362,12.096 L78.362,0 Z" id="Path"></path>
            <path d="M94.408,12.096 L92.968,12.096 L92.968,11.008 L92.936,11.008 C92.6586667,11.4133333 92.2773333,11.728 91.792,11.952 C91.3066667,12.176 90.808,12.288 90.296,12.288 C89.7093333,12.288 89.1786667,12.1866667 88.704,11.984 C88.2293333,11.7813333 87.824,11.4986667 87.488,11.136 C87.152,10.7733333 86.8933333,10.352 86.712,9.872 C86.5306667,9.392 86.44,8.86933333 86.44,8.304 C86.44,7.73866667 86.5306667,7.21333333 86.712,6.728 C86.8933333,6.24266667 87.152,5.82133333 87.488,5.464 C87.824,5.10666667 88.2293333,4.82666667 88.704,4.624 C89.1786667,4.42133333 89.7093333,4.32 90.296,4.32 C90.84,4.32 91.352,4.43466667 91.832,4.664 C92.312,4.89333333 92.68,5.20533333 92.936,5.6 L92.968,5.6 L92.968,0 L94.408,0 L94.408,12.096 Z M90.472,10.944 C90.856,10.944 91.2026667,10.8773333 91.512,10.744 C91.8213333,10.6106667 92.0826667,10.4293333 92.296,10.2 C92.5093333,9.97066667 92.6746667,9.69333333 92.792,9.368 C92.9093333,9.04266667 92.968,8.688 92.968,8.304 C92.968,7.92 92.9093333,7.56533333 92.792,7.24 C92.6746667,6.91466667 92.5093333,6.63733333 92.296,6.408 C92.0826667,6.17866667 91.8213333,5.99733333 91.512,5.864 C91.2026667,5.73066667 90.856,5.664 90.472,5.664 C90.088,5.664 89.7413333,5.73066667 89.432,5.864 C89.1226667,5.99733333 88.8613333,6.17866667 88.648,6.408 C88.4346667,6.63733333 88.2693333,6.91466667 88.152,7.24 C88.0346667,7.56533333 87.976,7.92 87.976,8.304 C87.976,8.688 88.0346667,9.04266667 88.152,9.368 C88.2693333,9.69333333 88.4346667,9.97066667 88.648,10.2 C88.8613333,10.4293333 89.1226667,10.6106667 89.432,10.744 C89.7413333,10.8773333 90.088,10.944 90.472,10.944 Z" id="Shape"></path>
            <path d="M100.836,9.728 C101.113333,10.144 101.468,10.4506667 101.9,10.648 C102.332,10.8453333 102.777333,10.944 103.236,10.944 C103.492,10.944 103.753333,10.904 104.02,10.824 C104.286667,10.744 104.529333,10.624 104.748,10.464 C104.966667,10.304 105.145333,10.1066667 105.284,9.872 C105.422667,9.63733333 105.492,9.36533333 105.492,9.056 C105.492,8.61866667 105.353333,8.28533333 105.076,8.056 C104.798667,7.82666667 104.454667,7.63466667 104.044,7.48 C103.633333,7.32533333 103.185333,7.176 102.7,7.032 C102.214667,6.888 101.766667,6.688 101.356,6.432 C100.945333,6.176 100.601333,5.832 100.324,5.4 C100.046667,4.968 99.908,4.384 99.908,3.648 C99.908,3.31733333 99.98,2.96533333 100.124,2.592 C100.268,2.21866667 100.494667,1.87733333 100.804,1.568 C101.113333,1.25866667 101.510667,1 101.996,0.792 C102.481333,0.584 103.065333,0.48 103.748,0.48 C104.366667,0.48 104.958667,0.565333333 105.524,0.736 C106.089333,0.906666667 106.585333,1.25333333 107.012,1.776 L105.764,2.912 C105.572,2.61333333 105.3,2.37333333 104.948,2.192 C104.596,2.01066667 104.196,1.92 103.748,1.92 C103.321333,1.92 102.966667,1.976 102.684,2.088 C102.401333,2.2 102.174667,2.344 102.004,2.52 C101.833333,2.696 101.713333,2.88533333 101.644,3.088 C101.574667,3.29066667 101.54,3.47733333 101.54,3.648 C101.54,4.128 101.678667,4.496 101.956,4.752 C102.233333,5.008 102.577333,5.216 102.988,5.376 C103.398667,5.536 103.846667,5.68 104.332,5.808 C104.817333,5.936 105.265333,6.11466667 105.676,6.344 C106.086667,6.57333333 106.430667,6.88266667 106.708,7.272 C106.985333,7.66133333 107.124,8.19733333 107.124,8.88 C107.124,9.424 107.02,9.91466667 106.812,10.352 C106.604,10.7893333 106.324,11.1573333 105.972,11.456 C105.62,11.7546667 105.204,11.984 104.724,12.144 C104.244,12.304 103.732,12.384 103.188,12.384 C102.462667,12.384 101.774667,12.256 101.124,12 C100.473333,11.744 99.956,11.3493333 99.572,10.816 L100.836,9.728 Z" id="Path"></path>
            <path d="M108.578,0 L110.018,0 L110.018,5.68 L110.05,5.68 C110.231333,5.27466667 110.546,4.94666667 110.994,4.696 C111.442,4.44533333 111.959333,4.32 112.546,4.32 C112.908667,4.32 113.258,4.376 113.594,4.488 C113.93,4.6 114.223333,4.77333333 114.474,5.008 C114.724667,5.24266667 114.924667,5.544 115.074,5.912 C115.223333,6.28 115.298,6.71466667 115.298,7.216 L115.298,12.096 L113.858,12.096 L113.858,7.616 C113.858,7.264 113.81,6.96266667 113.714,6.712 C113.618,6.46133333 113.49,6.25866667 113.33,6.104 C113.17,5.94933333 112.986,5.83733333 112.778,5.768 C112.57,5.69866667 112.354,5.664 112.13,5.664 C111.831333,5.664 111.554,5.712 111.298,5.808 C111.042,5.904 110.818,6.056 110.626,6.264 C110.434,6.472 110.284667,6.736 110.178,7.056 C110.071333,7.376 110.018,7.75466667 110.018,8.192 L110.018,12.096 L108.578,12.096 L108.578,0 Z" id="Path"></path>
            <path d="M118.192,8.304 C118.192,8.688 118.250667,9.04266667 118.368,9.368 C118.485333,9.69333333 118.650667,9.97066667 118.864,10.2 C119.077333,10.4293333 119.338667,10.6106667 119.648,10.744 C119.957333,10.8773333 120.304,10.944 120.688,10.944 C121.072,10.944 121.418667,10.8773333 121.728,10.744 C122.037333,10.6106667 122.298667,10.4293333 122.512,10.2 C122.725333,9.97066667 122.890667,9.69333333 123.008,9.368 C123.125333,9.04266667 123.184,8.688 123.184,8.304 C123.184,7.92 123.125333,7.56533333 123.008,7.24 C122.890667,6.91466667 122.725333,6.63733333 122.512,6.408 C122.298667,6.17866667 122.037333,5.99733333 121.728,5.864 C121.418667,5.73066667 121.072,5.664 120.688,5.664 C120.304,5.664 119.957333,5.73066667 119.648,5.864 C119.338667,5.99733333 119.077333,6.17866667 118.864,6.408 C118.650667,6.63733333 118.485333,6.91466667 118.368,7.24 C118.250667,7.56533333 118.192,7.92 118.192,8.304 Z M116.656,8.304 C116.656,7.74933333 116.76,7.232 116.968,6.752 C117.176,6.272 117.461333,5.85066667 117.824,5.488 C118.186667,5.12533333 118.613333,4.84 119.104,4.632 C119.594667,4.424 120.122667,4.32 120.688,4.32 C121.253333,4.32 121.781333,4.424 122.272,4.632 C122.762667,4.84 123.189333,5.12533333 123.552,5.488 C123.914667,5.85066667 124.2,6.272 124.408,6.752 C124.616,7.232 124.72,7.74933333 124.72,8.304 C124.72,8.85866667 124.616,9.37866667 124.408,9.864 C124.2,10.3493333 123.914667,10.7706667 123.552,11.128 C123.189333,11.4853333 122.762667,11.768 122.272,11.976 C121.781333,12.184 121.253333,12.288 120.688,12.288 C120.122667,12.288 119.594667,12.184 119.104,11.976 C118.613333,11.768 118.186667,11.4853333 117.824,11.128 C117.461333,10.7706667 117.176,10.3493333 116.968,9.864 C116.76,9.37866667 116.656,8.85866667 116.656,8.304 Z M121.744,3.072 L120.416,3.072 L118.032,0.768 L120.08,0.768 L121.744,3.072 Z" id="Shape"></path>
            <path d="M126.19,4.512 L127.63,4.512 L127.63,12.096 L126.19,12.096 L126.19,4.512 Z M125.854,1.792 C125.854,1.504 125.958,1.256 126.166,1.048 C126.374,0.84 126.622,0.736 126.91,0.736 C127.198,0.736 127.446,0.84 127.654,1.048 C127.862,1.256 127.966,1.504 127.966,1.792 C127.966,2.08 127.862,2.328 127.654,2.536 C127.446,2.744 127.198,2.848 126.91,2.848 C126.622,2.848 126.374,2.744 126.166,2.536 C125.958,2.328 125.854,2.08 125.854,1.792 Z" id="Shape"></path>
            <path d="M133.5,6.416 C133.329333,6.20266667 133.118667,6.024 132.868,5.88 C132.617333,5.736 132.310667,5.664 131.948,5.664 C131.606667,5.664 131.310667,5.736 131.06,5.88 C130.809333,6.024 130.684,6.23466667 130.684,6.512 C130.684,6.736 130.756,6.91733333 130.9,7.056 C131.044,7.19466667 131.214667,7.30666667 131.412,7.392 C131.609333,7.47733333 131.82,7.54133333 132.044,7.584 C132.268,7.62666667 132.46,7.664 132.62,7.696 C132.929333,7.77066667 133.22,7.86133333 133.492,7.968 C133.764,8.07466667 133.998667,8.21333333 134.196,8.384 C134.393333,8.55466667 134.548,8.76266667 134.66,9.008 C134.772,9.25333333 134.828,9.552 134.828,9.904 C134.828,10.3306667 134.737333,10.696 134.556,11 C134.374667,11.304 134.14,11.552 133.852,11.744 C133.564,11.936 133.236,12.0746667 132.868,12.16 C132.5,12.2453333 132.129333,12.288 131.756,12.288 C131.126667,12.288 130.574667,12.192 130.1,12 C129.625333,11.808 129.201333,11.456 128.828,10.944 L129.916,10.048 C130.150667,10.2826667 130.412,10.4906667 130.7,10.672 C130.988,10.8533333 131.34,10.944 131.756,10.944 C131.937333,10.944 132.121333,10.9253333 132.308,10.888 C132.494667,10.8506667 132.66,10.792 132.804,10.712 C132.948,10.632 133.065333,10.5306667 133.156,10.408 C133.246667,10.2853333 133.292,10.144 133.292,9.984 C133.292,9.77066667 133.225333,9.59466667 133.092,9.456 C132.958667,9.31733333 132.798667,9.208 132.612,9.128 C132.425333,9.048 132.228,8.984 132.02,8.936 C131.812,8.888 131.628,8.848 131.468,8.816 C131.158667,8.74133333 130.865333,8.656 130.588,8.56 C130.310667,8.464 130.065333,8.336 129.852,8.176 C129.638667,8.016 129.468,7.81333333 129.34,7.568 C129.212,7.32266667 129.148,7.01866667 129.148,6.656 C129.148,6.26133333 129.230667,5.91733333 129.396,5.624 C129.561333,5.33066667 129.78,5.088 130.052,4.896 C130.324,4.704 130.633333,4.56 130.98,4.464 C131.326667,4.368 131.676,4.32 132.028,4.32 C132.54,4.32 133.030667,4.416 133.5,4.608 C133.969333,4.8 134.342667,5.12 134.62,5.568 L133.5,6.416 Z" id="Path"></path>
            <path d="M137.21,8.832 C137.21,9.16266667 137.282,9.464 137.426,9.736 C137.57,10.008 137.759333,10.24 137.994,10.432 C138.228667,10.624 138.500667,10.7733333 138.81,10.88 C139.119333,10.9866667 139.439333,11.04 139.77,11.04 C140.218,11.04 140.607333,10.936 140.938,10.728 C141.268667,10.52 141.572667,10.2453333 141.85,9.904 L142.938,10.736 C142.138,11.7706667 141.018,12.288 139.578,12.288 C138.980667,12.288 138.439333,12.1866667 137.954,11.984 C137.468667,11.7813333 137.058,11.5013333 136.722,11.144 C136.386,10.7866667 136.127333,10.3653333 135.946,9.88 C135.764667,9.39466667 135.674,8.86933333 135.674,8.304 C135.674,7.73866667 135.772667,7.21333333 135.97,6.728 C136.167333,6.24266667 136.439333,5.82133333 136.786,5.464 C137.132667,5.10666667 137.546,4.82666667 138.026,4.624 C138.506,4.42133333 139.028667,4.32 139.594,4.32 C140.266,4.32 140.834,4.43733333 141.298,4.672 C141.762,4.90666667 142.143333,5.21333333 142.442,5.592 C142.740667,5.97066667 142.956667,6.39733333 143.09,6.872 C143.223333,7.34666667 143.29,7.82933333 143.29,8.32 L143.29,8.832 L137.21,8.832 Z M141.754,7.68 C141.743333,7.36 141.692667,7.06666667 141.602,6.8 C141.511333,6.53333333 141.375333,6.30133333 141.194,6.104 C141.012667,5.90666667 140.786,5.752 140.514,5.64 C140.242,5.528 139.924667,5.472 139.562,5.472 C139.21,5.472 138.887333,5.53866667 138.594,5.672 C138.300667,5.80533333 138.052667,5.97866667 137.85,6.192 C137.647333,6.40533333 137.49,6.64266667 137.378,6.904 C137.266,7.16533333 137.21,7.424 137.21,7.68 L141.754,7.68 Z" id="Shape"></path>
            <path d="M144.6,5.44 C145.005333,5.06666667 145.474667,4.78666667 146.008,4.6 C146.541333,4.41333333 147.074667,4.32 147.608,4.32 C148.162667,4.32 148.64,4.38933333 149.04,4.528 C149.44,4.66666667 149.768,4.85333333 150.024,5.088 C150.28,5.32266667 150.469333,5.592 150.592,5.896 C150.714667,6.2 150.776,6.51733333 150.776,6.848 L150.776,10.72 C150.776,10.9866667 150.781333,11.232 150.792,11.456 C150.802667,11.68 150.818667,11.8933333 150.84,12.096 L149.56,12.096 C149.528,11.712 149.512,11.328 149.512,10.944 L149.48,10.944 C149.16,11.4346667 148.781333,11.7813333 148.344,11.984 C147.906667,12.1866667 147.4,12.288 146.824,12.288 C146.472,12.288 146.136,12.24 145.816,12.144 C145.496,12.048 145.216,11.904 144.976,11.712 C144.736,11.52 144.546667,11.2826667 144.408,11 C144.269333,10.7173333 144.2,10.3893333 144.2,10.016 C144.2,9.52533333 144.309333,9.11466667 144.528,8.784 C144.746667,8.45333333 145.045333,8.184 145.424,7.976 C145.802667,7.768 146.245333,7.61866667 146.752,7.528 C147.258667,7.43733333 147.8,7.392 148.376,7.392 L149.432,7.392 L149.432,7.072 C149.432,6.88 149.394667,6.688 149.32,6.496 C149.245333,6.304 149.133333,6.13066667 148.984,5.976 C148.834667,5.82133333 148.648,5.69866667 148.424,5.608 C148.2,5.51733333 147.933333,5.472 147.624,5.472 C147.346667,5.472 147.104,5.49866667 146.896,5.552 C146.688,5.60533333 146.498667,5.672 146.328,5.752 C146.157333,5.832 146.002667,5.92533333 145.864,6.032 C145.725333,6.13866667 145.592,6.24 145.464,6.336 L144.6,5.44 Z M148.664,8.448 C148.322667,8.448 147.973333,8.46666667 147.616,8.504 C147.258667,8.54133333 146.933333,8.61333333 146.64,8.72 C146.346667,8.82666667 146.106667,8.976 145.92,9.168 C145.733333,9.36 145.64,9.60533333 145.64,9.904 C145.64,10.3413333 145.786667,10.656 146.08,10.848 C146.373333,11.04 146.770667,11.136 147.272,11.136 C147.666667,11.136 148.002667,11.0693333 148.28,10.936 C148.557333,10.8026667 148.781333,10.6293333 148.952,10.416 C149.122667,10.2026667 149.245333,9.96533333 149.32,9.704 C149.394667,9.44266667 149.432,9.184 149.432,8.928 L149.432,8.448 L148.664,8.448 Z" id="Shape"></path>
            <polygon id="Path" points="152.534 0 153.974 0 153.974 12.096 152.534 12.096"></polygon>
            <path d="M159.876,5.76 L157.812,5.76 L157.812,9.2 C157.812,9.41333333 157.817333,9.624 157.828,9.832 C157.838667,10.04 157.878667,10.2266667 157.948,10.392 C158.017333,10.5573333 158.124,10.6906667 158.268,10.792 C158.412,10.8933333 158.622667,10.944 158.9,10.944 C159.070667,10.944 159.246667,10.928 159.428,10.896 C159.609333,10.864 159.774667,10.8053333 159.924,10.72 L159.924,12.032 C159.753333,12.128 159.532,12.1946667 159.26,12.232 C158.988,12.2693333 158.777333,12.288 158.628,12.288 C158.073333,12.288 157.644,12.2106667 157.34,12.056 C157.036,11.9013333 156.812,11.7013333 156.668,11.456 C156.524,11.2106667 156.438667,10.936 156.412,10.632 C156.385333,10.328 156.372,10.0213333 156.372,9.712 L156.372,5.76 L154.708,5.76 L154.708,4.512 L156.372,4.512 L156.372,2.384 L157.812,2.384 L157.812,4.512 L159.876,4.512 L159.876,5.76 Z" id="Path"></path>
            <path d="M161.314,5.44 C161.719333,5.06666667 162.188667,4.78666667 162.722,4.6 C163.255333,4.41333333 163.788667,4.32 164.322,4.32 C164.876667,4.32 165.354,4.38933333 165.754,4.528 C166.154,4.66666667 166.482,4.85333333 166.738,5.088 C166.994,5.32266667 167.183333,5.592 167.306,5.896 C167.428667,6.2 167.49,6.51733333 167.49,6.848 L167.49,10.72 C167.49,10.9866667 167.495333,11.232 167.506,11.456 C167.516667,11.68 167.532667,11.8933333 167.554,12.096 L166.274,12.096 C166.242,11.712 166.226,11.328 166.226,10.944 L166.194,10.944 C165.874,11.4346667 165.495333,11.7813333 165.058,11.984 C164.620667,12.1866667 164.114,12.288 163.538,12.288 C163.186,12.288 162.85,12.24 162.53,12.144 C162.21,12.048 161.93,11.904 161.69,11.712 C161.45,11.52 161.260667,11.2826667 161.122,11 C160.983333,10.7173333 160.914,10.3893333 160.914,10.016 C160.914,9.52533333 161.023333,9.11466667 161.242,8.784 C161.460667,8.45333333 161.759333,8.184 162.138,7.976 C162.516667,7.768 162.959333,7.61866667 163.466,7.528 C163.972667,7.43733333 164.514,7.392 165.09,7.392 L166.146,7.392 L166.146,7.072 C166.146,6.88 166.108667,6.688 166.034,6.496 C165.959333,6.304 165.847333,6.13066667 165.698,5.976 C165.548667,5.82133333 165.362,5.69866667 165.138,5.608 C164.914,5.51733333 164.647333,5.472 164.338,5.472 C164.060667,5.472 163.818,5.49866667 163.61,5.552 C163.402,5.60533333 163.212667,5.672 163.042,5.752 C162.871333,5.832 162.716667,5.92533333 162.578,6.032 C162.439333,6.13866667 162.306,6.24 162.178,6.336 L161.314,5.44 Z M165.378,8.448 C165.036667,8.448 164.687333,8.46666667 164.33,8.504 C163.972667,8.54133333 163.647333,8.61333333 163.354,8.72 C163.060667,8.82666667 162.820667,8.976 162.634,9.168 C162.447333,9.36 162.354,9.60533333 162.354,9.904 C162.354,10.3413333 162.500667,10.656 162.794,10.848 C163.087333,11.04 163.484667,11.136 163.986,11.136 C164.380667,11.136 164.716667,11.0693333 164.994,10.936 C165.271333,10.8026667 165.495333,10.6293333 165.666,10.416 C165.836667,10.2026667 165.959333,9.96533333 166.034,9.704 C166.108667,9.44266667 166.146,9.184 166.146,8.928 L166.146,8.448 L165.378,8.448 Z" id="Shape"></path>
            <path d="M177.054,0.768 L178.446,0.768 L183.294,12.096 L181.502,12.096 L180.366,9.296 L174.974,9.296 L173.854,12.096 L172.062,12.096 L177.054,0.768 Z M179.806,7.952 L177.694,2.752 L177.662,2.752 L175.518,7.952 L179.806,7.952 Z" id="Shape"></path>
            <polygon id="Path" points="184.06 0 185.5 0 185.5 12.096 184.06 12.096"></polygon>
            <path d="M187.338,0 L188.778,0 L188.778,5.6 L188.81,5.6 C189.066,5.20533333 189.434,4.89333333 189.914,4.664 C190.394,4.43466667 190.906,4.32 191.45,4.32 C192.036667,4.32 192.567333,4.42133333 193.042,4.624 C193.516667,4.82666667 193.922,5.10666667 194.258,5.464 C194.594,5.82133333 194.852667,6.24266667 195.034,6.728 C195.215333,7.21333333 195.306,7.73866667 195.306,8.304 C195.306,8.86933333 195.215333,9.392 195.034,9.872 C194.852667,10.352 194.594,10.7733333 194.258,11.136 C193.922,11.4986667 193.516667,11.7813333 193.042,11.984 C192.567333,12.1866667 192.036667,12.288 191.45,12.288 C190.938,12.288 190.439333,12.176 189.954,11.952 C189.468667,11.728 189.087333,11.4133333 188.81,11.008 L188.778,11.008 L188.778,12.096 L187.338,12.096 L187.338,0 Z M191.274,10.944 C191.658,10.944 192.004667,10.8773333 192.314,10.744 C192.623333,10.6106667 192.884667,10.4293333 193.098,10.2 C193.311333,9.97066667 193.476667,9.69333333 193.594,9.368 C193.711333,9.04266667 193.77,8.688 193.77,8.304 C193.77,7.92 193.711333,7.56533333 193.594,7.24 C193.476667,6.91466667 193.311333,6.63733333 193.098,6.408 C192.884667,6.17866667 192.623333,5.99733333 192.314,5.864 C192.004667,5.73066667 191.658,5.664 191.274,5.664 C190.89,5.664 190.543333,5.73066667 190.234,5.864 C189.924667,5.99733333 189.663333,6.17866667 189.45,6.408 C189.236667,6.63733333 189.071333,6.91466667 188.954,7.24 C188.836667,7.56533333 188.778,7.92 188.778,8.304 C188.778,8.688 188.836667,9.04266667 188.954,9.368 C189.071333,9.69333333 189.236667,9.97066667 189.45,10.2 C189.663333,10.4293333 189.924667,10.6106667 190.234,10.744 C190.543333,10.8773333 190.89,10.944 191.274,10.944 Z" id="Shape"></path>
            <path d="M196.696,5.44 C197.101333,5.06666667 197.570667,4.78666667 198.104,4.6 C198.637333,4.41333333 199.170667,4.32 199.704,4.32 C200.258667,4.32 200.736,4.38933333 201.136,4.528 C201.536,4.66666667 201.864,4.85333333 202.12,5.088 C202.376,5.32266667 202.565333,5.592 202.688,5.896 C202.810667,6.2 202.872,6.51733333 202.872,6.848 L202.872,10.72 C202.872,10.9866667 202.877333,11.232 202.888,11.456 C202.898667,11.68 202.914667,11.8933333 202.936,12.096 L201.656,12.096 C201.624,11.712 201.608,11.328 201.608,10.944 L201.576,10.944 C201.256,11.4346667 200.877333,11.7813333 200.44,11.984 C200.002667,12.1866667 199.496,12.288 198.92,12.288 C198.568,12.288 198.232,12.24 197.912,12.144 C197.592,12.048 197.312,11.904 197.072,11.712 C196.832,11.52 196.642667,11.2826667 196.504,11 C196.365333,10.7173333 196.296,10.3893333 196.296,10.016 C196.296,9.52533333 196.405333,9.11466667 196.624,8.784 C196.842667,8.45333333 197.141333,8.184 197.52,7.976 C197.898667,7.768 198.341333,7.61866667 198.848,7.528 C199.354667,7.43733333 199.896,7.392 200.472,7.392 L201.528,7.392 L201.528,7.072 C201.528,6.88 201.490667,6.688 201.416,6.496 C201.341333,6.304 201.229333,6.13066667 201.08,5.976 C200.930667,5.82133333 200.744,5.69866667 200.52,5.608 C200.296,5.51733333 200.029333,5.472 199.72,5.472 C199.442667,5.472 199.2,5.49866667 198.992,5.552 C198.784,5.60533333 198.594667,5.672 198.424,5.752 C198.253333,5.832 198.098667,5.92533333 197.96,6.032 C197.821333,6.13866667 197.688,6.24 197.56,6.336 L196.696,5.44 Z M200.76,8.448 C200.418667,8.448 200.069333,8.46666667 199.712,8.504 C199.354667,8.54133333 199.029333,8.61333333 198.736,8.72 C198.442667,8.82666667 198.202667,8.976 198.016,9.168 C197.829333,9.36 197.736,9.60533333 197.736,9.904 C197.736,10.3413333 197.882667,10.656 198.176,10.848 C198.469333,11.04 198.866667,11.136 199.368,11.136 C199.762667,11.136 200.098667,11.0693333 200.376,10.936 C200.653333,10.8026667 200.877333,10.6293333 201.048,10.416 C201.218667,10.2026667 201.341333,9.96533333 201.416,9.704 C201.490667,9.44266667 201.528,9.184 201.528,8.928 L201.528,8.448 L200.76,8.448 Z" id="Shape"></path>
        </g>
    </g>
</svg>